<svg width="36" height="36" viewBox="0 0 36 36" fill="none" xmlns="http://www.w3.org/2000/svg">
<g clip-path="url(#clip0_20005128_7780)" filter="url(#filter0_d_20005128_7780)">
<path d="M17.9453 21.6562C12.9141 21.6562 10.5728 17.4344 10.4753 17.2548C10.188 16.7235 10.3858 16.0598 10.9171 15.7722C11.4486 15.4849 12.1121 15.6827 12.3994 16.214C12.4018 16.2183 12.8733 17.0614 13.8111 17.8813C15.0159 18.9347 16.4068 19.4688 17.9453 19.4688C21.6873 19.4688 23.4734 16.2465 23.491 16.214C23.7785 15.6827 24.4422 15.4849 24.9735 15.7724C25.5048 16.0598 25.7026 16.7235 25.4151 17.2548C25.3179 17.4344 22.9766 21.6562 17.9453 21.6562ZM25.244 25.9823C25.7607 25.6694 25.9258 24.9969 25.6129 24.4801C25.2999 23.9636 24.6272 23.7985 24.1107 24.1114C22.2735 25.2242 20.1604 25.8125 18 25.8125C11.4866 25.8125 6.1875 20.5134 6.1875 14C6.1875 7.48663 11.4866 2.1875 18 2.1875C24.5134 2.1875 29.8125 7.48663 29.8125 14C29.8125 16.3291 29.1199 18.5961 27.8096 20.5561C27.4738 21.0583 27.6088 21.7376 28.1108 22.0732C28.6132 22.4091 29.2923 22.274 29.6279 21.7718C31.1799 19.451 32 16.7634 32 14C32 10.2605 30.5437 6.74472 27.8995 4.10049C25.2553 1.45627 21.7395 0 18 0C14.2605 0 10.7447 1.45627 8.10049 4.10049C5.45627 6.74472 4 10.2605 4 14C4 17.7395 5.45627 21.2553 8.10049 23.8995C10.7447 26.5437 14.2605 28 18 28C20.5601 28 23.065 27.3023 25.244 25.9823ZM25.6016 11.375C25.6016 9.86725 24.3749 8.64062 22.8672 8.64062C21.3594 8.64062 20.1328 9.86725 20.1328 11.375C20.1328 11.9791 20.6224 12.4688 21.2266 12.4688C21.8307 12.4688 22.3203 11.9791 22.3203 11.375C22.3203 11.0734 22.5656 10.8281 22.8672 10.8281C23.1688 10.8281 23.4141 11.0734 23.4141 11.375C23.4141 11.9791 23.9037 12.4688 24.5078 12.4688C25.1119 12.4688 25.6016 11.9791 25.6016 11.375ZM15.9219 11.375C15.9219 9.86725 14.6953 8.64062 13.1875 8.64062C11.6797 8.64062 10.4531 9.86725 10.4531 11.375C10.4531 11.9791 10.9427 12.4688 11.5469 12.4688C12.151 12.4688 12.6406 11.9791 12.6406 11.375C12.6406 11.0734 12.8859 10.8281 13.1875 10.8281C13.4891 10.8281 13.7344 11.0734 13.7344 11.375C13.7344 11.9791 14.224 12.4688 14.8281 12.4688C15.4323 12.4688 15.9219 11.9791 15.9219 11.375Z" fill="url(#paint0_linear_20005128_7780)"/>
</g>
<defs>
<filter id="filter0_d_20005128_7780" x="0" y="0" width="36" height="36" filterUnits="userSpaceOnUse" color-interpolation-filters="sRGB">
<feFlood flood-opacity="0" result="BackgroundImageFix"/>
<feColorMatrix in="SourceAlpha" type="matrix" values="0 0 0 0 0 0 0 0 0 0 0 0 0 0 0 0 0 0 127 0" result="hardAlpha"/>
<feOffset dy="4"/>
<feGaussianBlur stdDeviation="2"/>
<feComposite in2="hardAlpha" operator="out"/>
<feColorMatrix type="matrix" values="0 0 0 0 0 0 0 0 0 0 0 0 0 0 0 0 0 0 0.25 0"/>
<feBlend mode="normal" in2="BackgroundImageFix" result="effect1_dropShadow_20005128_7780"/>
<feBlend mode="normal" in="SourceGraphic" in2="effect1_dropShadow_20005128_7780" result="shape"/>
</filter>
<linearGradient id="paint0_linear_20005128_7780" x1="4" y1="14.067" x2="32" y2="14.067" gradientUnits="userSpaceOnUse">
<stop stop-color="#6366F1"/>
<stop offset="0.5" stop-color="#8B5CF6"/>
<stop offset="1" stop-color="#D946EF"/>
</linearGradient>
<clipPath id="clip0_20005128_7780">
<rect width="28" height="28" fill="white" transform="translate(4)"/>
</clipPath>
</defs>
</svg>
