<svg width="96" height="24" viewBox="0 0 96 24" fill="none" xmlns="http://www.w3.org/2000/svg">
<g filter="url(#filter0_d_20005128_7660)">
<path d="M18.6312 6.11933C18.5452 5.86733 18.3178 5.68933 18.0525 5.66866L14.2518 5.36666L12.6072 1.72599C12.4998 1.48666 12.2618 1.33333 11.9998 1.33333C11.7378 1.33333 11.4998 1.48666 11.3925 1.72533L9.74782 5.36666L5.94716 5.66866C5.68649 5.68933 5.46182 5.86066 5.37316 6.10666C5.28449 6.35266 5.34716 6.628 5.53449 6.81066L8.34316 9.54866L7.34982 13.85C7.28849 14.116 7.39582 14.3927 7.62049 14.548C7.73516 14.6267 7.86716 14.6667 7.99982 14.6667C8.12849 14.6667 8.25782 14.6293 8.36982 14.5547L11.9998 12.1347L15.6298 14.5547C15.8618 14.7093 16.1665 14.7033 16.3932 14.5387C16.6185 14.374 16.7178 14.0853 16.6412 13.8173L15.4218 9.55066L18.4458 6.82933C18.6438 6.65066 18.7165 6.37199 18.6312 6.11933Z" fill="#FFBA08"/>
<path d="M36.6312 6.11933C36.5452 5.86733 36.3178 5.68933 36.0525 5.66866L32.2518 5.36666L30.6072 1.72599C30.4998 1.48666 30.2618 1.33333 29.9998 1.33333C29.7378 1.33333 29.4998 1.48666 29.3925 1.72533L27.7478 5.36666L23.9472 5.66866C23.6865 5.68933 23.4618 5.86066 23.3732 6.10666C23.2845 6.35266 23.3472 6.628 23.5345 6.81066L26.3432 9.54866L25.3498 13.85C25.2885 14.116 25.3958 14.3927 25.6205 14.548C25.7352 14.6267 25.8672 14.6667 25.9998 14.6667C26.1285 14.6667 26.2578 14.6293 26.3698 14.5547L29.9998 12.1347L33.6298 14.5547C33.8618 14.7093 34.1665 14.7033 34.3932 14.5387C34.6185 14.374 34.7178 14.0853 34.6412 13.8173L33.4218 9.55066L36.4458 6.82933C36.6438 6.65066 36.7165 6.37199 36.6312 6.11933Z" fill="#FFBA08"/>
<path d="M54.6312 6.11933C54.5452 5.86733 54.3178 5.68933 54.0525 5.66866L50.2518 5.36666L48.6072 1.72599C48.4998 1.48666 48.2618 1.33333 47.9998 1.33333C47.7378 1.33333 47.4998 1.48666 47.3925 1.72533L45.7478 5.36666L41.9472 5.66866C41.6865 5.68933 41.4618 5.86066 41.3732 6.10666C41.2845 6.35266 41.3472 6.628 41.5345 6.81066L44.3432 9.54866L43.3498 13.85C43.2885 14.116 43.3958 14.3927 43.6205 14.548C43.7352 14.6267 43.8672 14.6667 43.9998 14.6667C44.1285 14.6667 44.2578 14.6293 44.3698 14.5547L47.9998 12.1347L51.6298 14.5547C51.8618 14.7093 52.1665 14.7033 52.3932 14.5387C52.6185 14.374 52.7178 14.0853 52.6412 13.8173L51.4218 9.55066L54.4458 6.82933C54.6438 6.65066 54.7165 6.37199 54.6312 6.11933Z" fill="#FFBA08"/>
<path d="M72.6312 6.11933C72.5452 5.86733 72.3178 5.68933 72.0525 5.66866L68.2518 5.36666L66.6072 1.72599C66.4998 1.48666 66.2618 1.33333 65.9998 1.33333C65.7378 1.33333 65.4998 1.48666 65.3925 1.72533L63.7478 5.36666L59.9472 5.66866C59.6865 5.68933 59.4618 5.86066 59.3732 6.10666C59.2845 6.35266 59.3472 6.628 59.5345 6.81066L62.3432 9.54866L61.3498 13.85C61.2885 14.116 61.3958 14.3927 61.6205 14.548C61.7352 14.6267 61.8672 14.6667 61.9998 14.6667C62.1285 14.6667 62.2578 14.6293 62.3698 14.5547L65.9998 12.1347L69.6298 14.5547C69.8618 14.7093 70.1665 14.7033 70.3932 14.5387C70.6185 14.374 70.7178 14.0853 70.6412 13.8173L69.4218 9.55066L72.4458 6.82933C72.6438 6.65066 72.7165 6.37199 72.6312 6.11933Z" fill="#FFBA08"/>
<g opacity="0.5">
<path d="M80.344 9.54866L79.3507 13.85C79.2893 14.116 79.396 14.3927 79.6213 14.548C79.7353 14.6267 79.8673 14.6667 80 14.6667C80.1287 14.6667 80.258 14.6293 80.37 14.5547L84 12.1347L87.63 14.5547C87.862 14.7093 88.1667 14.7033 88.3933 14.5387C88.6187 14.374 88.718 14.0853 88.6413 13.8173L87.422 9.55066L90.446 6.82933C90.644 6.65066 90.7167 6.372 90.6313 6.12C90.5453 5.868 90.318 5.69066 90.0527 5.66933L86.252 5.36666L84.6073 1.72599C84.5 1.48666 84.262 1.33333 84 1.33333C83.738 1.33333 83.5 1.48666 83.3927 1.72599L81.748 5.36666L77.9473 5.66866C77.686 5.68933 77.4613 5.86066 77.3733 6.10666C77.284 6.35266 77.348 6.628 77.5347 6.81066L80.344 9.54866ZM82.246 6.66466C82.488 6.64533 82.7013 6.496 82.8007 6.274L84 3.61999L85.1993 6.274C85.2987 6.496 85.512 6.64533 85.754 6.66466L88.402 6.87466L86.2213 8.83733C86.032 9.00799 85.9567 9.27066 86.026 9.516L86.8613 12.4393L84.3707 10.7787C84.1467 10.6287 83.8553 10.6287 83.6313 10.7787L81.0287 12.514L81.7287 9.48333C81.7807 9.25666 81.7113 9.01866 81.5447 8.85666L79.5193 6.882L82.246 6.66466Z" fill="white"/>
</g>
</g>
<defs>
<filter id="filter0_d_20005128_7660" x="0" y="0" width="96" height="24" filterUnits="userSpaceOnUse" color-interpolation-filters="sRGB">
<feFlood flood-opacity="0" result="BackgroundImageFix"/>
<feColorMatrix in="SourceAlpha" type="matrix" values="0 0 0 0 0 0 0 0 0 0 0 0 0 0 0 0 0 0 127 0" result="hardAlpha"/>
<feOffset dy="4"/>
<feGaussianBlur stdDeviation="2"/>
<feComposite in2="hardAlpha" operator="out"/>
<feColorMatrix type="matrix" values="0 0 0 0 0 0 0 0 0 0 0 0 0 0 0 0 0 0 0.25 0"/>
<feBlend mode="normal" in2="BackgroundImageFix" result="effect1_dropShadow_20005128_7660"/>
<feBlend mode="normal" in="SourceGraphic" in2="effect1_dropShadow_20005128_7660" result="shape"/>
</filter>
</defs>
</svg>
