<svg width="367" height="75" viewBox="0 0 367 75" fill="none" xmlns="http://www.w3.org/2000/svg">
<mask id="path-1-inside-1_20005128_14394" fill="white">
<path d="M0 0.5H366.4V74.9H0V0.5Z"/>
</mask>
<path d="M0 0.5H366.4V74.9H0V0.5Z" fill="#131022"/>
<path d="M366.4 74.9V75.7H367.2V74.9H366.4ZM0 74.9H-0.8V75.7H0V74.9ZM365.6 0.5V74.9H367.2V0.5H365.6ZM366.4 74.1H0V75.7H366.4V74.1ZM0.8 74.9V0.5H-0.8V74.9H0.8Z" fill="white" fill-opacity="0.15" mask="url(#path-1-inside-1_20005128_14394)"/>
<rect width="364.8" height="73.6" transform="translate(0.800049 0.5)" fill="#131022"/>
<path d="M28.36 33.095L25.016 21.575H26.768L29.192 30.287L31.616 21.583L33.376 21.575L35.8 30.287L38.224 21.575H39.984L36.632 33.095H34.968L32.496 24.479L30.024 33.095H28.36ZM47.3903 33.095V28.847C47.3903 28.511 47.361 28.167 47.3023 27.815C47.249 27.4576 47.1423 27.127 46.9823 26.823C46.8276 26.519 46.6063 26.2736 46.3183 26.087C46.0356 25.9003 45.665 25.807 45.2063 25.807C44.9076 25.807 44.625 25.8576 44.3583 25.959C44.0916 26.055 43.857 26.2123 43.6543 26.431C43.457 26.6496 43.2996 26.9376 43.1823 27.295C43.0703 27.6523 43.0143 28.087 43.0143 28.599L41.9743 28.207C41.9743 27.423 42.121 26.7323 42.4143 26.135C42.7076 25.5323 43.129 25.063 43.6783 24.727C44.2276 24.391 44.8916 24.223 45.6703 24.223C46.2676 24.223 46.769 24.319 47.1743 24.511C47.5796 24.703 47.9076 24.9563 48.1583 25.271C48.4143 25.5803 48.609 25.919 48.7423 26.287C48.8756 26.655 48.9663 27.015 49.0143 27.367C49.0623 27.719 49.0863 28.0283 49.0863 28.295V33.095H47.3903ZM41.3183 33.095V21.575H42.8143V27.791H43.0143V33.095H41.3183ZM55.002 33.335C54.1434 33.335 53.3887 33.1483 52.738 32.775C52.0927 32.3963 51.5887 31.871 51.226 31.199C50.8687 30.5216 50.69 29.7376 50.69 28.847C50.69 27.903 50.866 27.0843 51.218 26.391C51.5754 25.6976 52.0714 25.1616 52.706 24.783C53.3407 24.4043 54.0794 24.215 54.922 24.215C55.802 24.215 56.5514 24.4203 57.17 24.831C57.7887 25.2363 58.25 25.815 58.554 26.567C58.8634 27.319 58.986 28.2123 58.922 29.247H57.25V28.639C57.2394 27.6363 57.0474 26.895 56.674 26.415C56.306 25.935 55.7434 25.695 54.986 25.695C54.1487 25.695 53.5194 25.959 53.098 26.487C52.6767 27.015 52.466 27.7776 52.466 28.775C52.466 29.7243 52.6767 30.4603 53.098 30.983C53.5194 31.5003 54.1274 31.759 54.922 31.759C55.4447 31.759 55.8954 31.6416 56.274 31.407C56.658 31.167 56.9567 30.8256 57.17 30.383L58.81 30.903C58.474 31.6763 57.9647 32.2763 57.282 32.703C56.5994 33.1243 55.8394 33.335 55.002 33.335ZM51.922 29.247V27.943H58.09V29.247H51.922ZM66.5465 33.095V28.847C66.5465 28.511 66.5172 28.167 66.4585 27.815C66.4052 27.4576 66.2985 27.127 66.1385 26.823C65.9839 26.519 65.7625 26.2736 65.4745 26.087C65.1919 25.9003 64.8212 25.807 64.3625 25.807C64.0639 25.807 63.7812 25.8576 63.5145 25.959C63.2479 26.055 63.0132 26.2123 62.8105 26.431C62.6132 26.6496 62.4559 26.9376 62.3385 27.295C62.2265 27.6523 62.1705 28.087 62.1705 28.599L61.1305 28.207C61.1305 27.423 61.2772 26.7323 61.5705 26.135C61.8639 25.5323 62.2852 25.063 62.8345 24.727C63.3839 24.391 64.0479 24.223 64.8265 24.223C65.4239 24.223 65.9252 24.319 66.3305 24.511C66.7359 24.703 67.0639 24.9563 67.3145 25.271C67.5705 25.5803 67.7652 25.919 67.8985 26.287C68.0319 26.655 68.1225 27.015 68.1705 27.367C68.2185 27.719 68.2425 28.0283 68.2425 28.295V33.095H66.5465ZM60.4745 33.095V24.455H61.9705V26.951H62.1705V33.095H60.4745ZM77.2254 33.335C76.3401 33.335 75.5881 33.1376 74.9694 32.743C74.3508 32.3483 73.8761 31.807 73.5454 31.119C73.2201 30.431 73.0548 29.6496 73.0494 28.775C73.0548 27.8843 73.2254 27.0976 73.5614 26.415C73.8974 25.727 74.3774 25.1883 75.0014 24.799C75.6254 24.4096 76.3748 24.215 77.2494 24.215C78.1934 24.215 78.9988 24.4496 79.6654 24.919C80.3374 25.3883 80.7801 26.031 80.9934 26.847L79.3294 27.327C79.1641 26.8416 78.8921 26.4656 78.5134 26.199C78.1401 25.927 77.7108 25.791 77.2254 25.791C76.6761 25.791 76.2254 25.9216 75.8734 26.183C75.5214 26.439 75.2601 26.791 75.0894 27.239C74.9188 27.687 74.8308 28.199 74.8254 28.775C74.8308 29.6656 75.0334 30.3856 75.4334 30.935C75.8388 31.4843 76.4361 31.759 77.2254 31.759C77.7641 31.759 78.1988 31.6363 78.5294 31.391C78.8654 31.1403 79.1214 30.783 79.2974 30.319L80.9934 30.719C80.7108 31.5616 80.2441 32.2096 79.5934 32.663C78.9428 33.111 78.1534 33.335 77.2254 33.335ZM84.9538 33.335C84.3138 33.335 83.7778 33.2176 83.3458 32.983C82.9138 32.743 82.5858 32.4283 82.3618 32.039C82.1431 31.6443 82.0338 31.2123 82.0338 30.743C82.0338 30.3056 82.1111 29.9216 82.2658 29.591C82.4205 29.2603 82.6498 28.9803 82.9538 28.751C83.2578 28.5163 83.6311 28.327 84.0738 28.183C84.4578 28.071 84.8925 27.9723 85.3778 27.887C85.8631 27.8016 86.3725 27.7216 86.9058 27.647C87.4445 27.5723 87.9778 27.4976 88.5058 27.423L87.8978 27.759C87.9085 27.0816 87.7645 26.5803 87.4658 26.255C87.1725 25.9243 86.6658 25.759 85.9458 25.759C85.4925 25.759 85.0765 25.8656 84.6978 26.079C84.3191 26.287 84.0551 26.6336 83.9058 27.119L82.3458 26.639C82.5591 25.8976 82.9645 25.3083 83.5618 24.871C84.1645 24.4336 84.9645 24.215 85.9618 24.215C86.7351 24.215 87.4071 24.3483 87.9778 24.615C88.5538 24.8763 88.9751 25.2923 89.2418 25.863C89.3805 26.1456 89.4658 26.4443 89.4978 26.759C89.5298 27.0736 89.5458 27.4123 89.5458 27.775V33.095H88.0658V31.119L88.3538 31.375C87.9965 32.0363 87.5405 32.5296 86.9858 32.855C86.4365 33.175 85.7591 33.335 84.9538 33.335ZM85.2498 31.967C85.7245 31.967 86.1325 31.8843 86.4738 31.719C86.8151 31.5483 87.0898 31.3323 87.2978 31.071C87.5058 30.8096 87.6418 30.5376 87.7058 30.255C87.7965 29.999 87.8471 29.711 87.8578 29.391C87.8738 29.071 87.8818 28.815 87.8818 28.623L88.4258 28.823C87.8978 28.903 87.4178 28.975 86.9858 29.039C86.5538 29.103 86.1618 29.167 85.8098 29.231C85.4631 29.2896 85.1538 29.3616 84.8818 29.447C84.6525 29.527 84.4471 29.623 84.2658 29.735C84.0898 29.847 83.9485 29.983 83.8418 30.143C83.7405 30.303 83.6898 30.4976 83.6898 30.727C83.6898 30.951 83.7458 31.159 83.8578 31.351C83.9698 31.5376 84.1405 31.687 84.3698 31.799C84.5991 31.911 84.8925 31.967 85.2498 31.967ZM97.6872 33.095V28.847C97.6872 28.511 97.6578 28.167 97.5992 27.815C97.5458 27.4576 97.4392 27.127 97.2792 26.823C97.1245 26.519 96.9032 26.2736 96.6152 26.087C96.3325 25.9003 95.9618 25.807 95.5032 25.807C95.2045 25.807 94.9218 25.8576 94.6552 25.959C94.3885 26.055 94.1538 26.2123 93.9512 26.431C93.7538 26.6496 93.5965 26.9376 93.4792 27.295C93.3672 27.6523 93.3112 28.087 93.3112 28.599L92.2712 28.207C92.2712 27.423 92.4178 26.7323 92.7112 26.135C93.0045 25.5323 93.4258 25.063 93.9752 24.727C94.5245 24.391 95.1885 24.223 95.9672 24.223C96.5645 24.223 97.0658 24.319 97.4712 24.511C97.8765 24.703 98.2045 24.9563 98.4552 25.271C98.7112 25.5803 98.9058 25.919 99.0392 26.287C99.1725 26.655 99.2632 27.015 99.3112 27.367C99.3592 27.719 99.3832 28.0283 99.3832 28.295V33.095H97.6872ZM91.6152 33.095V24.455H93.1112V26.951H93.3112V33.095H91.6152ZM104.83 33.095V21.575H106.502V33.095H104.83ZM115.364 33.327C114.766 33.327 114.265 33.231 113.86 33.039C113.454 32.847 113.124 32.5963 112.868 32.287C112.617 31.9723 112.425 31.631 112.292 31.263C112.158 30.895 112.068 30.535 112.02 30.183C111.972 29.831 111.948 29.5216 111.948 29.255V24.455H113.644V28.703C113.644 29.039 113.67 29.3856 113.724 29.743C113.782 30.095 113.889 30.423 114.044 30.727C114.204 31.031 114.425 31.2763 114.708 31.463C114.996 31.6496 115.369 31.743 115.828 31.743C116.126 31.743 116.409 31.695 116.676 31.599C116.942 31.4976 117.174 31.3376 117.372 31.119C117.574 30.9003 117.732 30.6123 117.844 30.255C117.961 29.8976 118.02 29.463 118.02 28.951L119.06 29.343C119.06 30.127 118.913 30.8203 118.62 31.423C118.326 32.0203 117.905 32.487 117.356 32.823C116.806 33.159 116.142 33.327 115.364 33.327ZM118.22 33.095V30.599H118.02V24.455H119.708V33.095H118.22ZM125.255 33.327C124.205 33.327 123.349 33.095 122.687 32.631C122.026 32.167 121.621 31.5136 121.471 30.671L123.183 30.407C123.29 30.855 123.535 31.2096 123.919 31.471C124.309 31.727 124.791 31.855 125.367 31.855C125.89 31.855 126.298 31.7483 126.591 31.535C126.89 31.3216 127.039 31.0283 127.039 30.655C127.039 30.4363 126.986 30.2603 126.879 30.127C126.778 29.9883 126.562 29.8576 126.231 29.735C125.901 29.6123 125.397 29.4603 124.719 29.279C123.978 29.087 123.389 28.8816 122.951 28.663C122.519 28.439 122.21 28.1803 122.023 27.887C121.842 27.5883 121.751 27.2283 121.751 26.807C121.751 26.2843 121.89 25.8283 122.167 25.439C122.445 25.0496 122.834 24.7483 123.335 24.535C123.842 24.3216 124.434 24.215 125.111 24.215C125.773 24.215 126.362 24.319 126.879 24.527C127.397 24.735 127.815 25.031 128.135 25.415C128.455 25.7936 128.647 26.239 128.711 26.751L126.999 27.063C126.941 26.647 126.746 26.319 126.415 26.079C126.085 25.839 125.655 25.7083 125.127 25.687C124.621 25.6656 124.21 25.751 123.895 25.943C123.581 26.1296 123.423 26.3883 123.423 26.719C123.423 26.911 123.482 27.0736 123.599 27.207C123.722 27.3403 123.957 27.4683 124.303 27.591C124.65 27.7136 125.162 27.8603 125.839 28.031C126.565 28.2176 127.141 28.4256 127.567 28.655C127.994 28.879 128.298 29.1483 128.479 29.463C128.666 29.7723 128.759 30.1483 128.759 30.591C128.759 31.4443 128.447 32.1136 127.823 32.599C127.205 33.0843 126.349 33.327 125.255 33.327ZM134.361 33.335C133.503 33.335 132.748 33.1483 132.097 32.775C131.452 32.3963 130.948 31.871 130.585 31.199C130.228 30.5216 130.049 29.7376 130.049 28.847C130.049 27.903 130.225 27.0843 130.577 26.391C130.935 25.6976 131.431 25.1616 132.065 24.783C132.7 24.4043 133.439 24.215 134.281 24.215C135.161 24.215 135.911 24.4203 136.529 24.831C137.148 25.2363 137.609 25.815 137.913 26.567C138.223 27.319 138.345 28.2123 138.281 29.247H136.609V28.639C136.599 27.6363 136.407 26.895 136.033 26.415C135.665 25.935 135.103 25.695 134.345 25.695C133.508 25.695 132.879 25.959 132.457 26.487C132.036 27.015 131.825 27.7776 131.825 28.775C131.825 29.7243 132.036 30.4603 132.457 30.983C132.879 31.5003 133.487 31.759 134.281 31.759C134.804 31.759 135.255 31.6416 135.633 31.407C136.017 31.167 136.316 30.8256 136.529 30.383L138.169 30.903C137.833 31.6763 137.324 32.2763 136.641 32.703C135.959 33.1243 135.199 33.335 134.361 33.335ZM131.281 29.247V27.943H137.449V29.247H131.281ZM143.279 33.095V21.575H147.807C148.538 21.575 149.151 21.7243 149.647 22.023C150.143 22.3216 150.517 22.7083 150.767 23.183C151.018 23.6523 151.143 24.1483 151.143 24.671C151.143 25.3056 150.986 25.8496 150.671 26.303C150.362 26.7563 149.943 27.0656 149.415 27.231L149.399 26.839C150.135 27.0203 150.701 27.375 151.095 27.903C151.49 28.4256 151.687 29.0363 151.687 29.735C151.687 30.4123 151.551 31.0016 151.279 31.503C151.013 32.0043 150.621 32.3963 150.103 32.679C149.591 32.9563 148.97 33.095 148.239 33.095H143.279ZM144.975 31.503H147.983C148.362 31.503 148.701 31.431 148.999 31.287C149.303 31.143 149.541 30.9376 149.711 30.671C149.887 30.399 149.975 30.0763 149.975 29.703C149.975 29.3563 149.898 29.0443 149.743 28.767C149.594 28.4843 149.375 28.263 149.087 28.103C148.805 27.9376 148.471 27.855 148.087 27.855H144.975V31.503ZM144.975 26.279H147.783C148.093 26.279 148.37 26.2176 148.615 26.095C148.866 25.967 149.063 25.7856 149.207 25.551C149.357 25.311 149.431 25.023 149.431 24.687C149.431 24.239 149.282 23.871 148.983 23.583C148.685 23.295 148.285 23.151 147.783 23.151H144.975V26.279ZM155.719 33.335C155.079 33.335 154.543 33.2176 154.111 32.983C153.679 32.743 153.351 32.4283 153.127 32.039C152.909 31.6443 152.799 31.2123 152.799 30.743C152.799 30.3056 152.877 29.9216 153.031 29.591C153.186 29.2603 153.415 28.9803 153.719 28.751C154.023 28.5163 154.397 28.327 154.839 28.183C155.223 28.071 155.658 27.9723 156.143 27.887C156.629 27.8016 157.138 27.7216 157.671 27.647C158.21 27.5723 158.743 27.4976 159.271 27.423L158.663 27.759C158.674 27.0816 158.53 26.5803 158.231 26.255C157.938 25.9243 157.431 25.759 156.711 25.759C156.258 25.759 155.842 25.8656 155.463 26.079C155.085 26.287 154.821 26.6336 154.671 27.119L153.111 26.639C153.325 25.8976 153.73 25.3083 154.327 24.871C154.93 24.4336 155.73 24.215 156.727 24.215C157.501 24.215 158.173 24.3483 158.743 24.615C159.319 24.8763 159.741 25.2923 160.007 25.863C160.146 26.1456 160.231 26.4443 160.263 26.759C160.295 27.0736 160.311 27.4123 160.311 27.775V33.095H158.831V31.119L159.119 31.375C158.762 32.0363 158.306 32.5296 157.751 32.855C157.202 33.175 156.525 33.335 155.719 33.335ZM156.015 31.967C156.49 31.967 156.898 31.8843 157.239 31.719C157.581 31.5483 157.855 31.3323 158.063 31.071C158.271 30.8096 158.407 30.5376 158.471 30.255C158.562 29.999 158.613 29.711 158.623 29.391C158.639 29.071 158.647 28.815 158.647 28.623L159.191 28.823C158.663 28.903 158.183 28.975 157.751 29.039C157.319 29.103 156.927 29.167 156.575 29.231C156.229 29.2896 155.919 29.3616 155.647 29.447C155.418 29.527 155.213 29.623 155.031 29.735C154.855 29.847 154.714 29.983 154.607 30.143C154.506 30.303 154.455 30.4976 154.455 30.727C154.455 30.951 154.511 31.159 154.623 31.351C154.735 31.5376 154.906 31.687 155.135 31.799C155.365 31.911 155.658 31.967 156.015 31.967ZM168.453 33.095V28.847C168.453 28.511 168.423 28.167 168.365 27.815C168.311 27.4576 168.205 27.127 168.045 26.823C167.89 26.519 167.669 26.2736 167.381 26.087C167.098 25.9003 166.727 25.807 166.269 25.807C165.97 25.807 165.687 25.8576 165.421 25.959C165.154 26.055 164.919 26.2123 164.717 26.431C164.519 26.6496 164.362 26.9376 164.245 27.295C164.133 27.6523 164.077 28.087 164.077 28.599L163.037 28.207C163.037 27.423 163.183 26.7323 163.477 26.135C163.77 25.5323 164.191 25.063 164.741 24.727C165.29 24.391 165.954 24.223 166.733 24.223C167.33 24.223 167.831 24.319 168.237 24.511C168.642 24.703 168.97 24.9563 169.221 25.271C169.477 25.5803 169.671 25.919 169.805 26.287C169.938 26.655 170.029 27.015 170.077 27.367C170.125 27.719 170.149 28.0283 170.149 28.295V33.095H168.453ZM162.381 33.095V24.455H163.877V26.951H164.077V33.095H162.381ZM172.225 33.095L172.233 21.575H173.929V28.615L177.321 24.455H179.449L175.865 28.775L179.817 33.095H177.545L173.929 28.935V33.095H172.225ZM180.783 23.039V21.415H182.455V23.039H180.783ZM180.783 33.095V24.455H182.455V33.095H180.783ZM190.922 33.095V28.847C190.922 28.511 190.892 28.167 190.834 27.815C190.78 27.4576 190.674 27.127 190.514 26.823C190.359 26.519 190.138 26.2736 189.85 26.087C189.567 25.9003 189.196 25.807 188.738 25.807C188.439 25.807 188.156 25.8576 187.89 25.959C187.623 26.055 187.388 26.2123 187.186 26.431C186.988 26.6496 186.831 26.9376 186.714 27.295C186.602 27.6523 186.546 28.087 186.546 28.599L185.506 28.207C185.506 27.423 185.652 26.7323 185.946 26.135C186.239 25.5323 186.66 25.063 187.21 24.727C187.759 24.391 188.423 24.223 189.202 24.223C189.799 24.223 190.3 24.319 190.706 24.511C191.111 24.703 191.439 24.9563 191.69 25.271C191.946 25.5803 192.14 25.919 192.274 26.287C192.407 26.655 192.498 27.015 192.546 27.367C192.594 27.719 192.618 28.0283 192.618 28.295V33.095H190.922ZM184.85 33.095V24.455H186.346V26.951H186.546V33.095H184.85ZM198.261 37.175C197.797 37.175 197.347 37.103 196.909 36.959C196.477 36.815 196.083 36.6016 195.725 36.319C195.368 36.0416 195.072 35.6976 194.837 35.287L196.381 34.503C196.568 34.871 196.835 35.1403 197.181 35.311C197.528 35.4816 197.893 35.567 198.277 35.567C198.752 35.567 199.157 35.4816 199.493 35.311C199.829 35.1456 200.083 34.895 200.253 34.559C200.429 34.223 200.515 33.807 200.509 33.311V30.895H200.709V24.455H202.189V33.327C202.189 33.5563 202.181 33.775 202.165 33.983C202.149 34.191 202.12 34.399 202.077 34.607C201.955 35.1883 201.72 35.6683 201.373 36.047C201.032 36.4256 200.595 36.7083 200.061 36.895C199.533 37.0816 198.933 37.175 198.261 37.175ZM198.133 33.335C197.328 33.335 196.632 33.135 196.045 32.735C195.464 32.335 195.013 31.791 194.693 31.103C194.379 30.4096 194.221 29.631 194.221 28.767C194.221 27.8976 194.381 27.1216 194.701 26.439C195.021 25.751 195.475 25.2096 196.061 24.815C196.653 24.415 197.355 24.215 198.165 24.215C198.981 24.215 199.667 24.415 200.221 24.815C200.781 25.2096 201.203 25.751 201.485 26.439C201.773 27.127 201.917 27.903 201.917 28.767C201.917 29.631 201.773 30.407 201.485 31.095C201.197 31.783 200.773 32.3296 200.213 32.735C199.653 33.135 198.96 33.335 198.133 33.335ZM198.365 31.823C198.915 31.823 199.363 31.6923 199.709 31.431C200.056 31.1696 200.309 30.8096 200.469 30.351C200.629 29.8923 200.709 29.3643 200.709 28.767C200.709 28.1696 200.627 27.6416 200.461 27.183C200.301 26.7243 200.051 26.367 199.709 26.111C199.373 25.855 198.944 25.727 198.421 25.727C197.867 25.727 197.411 25.863 197.053 26.135C196.696 26.407 196.429 26.7723 196.253 27.231C196.083 27.6896 195.997 28.2016 195.997 28.767C195.997 29.3376 196.083 29.855 196.253 30.319C196.429 30.7776 196.691 31.143 197.037 31.415C197.389 31.687 197.832 31.823 198.365 31.823ZM206.839 33.095L210.583 21.575H212.991L216.735 33.095H214.999L211.551 22.583H211.983L208.575 33.095H206.839ZM208.783 30.495V28.927H214.799V30.495H208.783ZM222.226 33.335C221.399 33.335 220.706 33.135 220.146 32.735C219.586 32.3296 219.162 31.783 218.874 31.095C218.586 30.407 218.442 29.631 218.442 28.767C218.442 27.903 218.583 27.127 218.866 26.439C219.154 25.751 219.575 25.2096 220.13 24.815C220.69 24.415 221.378 24.215 222.194 24.215C223.005 24.215 223.703 24.415 224.29 24.815C224.882 25.2096 225.338 25.751 225.658 26.439C225.978 27.1216 226.138 27.8976 226.138 28.767C226.138 29.631 225.978 30.4096 225.658 31.103C225.343 31.791 224.893 32.335 224.306 32.735C223.725 33.135 223.031 33.335 222.226 33.335ZM218.162 36.935V24.455H219.65V30.671H219.842V36.935H218.162ZM221.994 31.823C222.527 31.823 222.967 31.687 223.314 31.415C223.666 31.143 223.927 30.7776 224.098 30.319C224.274 29.855 224.362 29.3376 224.362 28.767C224.362 28.2016 224.274 27.6896 224.098 27.231C223.927 26.7723 223.663 26.407 223.306 26.135C222.949 25.863 222.493 25.727 221.938 25.727C221.415 25.727 220.983 25.855 220.642 26.111C220.306 26.367 220.055 26.7243 219.89 27.183C219.73 27.6416 219.65 28.1696 219.65 28.767C219.65 29.3643 219.73 29.8923 219.89 30.351C220.05 30.8096 220.303 31.1696 220.65 31.431C220.997 31.6923 221.445 31.823 221.994 31.823ZM231.96 33.335C231.134 33.335 230.44 33.135 229.88 32.735C229.32 32.3296 228.896 31.783 228.608 31.095C228.32 30.407 228.176 29.631 228.176 28.767C228.176 27.903 228.318 27.127 228.6 26.439C228.888 25.751 229.31 25.2096 229.864 24.815C230.424 24.415 231.112 24.215 231.928 24.215C232.739 24.215 233.438 24.415 234.024 24.815C234.616 25.2096 235.072 25.751 235.392 26.439C235.712 27.1216 235.872 27.8976 235.872 28.767C235.872 29.631 235.712 30.4096 235.392 31.103C235.078 31.791 234.627 32.335 234.04 32.735C233.459 33.135 232.766 33.335 231.96 33.335ZM227.896 36.935V24.455H229.384V30.671H229.576V36.935H227.896ZM231.728 31.823C232.262 31.823 232.702 31.687 233.048 31.415C233.4 31.143 233.662 30.7776 233.832 30.319C234.008 29.855 234.096 29.3376 234.096 28.767C234.096 28.2016 234.008 27.6896 233.832 27.231C233.662 26.7723 233.398 26.407 233.04 26.135C232.683 25.863 232.227 25.727 231.672 25.727C231.15 25.727 230.718 25.855 230.376 26.111C230.04 26.367 229.79 26.7243 229.624 27.183C229.464 27.6416 229.384 28.1696 229.384 28.767C229.384 29.3643 229.464 29.8923 229.624 30.351C229.784 30.8096 230.038 31.1696 230.384 31.431C230.731 31.6923 231.179 31.823 231.728 31.823ZM29.224 53.327C28.1734 53.327 27.3174 53.095 26.656 52.631C25.9947 52.167 25.5894 51.5136 25.44 50.671L27.152 50.407C27.2587 50.855 27.504 51.2096 27.888 51.471C28.2774 51.727 28.76 51.855 29.336 51.855C29.8587 51.855 30.2667 51.7483 30.56 51.535C30.8587 51.3216 31.008 51.0283 31.008 50.655C31.008 50.4363 30.9547 50.2603 30.848 50.127C30.7467 49.9883 30.5307 49.8576 30.2 49.735C29.8694 49.6123 29.3654 49.4603 28.688 49.279C27.9467 49.087 27.3574 48.8816 26.92 48.663C26.488 48.439 26.1787 48.1803 25.992 47.887C25.8107 47.5883 25.72 47.2283 25.72 46.807C25.72 46.2843 25.8587 45.8283 26.136 45.439C26.4134 45.0496 26.8027 44.7483 27.304 44.535C27.8107 44.3216 28.4027 44.215 29.08 44.215C29.7414 44.215 30.3307 44.319 30.848 44.527C31.3654 44.735 31.784 45.031 32.104 45.415C32.424 45.7936 32.616 46.239 32.68 46.751L30.968 47.063C30.9094 46.647 30.7147 46.319 30.384 46.079C30.0534 45.839 29.624 45.7083 29.096 45.687C28.5894 45.6656 28.1787 45.751 27.864 45.943C27.5494 46.1296 27.392 46.3883 27.392 46.719C27.392 46.911 27.4507 47.0736 27.568 47.207C27.6907 47.3403 27.9254 47.4683 28.272 47.591C28.6187 47.7136 29.1307 47.8603 29.808 48.031C30.5334 48.2176 31.1094 48.4256 31.536 48.655C31.9627 48.879 32.2667 49.1483 32.448 49.463C32.6347 49.7723 32.728 50.1483 32.728 50.591C32.728 51.4443 32.416 52.1136 31.792 52.599C31.1734 53.0843 30.3174 53.327 29.224 53.327ZM38.3302 53.335C37.4715 53.335 36.7168 53.1483 36.0662 52.775C35.4208 52.3963 34.9168 51.871 34.5542 51.199C34.1968 50.5216 34.0182 49.7376 34.0182 48.847C34.0182 47.903 34.1942 47.0843 34.5462 46.391C34.9035 45.6976 35.3995 45.1616 36.0342 44.783C36.6688 44.4043 37.4075 44.215 38.2502 44.215C39.1302 44.215 39.8795 44.4203 40.4982 44.831C41.1168 45.2363 41.5782 45.815 41.8822 46.567C42.1915 47.319 42.3142 48.2123 42.2502 49.247H40.5782V48.639C40.5675 47.6363 40.3755 46.895 40.0022 46.415C39.6342 45.935 39.0715 45.695 38.3142 45.695C37.4768 45.695 36.8475 45.959 36.4262 46.487C36.0048 47.015 35.7942 47.7776 35.7942 48.775C35.7942 49.7243 36.0048 50.4603 36.4262 50.983C36.8475 51.5003 37.4555 51.759 38.2502 51.759C38.7728 51.759 39.2235 51.6416 39.6022 51.407C39.9862 51.167 40.2848 50.8256 40.4982 50.383L42.1382 50.903C41.8022 51.6763 41.2928 52.2763 40.6102 52.703C39.9275 53.1243 39.1675 53.335 38.3302 53.335ZM35.2502 49.247V47.943H41.4182V49.247H35.2502ZM44.045 53.095V44.455H45.533V46.551L45.325 46.279C45.4317 46.0016 45.5704 45.7483 45.741 45.519C45.9117 45.2843 46.109 45.0923 46.333 44.943C46.5517 44.783 46.7944 44.6603 47.061 44.575C47.333 44.4843 47.6104 44.431 47.893 44.415C48.1757 44.3936 48.4477 44.407 48.709 44.455V46.023C48.4264 45.9483 48.1117 45.927 47.765 45.959C47.4237 45.991 47.109 46.1003 46.821 46.287C46.549 46.463 46.333 46.6763 46.173 46.927C46.0184 47.1776 45.9064 47.4576 45.837 47.767C45.7677 48.071 45.733 48.3936 45.733 48.735V53.095H44.045ZM52.5685 53.095L49.4325 44.455H51.1205L53.4165 50.999L55.7125 44.455H57.4005L54.2645 53.095H52.5685ZM59.0019 43.039V41.415H60.6739V43.039H59.0019ZM59.0019 53.095V44.455H60.6739V53.095H59.0019ZM66.7723 53.335C65.887 53.335 65.135 53.1376 64.5163 52.743C63.8976 52.3483 63.423 51.807 63.0923 51.119C62.767 50.431 62.6016 49.6496 62.5963 48.775C62.6016 47.8843 62.7723 47.0976 63.1083 46.415C63.4443 45.727 63.9243 45.1883 64.5483 44.799C65.1723 44.4096 65.9216 44.215 66.7963 44.215C67.7403 44.215 68.5456 44.4496 69.2123 44.919C69.8843 45.3883 70.327 46.031 70.5403 46.847L68.8763 47.327C68.711 46.8416 68.439 46.4656 68.0603 46.199C67.687 45.927 67.2576 45.791 66.7723 45.791C66.223 45.791 65.7723 45.9216 65.4203 46.183C65.0683 46.439 64.807 46.791 64.6363 47.239C64.4656 47.687 64.3776 48.199 64.3723 48.775C64.3776 49.6656 64.5803 50.3856 64.9803 50.935C65.3856 51.4843 65.983 51.759 66.7723 51.759C67.311 51.759 67.7456 51.6363 68.0763 51.391C68.4123 51.1403 68.6683 50.783 68.8443 50.319L70.5403 50.719C70.2576 51.5616 69.791 52.2096 69.1403 52.663C68.4896 53.111 67.7003 53.335 66.7723 53.335ZM75.7677 53.335C74.909 53.335 74.1543 53.1483 73.5037 52.775C72.8583 52.3963 72.3543 51.871 71.9917 51.199C71.6343 50.5216 71.4557 49.7376 71.4557 48.847C71.4557 47.903 71.6317 47.0843 71.9837 46.391C72.341 45.6976 72.837 45.1616 73.4717 44.783C74.1063 44.4043 74.845 44.215 75.6877 44.215C76.5677 44.215 77.317 44.4203 77.9357 44.831C78.5543 45.2363 79.0157 45.815 79.3197 46.567C79.629 47.319 79.7517 48.2123 79.6877 49.247H78.0157V48.639C78.005 47.6363 77.813 46.895 77.4397 46.415C77.0717 45.935 76.509 45.695 75.7517 45.695C74.9143 45.695 74.285 45.959 73.8637 46.487C73.4423 47.015 73.2317 47.7776 73.2317 48.775C73.2317 49.7243 73.4423 50.4603 73.8637 50.983C74.285 51.5003 74.893 51.759 75.6877 51.759C76.2103 51.759 76.661 51.6416 77.0397 51.407C77.4237 51.167 77.7223 50.8256 77.9357 50.383L79.5757 50.903C79.2397 51.6763 78.7303 52.2763 78.0477 52.703C77.365 53.1243 76.605 53.335 75.7677 53.335ZM72.6877 49.247V47.943H78.8557V49.247H72.6877ZM84.7865 53.327C83.7359 53.327 82.8799 53.095 82.2185 52.631C81.5572 52.167 81.1519 51.5136 81.0025 50.671L82.7145 50.407C82.8212 50.855 83.0665 51.2096 83.4505 51.471C83.8399 51.727 84.3225 51.855 84.8985 51.855C85.4212 51.855 85.8292 51.7483 86.1225 51.535C86.4212 51.3216 86.5705 51.0283 86.5705 50.655C86.5705 50.4363 86.5172 50.2603 86.4105 50.127C86.3092 49.9883 86.0932 49.8576 85.7625 49.735C85.4319 49.6123 84.9279 49.4603 84.2505 49.279C83.5092 49.087 82.9199 48.8816 82.4825 48.663C82.0505 48.439 81.7412 48.1803 81.5545 47.887C81.3732 47.5883 81.2825 47.2283 81.2825 46.807C81.2825 46.2843 81.4212 45.8283 81.6985 45.439C81.9759 45.0496 82.3652 44.7483 82.8665 44.535C83.3732 44.3216 83.9652 44.215 84.6425 44.215C85.3039 44.215 85.8932 44.319 86.4105 44.527C86.9279 44.735 87.3465 45.031 87.6665 45.415C87.9865 45.7936 88.1785 46.239 88.2425 46.751L86.5305 47.063C86.4719 46.647 86.2772 46.319 85.9465 46.079C85.6159 45.839 85.1865 45.7083 84.6585 45.687C84.1519 45.6656 83.7412 45.751 83.4265 45.943C83.1119 46.1296 82.9545 46.3883 82.9545 46.719C82.9545 46.911 83.0132 47.0736 83.1305 47.207C83.2532 47.3403 83.4879 47.4683 83.8345 47.591C84.1812 47.7136 84.6932 47.8603 85.3705 48.031C86.0959 48.2176 86.6719 48.4256 87.0985 48.655C87.5252 48.879 87.8292 49.1483 88.0105 49.463C88.1972 49.7723 88.2905 50.1483 88.2905 50.591C88.2905 51.4443 87.9785 52.1136 87.3545 52.599C86.7359 53.0843 85.8799 53.327 84.7865 53.327ZM92.2047 49.967C92.2047 49.583 92.234 49.223 92.2927 48.887C92.3567 48.551 92.474 48.231 92.6447 47.927C92.7887 47.639 92.9567 47.407 93.1487 47.231C93.346 47.0496 93.5593 46.8736 93.7887 46.703C94.0233 46.527 94.2687 46.303 94.5247 46.031C94.738 45.7963 94.8793 45.559 94.9487 45.319C95.0233 45.079 95.0607 44.8203 95.0607 44.543C95.0607 44.3403 95.0367 44.151 94.9887 43.975C94.9407 43.799 94.8607 43.647 94.7487 43.519C94.578 43.3056 94.362 43.1563 94.1007 43.071C93.8393 42.9803 93.5673 42.935 93.2847 42.935C93.0287 42.935 92.7833 42.9696 92.5487 43.039C92.3193 43.1083 92.1273 43.215 91.9727 43.359C91.8073 43.4976 91.6847 43.671 91.6047 43.879C91.53 44.0816 91.4953 44.303 91.5007 44.543H89.7407C89.7833 44.0416 89.9113 43.5723 90.1247 43.135C90.338 42.6976 90.626 42.343 90.9887 42.071C91.298 41.8256 91.65 41.6443 92.0447 41.527C92.4393 41.4043 92.834 41.343 93.2287 41.343C93.794 41.343 94.3273 41.431 94.8287 41.607C95.3353 41.783 95.7567 42.0683 96.0927 42.463C96.338 42.7403 96.522 43.0576 96.6447 43.415C96.7727 43.767 96.8367 44.1323 96.8367 44.511C96.8367 45.0176 96.7273 45.487 96.5087 45.919C96.2953 46.351 96.0207 46.7456 95.6847 47.103C95.5087 47.2896 95.33 47.4603 95.1487 47.615C94.9673 47.7643 94.7993 47.911 94.6447 48.055C94.49 48.199 94.362 48.3563 94.2607 48.527C94.1167 48.7723 94.034 48.9936 94.0127 49.191C93.9913 49.383 93.9807 49.6416 93.9807 49.967H92.2047ZM92.2127 53.095V51.159H93.9807V53.095H92.2127Z" fill="white"/>
<rect x="305.6" y="19.3" width="36" height="36" rx="18" fill="white" fill-opacity="0.05"/>
<g clip-path="url(#clip0_20005128_14394)">
<path d="M327.421 34.2104L323.6 38.0313L319.779 34.2104L318.6 35.3896L323.6 40.3896L328.6 35.3896L327.421 34.2104Z" fill="white"/>
</g>
<defs>
<clipPath id="clip0_20005128_14394">
<rect width="10" height="10" fill="white" transform="translate(318.6 32.3)"/>
</clipPath>
</defs>
</svg>
