<svg width="16" height="16" viewBox="0 0 16 16" fill="none" xmlns="http://www.w3.org/2000/svg">
<g opacity="0.5">
<path d="M4.34399 9.54866L3.35066 13.85C3.28932 14.116 3.39599 14.3927 3.62132 14.548C3.73532 14.6267 3.86732 14.6667 3.99999 14.6667C4.12866 14.6667 4.25799 14.6293 4.36999 14.5547L7.99999 12.1347L11.63 14.5547C11.862 14.7093 12.1667 14.7033 12.3933 14.5387C12.6187 14.374 12.718 14.0853 12.6413 13.8173L11.422 9.55066L14.446 6.82933C14.644 6.65066 14.7167 6.372 14.6313 6.12C14.5453 5.868 14.318 5.69066 14.0527 5.66933L10.252 5.36666L8.60732 1.72599C8.49999 1.48666 8.26199 1.33333 7.99999 1.33333C7.73799 1.33333 7.49999 1.48666 7.39266 1.72599L5.74799 5.36666L1.94732 5.66866C1.68599 5.68933 1.46132 5.86066 1.37332 6.10666C1.28399 6.35266 1.34799 6.62799 1.53466 6.81066L4.34399 9.54866ZM6.24599 6.66466C6.48799 6.64533 6.70132 6.496 6.80066 6.274L7.99999 3.61999L9.19932 6.274C9.29866 6.496 9.51199 6.64533 9.75399 6.66466L12.402 6.87466L10.2213 8.83733C10.032 9.00799 9.95666 9.27066 10.026 9.516L10.8613 12.4393L8.37066 10.7787C8.14666 10.6287 7.85532 10.6287 7.63132 10.7787L5.02866 12.514L5.72866 9.48333C5.78066 9.25666 5.71132 9.01866 5.54466 8.85666L3.51932 6.882L6.24599 6.66466Z" fill="white"/>
</g>
</svg>
