<svg width="36" height="36" viewBox="0 0 36 36" fill="none" xmlns="http://www.w3.org/2000/svg">
<g clip-path="url(#clip0_20005128_7803)" filter="url(#filter0_d_20005128_7803)">
<path d="M29.8127 21.9827V2.73416C29.8127 2.43274 29.5673 2.18729 29.2658 2.18729H26.8598C26.5582 2.18729 26.3129 2.43274 26.3129 2.73416V25.8106H30.9062C31.5104 25.8106 32 26.3002 32 26.9041C32 27.5082 31.5104 27.9979 30.9062 27.9979H5.09589C4.49176 27.9979 4.00214 27.5082 4.00214 26.9041V19.0844C4.00214 17.5769 5.22876 16.3503 6.7363 16.3503H9.14233C10.6501 16.3503 11.8765 17.5769 11.8765 19.0844V21.9827C11.8765 22.5868 11.3869 23.0764 10.783 23.0764C10.1788 23.0764 9.68921 22.5868 9.68921 21.9827V19.0844C9.68921 18.783 9.44397 18.5376 9.14233 18.5376H6.7363C6.43488 18.5376 6.18942 18.783 6.18942 19.0844V25.8106H14.064V11.4835C14.064 9.97577 15.2904 8.74936 16.7982 8.74936H19.2042C20.7117 8.74936 21.9384 9.97577 21.9384 11.4835V21.9827C21.9384 22.5868 21.4487 23.0764 20.8446 23.0764C20.2407 23.0764 19.7509 22.5868 19.7509 21.9827V11.4835C19.7509 11.1819 19.5056 10.9366 19.2042 10.9366H16.7982C16.4965 10.9366 16.2513 11.1819 16.2513 11.4835V25.8106H24.1256V2.73416C24.1256 1.22662 25.3523 0 26.8598 0H29.2658C30.7734 0 32 1.22662 32 2.73416V21.9827C32 22.5868 31.5104 23.0764 30.9062 23.0764C30.3023 23.0764 29.8127 22.5868 29.8127 21.9827ZM8.35684 9.78821H6.72818C6.45944 9.78821 6.18729 9.61923 6.18729 9.29623C6.18729 8.69211 5.69766 8.20248 5.09375 8.20248C4.48962 8.20248 4 8.69211 4 9.29623C4 10.7649 5.14545 11.9221 6.62585 11.9731V12.5771C6.62585 13.1812 7.11548 13.6708 7.7196 13.6708C8.32352 13.6708 8.81314 13.1812 8.81314 12.5771V11.9437C10.3177 11.7335 11.4392 10.4962 11.4392 8.95422V8.85852C11.4392 7.13992 10.0564 5.74176 8.35684 5.74176H7.35474C6.85635 5.74176 6.46585 5.3613 6.46585 4.87531V4.79605C6.46585 4.30643 6.84802 3.93729 7.35474 3.93729H8.30237C8.58093 3.93729 8.8689 4.12357 8.8689 4.43567C8.8689 5.03979 9.35873 5.52942 9.96265 5.52942C10.5668 5.52942 11.0564 5.03979 11.0564 4.43567C11.0564 3.12488 10.0885 2.03134 8.81314 1.797V1.09375C8.81314 0.489624 8.32352 0 7.7196 0C7.11548 0 6.62585 0.489624 6.62585 1.09375V1.83459C6.08453 1.96234 5.58871 2.23215 5.18668 2.62564C4.60092 3.19879 4.27856 3.96954 4.27856 4.79605V4.87531C4.27856 5.70139 4.60028 6.47278 5.18454 7.04764C5.76239 7.61609 6.53314 7.92905 7.35474 7.92905H8.35684C8.84198 7.92905 9.25171 8.3548 9.25171 8.85852V8.95422C9.25171 9.42975 8.86697 9.78821 8.35684 9.78821Z" fill="url(#paint0_linear_20005128_7803)"/>
</g>
<defs>
<filter id="filter0_d_20005128_7803" x="0" y="0" width="36" height="36" filterUnits="userSpaceOnUse" color-interpolation-filters="sRGB">
<feFlood flood-opacity="0" result="BackgroundImageFix"/>
<feColorMatrix in="SourceAlpha" type="matrix" values="0 0 0 0 0 0 0 0 0 0 0 0 0 0 0 0 0 0 127 0" result="hardAlpha"/>
<feOffset dy="4"/>
<feGaussianBlur stdDeviation="2"/>
<feComposite in2="hardAlpha" operator="out"/>
<feColorMatrix type="matrix" values="0 0 0 0 0 0 0 0 0 0 0 0 0 0 0 0 0 0 0.25 0"/>
<feBlend mode="normal" in2="BackgroundImageFix" result="effect1_dropShadow_20005128_7803"/>
<feBlend mode="normal" in="SourceGraphic" in2="effect1_dropShadow_20005128_7803" result="shape"/>
</filter>
<linearGradient id="paint0_linear_20005128_7803" x1="4" y1="14.0659" x2="32" y2="14.0659" gradientUnits="userSpaceOnUse">
<stop stop-color="#6366F1"/>
<stop offset="0.5" stop-color="#8B5CF6"/>
<stop offset="1" stop-color="#D946EF"/>
</linearGradient>
<clipPath id="clip0_20005128_7803">
<rect width="28" height="28" fill="white" transform="translate(4)"/>
</clipPath>
</defs>
</svg>
