<svg width="36" height="36" viewBox="0 0 36 36" fill="none" xmlns="http://www.w3.org/2000/svg">
<g clip-path="url(#clip0_20005128_7796)" filter="url(#filter0_d_20005128_7796)">
<path d="M30.3217 22.5444C31.4213 21.0473 31.999 19.3076 31.999 17.474C31.999 14.5388 30.4768 11.8137 27.9088 10.1132C27.672 7.49808 26.4509 5.07286 24.4093 3.20424C22.1518 1.13799 19.1566 0 15.9756 0C12.7946 0 9.79948 1.13799 7.54187 3.2043C5.25725 5.29527 3.99906 8.08312 3.99906 11.0543C3.99906 13.3396 4.73575 15.5062 6.13619 17.36L4.07879 22.4494C3.91194 22.8621 4.01186 23.3348 4.3315 23.6446C4.53986 23.8465 4.81428 23.9531 5.09308 23.9531C5.24199 23.9531 5.39217 23.9227 5.53403 23.8602L11.402 21.2734C12.1387 21.555 12.8977 21.7657 13.6741 21.9051C14.4695 23.2132 15.6039 24.3208 16.983 25.1272C18.5227 26.0273 20.3004 26.5082 22.129 26.5221C22.1558 26.524 22.1826 26.5262 22.21 26.5262C23.4742 26.5262 24.6991 26.3078 25.8578 25.8765L30.4641 27.907C30.6059 27.9696 30.7561 28 30.905 28C31.1838 28 31.4583 27.8935 31.6666 27.6915C31.9863 27.3816 32.0862 26.9089 31.9193 26.4963L30.3217 22.5444ZM28.0554 22.7749L28.8817 24.8189L26.3203 23.6898C26.0434 23.5677 25.7283 23.5658 25.4499 23.6846C24.446 24.1129 23.371 24.3324 22.2543 24.3381C22.2395 24.3375 22.2249 24.3359 22.21 24.3359C20.0545 24.3359 18.0182 23.4936 16.5955 22.0924C18.3993 22.006 20.1673 21.5454 21.7436 20.7449C22.2823 20.4713 22.4971 19.813 22.2235 19.2744C21.95 18.7358 21.2916 18.5211 20.753 18.7945C19.302 19.5315 17.6499 19.9211 15.9756 19.9211C14.5207 19.9211 13.12 19.6382 11.8126 19.0804C11.5343 18.9616 11.2191 18.9634 10.9422 19.0856L7.11635 20.7721L8.40446 17.5857C8.5572 17.2078 8.48725 16.7763 8.22284 16.4662C6.89071 14.9034 6.18656 13.0319 6.18656 11.0543C6.18656 6.16507 10.5779 2.1875 15.9756 2.1875C21.3733 2.1875 25.7646 6.16507 25.7646 11.0543C25.7646 12.6334 25.3004 14.1837 24.422 15.5375C24.0932 16.0442 24.2374 16.7215 24.7442 17.0503C25.2509 17.3792 25.9282 17.2348 26.2571 16.7281C27.0366 15.5267 27.5574 14.2002 27.7982 12.8225C29.0795 14.0772 29.8115 15.73 29.8115 17.474C29.8115 19.0012 29.2671 20.4471 28.2371 21.6554C27.9726 21.9656 27.9027 22.3971 28.0554 22.7749ZM17.0147 16.6797C17.0147 17.2837 16.525 17.7734 15.9209 17.7734C15.3168 17.7734 14.8272 17.2837 14.8272 16.6797C14.8272 16.0756 15.3168 15.5859 15.9209 15.5859C16.525 15.5859 17.0147 16.0756 17.0147 16.6797ZM20.0762 8.48486C20.0769 8.50006 20.0772 8.51526 20.0772 8.53063C20.0776 10.1771 19.0993 11.6588 17.5849 12.3053C17.2716 12.4391 17.069 12.7547 17.069 13.1092V13.1797C17.069 13.7837 16.5793 14.2734 15.9753 14.2734C15.3712 14.2734 14.8815 13.7837 14.8815 13.1797V13.1093C14.8815 11.8771 15.6055 10.7719 16.7261 10.2935C17.4235 9.99576 17.8774 9.31868 17.8894 8.56251C17.8892 8.55201 17.889 8.54146 17.889 8.5309C17.889 7.47571 17.0305 6.61723 15.9753 6.61723C14.9201 6.61717 14.0615 7.47566 14.0615 8.53085C14.0615 9.13493 13.5719 9.6246 12.9678 9.6246C12.3637 9.6246 11.874 9.13493 11.874 8.53085C11.874 6.26947 13.7138 4.42968 15.9753 4.42968C18.2213 4.42968 20.0516 6.24459 20.0762 8.48486Z" fill="url(#paint0_linear_20005128_7796)"/>
</g>
<defs>
<filter id="filter0_d_20005128_7796" x="0" y="0" width="36" height="36" filterUnits="userSpaceOnUse" color-interpolation-filters="sRGB">
<feFlood flood-opacity="0" result="BackgroundImageFix"/>
<feColorMatrix in="SourceAlpha" type="matrix" values="0 0 0 0 0 0 0 0 0 0 0 0 0 0 0 0 0 0 127 0" result="hardAlpha"/>
<feOffset dy="4"/>
<feGaussianBlur stdDeviation="2"/>
<feComposite in2="hardAlpha" operator="out"/>
<feColorMatrix type="matrix" values="0 0 0 0 0 0 0 0 0 0 0 0 0 0 0 0 0 0 0.25 0"/>
<feBlend mode="normal" in2="BackgroundImageFix" result="effect1_dropShadow_20005128_7796"/>
<feBlend mode="normal" in="SourceGraphic" in2="effect1_dropShadow_20005128_7796" result="shape"/>
</filter>
<linearGradient id="paint0_linear_20005128_7796" x1="3.99902" y1="14.067" x2="31.9991" y2="14.067" gradientUnits="userSpaceOnUse">
<stop stop-color="#6366F1"/>
<stop offset="0.5" stop-color="#8B5CF6"/>
<stop offset="1" stop-color="#D946EF"/>
</linearGradient>
<clipPath id="clip0_20005128_7796">
<rect width="28" height="28" fill="white" transform="translate(4)"/>
</clipPath>
</defs>
</svg>
