<svg width="138" height="40" viewBox="0 0 138 40" fill="none" xmlns="http://www.w3.org/2000/svg">
<g filter="url(#filter0_d_20005128_7859)">
<path d="M17.4498 6.6499V2.3999H4.0498V31.5999H17.4498V27.3499C14.7048 27.3499 12.0722 26.2594 10.1312 24.3184C8.19024 22.3774 7.0998 19.7449 7.0998 16.9999C7.0998 14.2549 8.19024 11.6223 10.1312 9.68135C12.0722 7.74035 14.7048 6.6499 17.4498 6.6499Z" fill="white" fill-opacity="0.7"/>
<path d="M17.4502 6.6499V27.3499C20.1952 27.3499 22.8278 26.2594 24.7688 24.3184C26.7098 22.3774 27.8002 19.7449 27.8002 16.9999C27.8002 14.2549 26.7098 11.6223 24.7688 9.68135C22.8278 7.74035 20.1952 6.6499 17.4502 6.6499Z" fill="white" fill-opacity="0.7"/>
<path d="M35.3203 9.25H38.3203V23.7H35.3203V9.25Z" fill="white" fill-opacity="0.7"/>
<path d="M40.0005 18.7499C40.0005 17.7103 40.3092 16.6941 40.8874 15.8301C41.4656 14.9661 42.2873 14.2932 43.2484 13.8967C44.2095 13.5003 45.2666 13.3981 46.2858 13.6031C47.305 13.8081 48.2404 14.3111 48.9734 15.0483C49.7064 15.7856 50.2041 16.7238 50.4033 17.7442C50.6024 18.7646 50.4942 19.8211 50.0922 20.7799C49.6902 21.7386 49.0127 22.5565 48.1454 23.1297C47.2781 23.703 46.2601 24.0058 45.2205 23.9999C44.531 24.0053 43.8473 23.873 43.2096 23.6106C42.5719 23.3483 41.9929 22.9613 41.5067 22.4724C41.0205 21.9834 40.6369 21.4022 40.3782 20.763C40.1196 20.1238 39.9912 19.4394 40.0005 18.7499ZM47.5205 18.7499C47.5087 18.3017 47.365 17.8669 47.1074 17.5C46.8498 17.133 46.4898 16.8501 46.0722 16.6867C45.6547 16.5233 45.1983 16.4866 44.7601 16.5813C44.3218 16.6759 43.9212 16.8976 43.6083 17.2188C43.2954 17.5399 43.0841 17.9461 43.0009 18.3867C42.9177 18.8273 42.9662 19.2826 43.1404 19.6957C43.3146 20.1088 43.6067 20.4615 43.9803 20.7094C44.3538 20.9574 44.7921 21.0897 45.2405 21.0899C45.5458 21.0959 45.849 21.0388 46.1312 20.9222C46.4134 20.8057 46.6685 20.6322 46.8806 20.4126C47.0927 20.193 47.2572 19.9319 47.3639 19.6459C47.4706 19.3598 47.5171 19.0548 47.5005 18.7499H47.5205Z" fill="white" fill-opacity="0.7"/>
<path d="M62.3103 13.8001V23.2101C62.3103 26.5301 59.7103 27.9401 57.0803 27.9401C56.1526 28.0162 55.2221 27.8319 54.3936 27.4079C53.565 26.9839 52.8712 26.337 52.3903 25.5401L54.9203 24.0801C55.1253 24.4935 55.4514 24.8345 55.8552 25.0578C56.259 25.2811 56.7212 25.3761 57.1803 25.3301C57.4728 25.3661 57.7696 25.3371 58.0495 25.2451C58.3295 25.153 58.5856 25.0003 58.7996 24.7977C59.0137 24.5951 59.1803 24.3478 59.2876 24.0733C59.3949 23.7989 59.4402 23.5041 59.4203 23.2101V22.3001C59.0712 22.7234 58.6282 23.0594 58.1266 23.2816C57.6249 23.5038 57.0784 23.606 56.5303 23.5801C55.2042 23.5801 53.9325 23.0533 52.9948 22.1156C52.0571 21.178 51.5303 19.9062 51.5303 18.5801C51.5303 17.254 52.0571 15.9823 52.9948 15.0446C53.9325 14.1069 55.2042 13.5801 56.5303 13.5801C57.0784 13.5542 57.6249 13.6564 58.1266 13.8786C58.6282 14.1008 59.0712 14.4368 59.4203 14.8601V13.8601L62.3103 13.8001ZM59.4203 18.5501C59.4402 18.0717 59.3166 17.5982 59.0653 17.1906C58.814 16.783 58.4466 16.4599 58.0101 16.2628C57.5737 16.0657 57.0884 16.0037 56.6164 16.0847C56.1445 16.1657 55.7075 16.386 55.3618 16.7173C55.0161 17.0486 54.7774 17.4758 54.6764 17.9439C54.5754 18.412 54.6167 18.8995 54.795 19.3439C54.9734 19.7883 55.2806 20.1692 55.6771 20.4376C56.0737 20.706 56.5415 20.8497 57.0203 20.8501C57.3328 20.8726 57.6465 20.8293 57.9411 20.7231C58.2358 20.6168 58.505 20.4499 58.7311 20.2331C58.9573 20.0164 59.1355 19.7546 59.2542 19.4647C59.3729 19.1748 59.4295 18.8632 59.4203 18.5501Z" fill="white" fill-opacity="0.7"/>
<path d="M64.0003 18.75C64.0003 17.7112 64.3085 16.6958 64.8858 15.8322C65.4631 14.9686 66.2837 14.2957 67.2436 13.8987C68.2035 13.5016 69.2595 13.3982 70.2782 13.6016C71.2969 13.805 72.2323 14.306 72.9662 15.0412C73.7 15.7765 74.1992 16.7129 74.4006 17.7319C74.6021 18.751 74.4968 19.8069 74.0979 20.766C73.699 21.7252 73.0244 22.5444 72.1598 23.1201C71.2951 23.6958 70.2791 24.002 69.2403 24C68.5495 24.0067 67.8643 23.8754 67.2249 23.6138C66.5855 23.3522 66.0046 22.9656 65.5166 22.4766C65.0285 21.9876 64.643 21.4061 64.3826 20.7662C64.1223 20.1263 63.9923 19.4408 64.0003 18.75ZM71.5203 18.75C71.5085 18.3014 71.3645 17.8662 71.1065 17.499C70.8485 17.1319 70.4878 16.849 70.0697 16.6859C69.6516 16.5228 69.1947 16.4867 68.7562 16.5822C68.3177 16.6776 67.9171 16.9004 67.6046 17.2225C67.2921 17.5446 67.0816 17.9518 66.9996 18.393C66.9175 18.8342 66.9674 19.2898 67.1431 19.7027C67.3188 20.1157 67.6125 20.4676 67.9874 20.7144C68.3622 20.9611 68.8015 21.0918 69.2503 21.09C69.5556 21.096 69.8588 21.0389 70.141 20.9223C70.4232 20.8058 70.6783 20.6323 70.8904 20.4127C71.1025 20.1931 71.267 19.932 71.3737 19.646C71.4804 19.3599 71.527 19.0549 71.5104 18.75H71.5203Z" fill="white" fill-opacity="0.7"/>
<path d="M75.8701 11.1501C75.8701 10.7981 75.9745 10.4539 76.1701 10.1612C76.3657 9.86848 76.6437 9.64034 76.9689 9.50561C77.2942 9.37089 77.6521 9.33564 77.9974 9.40432C78.3426 9.473 78.6598 9.64253 78.9088 9.89147C79.1577 10.1404 79.3272 10.4576 79.3959 10.8028C79.4646 11.1481 79.4293 11.506 79.2946 11.8313C79.1599 12.1565 78.9317 12.4345 78.639 12.6301C78.3463 12.8257 78.0022 12.9301 77.6501 12.9301C77.1796 12.9249 76.7299 12.7357 76.3972 12.403C76.0645 12.0703 75.8753 11.6206 75.8701 11.1501ZM76.1601 13.8001H79.1601V23.7001H76.1601V13.8001Z" fill="white" fill-opacity="0.7"/>
<path d="M92.0005 18.7501C92.0341 19.4085 91.9372 20.0671 91.7153 20.6879C91.4935 21.3087 91.151 21.8795 90.7077 22.3674C90.2643 22.8554 89.7289 23.2508 89.1321 23.531C88.5354 23.8112 87.8891 23.9706 87.2305 24.0001C86.6716 24.0373 86.1115 23.9478 85.5921 23.7383C85.0726 23.5287 84.6072 23.2046 84.2305 22.7901V27.6801H81.2305V13.8001H84.2305V14.7301C84.6077 14.3168 85.0735 13.9942 85.593 13.7864C86.1125 13.5785 86.6723 13.4909 87.2305 13.5301C87.8865 13.5596 88.5302 13.7181 89.1249 13.9964C89.7196 14.2747 90.2537 14.6675 90.6966 15.1522C91.1396 15.6369 91.4827 16.2041 91.7064 16.8215C91.9301 17.4388 92.0301 18.0941 92.0005 18.7501ZM89.0005 18.7501C88.9887 18.2856 88.84 17.835 88.5732 17.4547C88.3064 17.0744 87.9332 16.7812 87.5005 16.6121C87.0678 16.4429 86.5948 16.4053 86.1407 16.5038C85.6867 16.6023 85.2719 16.8327 84.9482 17.166C84.6245 17.4993 84.4064 17.9207 84.3213 18.3775C84.2361 18.8342 84.2876 19.3059 84.4694 19.7335C84.6512 20.161 84.9551 20.5254 85.3431 20.781C85.7311 21.0366 86.1859 21.1719 86.6505 21.1701C86.9687 21.1836 87.2862 21.1297 87.5821 21.0119C87.8781 20.8941 88.1458 20.7151 88.3677 20.4866C88.5896 20.2581 88.7606 19.9852 88.8697 19.686C88.9788 19.3867 89.0233 19.0678 89.0005 18.7501Z" fill="white" fill-opacity="0.7"/>
<path d="M101.13 20.73C101.13 23.01 99.13 23.98 97.01 23.98C96.1453 24.0578 95.2772 23.8745 94.5178 23.4538C93.7584 23.0331 93.1426 22.3943 92.75 21.62L95.33 20.16C95.4322 20.5168 95.6538 20.8277 95.9578 21.0407C96.2618 21.2537 96.6297 21.3558 97 21.33C97.71 21.33 98.07 21.11 98.07 20.71C98.07 19.62 93.2 20.2 93.2 16.77C93.2 14.61 95.02 13.53 97.08 13.53C97.863 13.4949 98.641 13.6726 99.3311 14.0441C100.021 14.4156 100.598 14.9671 101 15.64L98.42 17C98.306 16.742 98.1198 16.5226 97.8838 16.3682C97.6477 16.2138 97.372 16.1311 97.09 16.13C96.57 16.13 96.26 16.33 96.26 16.68C96.26 17.82 101.13 17.07 101.13 20.73Z" fill="white" fill-opacity="0.7"/>
<path d="M112 13.8V23.7H109V22.77C108.659 23.1817 108.226 23.5074 107.737 23.7211C107.247 23.9348 106.714 24.0303 106.18 24C104.18 24 102.47 22.57 102.47 19.9V13.8H105.47V19.45C105.446 19.6862 105.474 19.9247 105.552 20.1491C105.63 20.3734 105.755 20.5782 105.919 20.7494C106.084 20.9205 106.284 21.0539 106.505 21.1404C106.726 21.2268 106.963 21.2642 107.2 21.25C108.28 21.25 109.04 20.61 109.04 19.25V13.8H112Z" fill="white" fill-opacity="0.7"/>
<path d="M129 17.62V23.7H126V17.88C126 16.88 125.53 16.26 124.58 16.26C123.63 16.26 123.03 16.95 123.03 18.12V23.7H120.03V17.88C120.03 16.88 119.56 16.26 118.61 16.26C117.66 16.26 117.06 16.95 117.06 18.12V23.7H114.06V13.8H117.06V14.71C117.371 14.308 117.776 13.9896 118.241 13.7836C118.705 13.5776 119.214 13.4904 119.72 13.53C120.227 13.5035 120.733 13.6095 121.187 13.8374C121.641 14.0653 122.028 14.4074 122.31 14.83C122.64 14.3884 123.076 14.0376 123.578 13.8103C124.079 13.5829 124.631 13.4865 125.18 13.53C127.52 13.53 129 15.15 129 17.62Z" fill="white" fill-opacity="0.7"/>
<path d="M131.52 13.7401C132.735 13.7401 133.72 12.7551 133.72 11.5401C133.72 10.3251 132.735 9.34009 131.52 9.34009C130.305 9.34009 129.32 10.3251 129.32 11.5401C129.32 12.7551 130.305 13.7401 131.52 13.7401Z" fill="white" fill-opacity="0.7"/>
</g>
<defs>
<filter id="filter0_d_20005128_7859" x="-2" y="0" width="142" height="42" filterUnits="userSpaceOnUse" color-interpolation-filters="sRGB">
<feFlood flood-opacity="0" result="BackgroundImageFix"/>
<feColorMatrix in="SourceAlpha" type="matrix" values="0 0 0 0 0 0 0 0 0 0 0 0 0 0 0 0 0 0 127 0" result="hardAlpha"/>
<feOffset dy="4"/>
<feGaussianBlur stdDeviation="2"/>
<feComposite in2="hardAlpha" operator="out"/>
<feColorMatrix type="matrix" values="0 0 0 0 0 0 0 0 0 0 0 0 0 0 0 0 0 0 0.25 0"/>
<feBlend mode="normal" in2="BackgroundImageFix" result="effect1_dropShadow_20005128_7859"/>
<feBlend mode="normal" in="SourceGraphic" in2="effect1_dropShadow_20005128_7859" result="shape"/>
</filter>
</defs>
</svg>
