<svg width="367" height="70" viewBox="0 0 367 70" fill="none" xmlns="http://www.w3.org/2000/svg">
<mask id="path-1-inside-1_20005128_14387" fill="white">
<path d="M0 0.689941H366.4V69.4899H0V0.689941Z"/>
</mask>
<path d="M0 0.689941H366.4V69.4899H0V0.689941Z" fill="#131022"/>
<path d="M366.4 69.4899V70.2899H367.2V69.4899H366.4ZM0 69.4899H-0.8V70.2899H0V69.4899ZM365.6 0.689941V69.4899H367.2V0.689941H365.6ZM366.4 68.6899H0V70.2899H366.4V68.6899ZM0.8 69.4899V0.689941H-0.8V69.4899H0.8Z" fill="white" fill-opacity="0.15" mask="url(#path-1-inside-1_20005128_14387)"/>
<rect width="364.8" height="68" transform="translate(0.800049 0.689941)" fill="#131022"/>
<path d="M30.728 41.1399C29.576 41.1399 28.5947 40.8892 27.784 40.3879C26.9734 39.8812 26.352 39.1772 25.92 38.2759C25.4934 37.3746 25.28 36.3292 25.28 35.1399C25.28 33.9506 25.4934 32.9052 25.92 32.0039C26.352 31.1026 26.9734 30.4012 27.784 29.8999C28.5947 29.3932 29.576 29.1399 30.728 29.1399C32.056 29.1399 33.1547 29.4759 34.024 30.1479C34.8987 30.8199 35.5067 31.7239 35.848 32.8599L34.152 33.3159C33.928 32.5106 33.528 31.8786 32.952 31.4199C32.3814 30.9612 31.64 30.7319 30.728 30.7319C29.912 30.7319 29.232 30.9159 28.688 31.2839C28.144 31.6519 27.7334 32.1666 27.456 32.8279C27.184 33.4892 27.048 34.2599 27.048 35.1399C27.0427 36.0199 27.176 36.7906 27.448 37.4519C27.7254 38.1132 28.136 38.6279 28.68 38.9959C29.2294 39.3639 29.912 39.5479 30.728 39.5479C31.64 39.5479 32.3814 39.3186 32.952 38.8599C33.528 38.3959 33.928 37.7639 34.152 36.9639L35.848 37.4199C35.5067 38.5559 34.8987 39.4599 34.024 40.1319C33.1547 40.8039 32.056 41.1399 30.728 41.1399ZM40.0475 41.1399C39.4075 41.1399 38.8715 41.0226 38.4395 40.7879C38.0075 40.5479 37.6795 40.2332 37.4555 39.8439C37.2369 39.4492 37.1275 39.0172 37.1275 38.5479C37.1275 38.1106 37.2049 37.7266 37.3595 37.3959C37.5142 37.0652 37.7435 36.7852 38.0475 36.5559C38.3515 36.3212 38.7249 36.1319 39.1675 35.9879C39.5515 35.8759 39.9862 35.7772 40.4715 35.6919C40.9569 35.6066 41.4662 35.5266 41.9995 35.4519C42.5382 35.3772 43.0715 35.3026 43.5995 35.2279L42.9915 35.5639C43.0022 34.8866 42.8582 34.3852 42.5595 34.0599C42.2662 33.7292 41.7595 33.5639 41.0395 33.5639C40.5862 33.5639 40.1702 33.6706 39.7915 33.8839C39.4129 34.0919 39.1489 34.4386 38.9995 34.9239L37.4395 34.4439C37.6529 33.7026 38.0582 33.1132 38.6555 32.6759C39.2582 32.2386 40.0582 32.0199 41.0555 32.0199C41.8289 32.0199 42.5009 32.1532 43.0715 32.4199C43.6475 32.6812 44.0689 33.0972 44.3355 33.6679C44.4742 33.9506 44.5595 34.2492 44.5915 34.5639C44.6235 34.8786 44.6395 35.2172 44.6395 35.5799V40.8999H43.1595V38.9239L43.4475 39.1799C43.0902 39.8412 42.6342 40.3346 42.0795 40.6599C41.5302 40.9799 40.8529 41.1399 40.0475 41.1399ZM40.3435 39.7719C40.8182 39.7719 41.2262 39.6892 41.5675 39.5239C41.9089 39.3532 42.1835 39.1372 42.3915 38.8759C42.5995 38.6146 42.7355 38.3426 42.7995 38.0599C42.8902 37.8039 42.9409 37.5159 42.9515 37.1959C42.9675 36.8759 42.9755 36.6199 42.9755 36.4279L43.5195 36.6279C42.9915 36.7079 42.5115 36.7799 42.0795 36.8439C41.6475 36.9079 41.2555 36.9719 40.9035 37.0359C40.5569 37.0946 40.2475 37.1666 39.9755 37.2519C39.7462 37.3319 39.5409 37.4279 39.3595 37.5399C39.1835 37.6519 39.0422 37.7879 38.9355 37.9479C38.8342 38.1079 38.7835 38.3026 38.7835 38.5319C38.7835 38.7559 38.8395 38.9639 38.9515 39.1559C39.0635 39.3426 39.2342 39.4919 39.4635 39.6039C39.6929 39.7159 39.9862 39.7719 40.3435 39.7719ZM52.7809 40.8999V36.6519C52.7809 36.3159 52.7516 35.9719 52.6929 35.6199C52.6396 35.2626 52.5329 34.9319 52.3729 34.6279C52.2183 34.3239 51.9969 34.0786 51.7089 33.8919C51.4263 33.7052 51.0556 33.6119 50.5969 33.6119C50.2983 33.6119 50.0156 33.6626 49.7489 33.7639C49.4823 33.8599 49.2476 34.0172 49.0449 34.2359C48.8476 34.4546 48.6903 34.7426 48.5729 35.0999C48.4609 35.4572 48.4049 35.8919 48.4049 36.4039L47.3649 36.0119C47.3649 35.2279 47.5116 34.5372 47.8049 33.9399C48.0983 33.3372 48.5196 32.8679 49.0689 32.5319C49.6183 32.1959 50.2823 32.0279 51.0609 32.0279C51.6583 32.0279 52.1596 32.1239 52.5649 32.3159C52.9703 32.5079 53.2983 32.7612 53.5489 33.0759C53.8049 33.3852 53.9996 33.7239 54.1329 34.0919C54.2663 34.4599 54.3569 34.8199 54.4049 35.1719C54.4529 35.5239 54.4769 35.8332 54.4769 36.0999V40.8999H52.7809ZM46.7089 40.8999V32.2599H48.2049V34.7559H48.4049V40.8999H46.7089ZM59.9238 40.8999V29.3799H61.5958V40.8999H59.9238ZM70.5053 41.1319C69.4546 41.1319 68.5986 40.8999 67.9373 40.4359C67.276 39.9719 66.8706 39.3186 66.7213 38.4759L68.4333 38.2119C68.54 38.6599 68.7853 39.0146 69.1693 39.2759C69.5586 39.5319 70.0413 39.6599 70.6173 39.6599C71.14 39.6599 71.548 39.5532 71.8413 39.3399C72.14 39.1266 72.2893 38.8332 72.2893 38.4599C72.2893 38.2412 72.236 38.0652 72.1293 37.9319C72.028 37.7932 71.812 37.6626 71.4813 37.5399C71.1506 37.4172 70.6466 37.2652 69.9693 37.0839C69.228 36.8919 68.6386 36.6866 68.2013 36.4679C67.7693 36.2439 67.46 35.9852 67.2733 35.6919C67.092 35.3932 67.0013 35.0332 67.0013 34.6119C67.0013 34.0892 67.14 33.6332 67.4173 33.2439C67.6946 32.8546 68.084 32.5532 68.5853 32.3399C69.092 32.1266 69.684 32.0199 70.3613 32.0199C71.0226 32.0199 71.612 32.1239 72.1293 32.3319C72.6466 32.5399 73.0653 32.8359 73.3853 33.2199C73.7053 33.5986 73.8973 34.0439 73.9613 34.5559L72.2493 34.8679C72.1906 34.4519 71.996 34.1239 71.6653 33.8839C71.3346 33.6439 70.9053 33.5132 70.3773 33.4919C69.8706 33.4706 69.46 33.5559 69.1453 33.7479C68.8306 33.9346 68.6733 34.1932 68.6733 34.5239C68.6733 34.7159 68.732 34.8786 68.8493 35.0119C68.972 35.1452 69.2066 35.2732 69.5533 35.3959C69.9 35.5186 70.412 35.6652 71.0893 35.8359C71.8146 36.0226 72.3906 36.2306 72.8173 36.4599C73.244 36.6839 73.548 36.9532 73.7293 37.2679C73.916 37.5772 74.0093 37.9532 74.0093 38.3959C74.0093 39.2492 73.6973 39.9186 73.0733 40.4039C72.4546 40.8892 71.5986 41.1319 70.5053 41.1319ZM79.4754 41.1399C78.5901 41.1399 77.8381 40.9426 77.2194 40.5479C76.6008 40.1532 76.1261 39.6119 75.7954 38.9239C75.4701 38.2359 75.3048 37.4546 75.2994 36.5799C75.3048 35.6892 75.4754 34.9026 75.8114 34.2199C76.1474 33.5319 76.6274 32.9932 77.2514 32.6039C77.8754 32.2146 78.6248 32.0199 79.4994 32.0199C80.4434 32.0199 81.2488 32.2546 81.9154 32.7239C82.5874 33.1932 83.0301 33.8359 83.2434 34.6519L81.5794 35.1319C81.4141 34.6466 81.1421 34.2706 80.7634 34.0039C80.3901 33.7319 79.9608 33.5959 79.4754 33.5959C78.9261 33.5959 78.4754 33.7266 78.1234 33.9879C77.7714 34.2439 77.5101 34.5959 77.3394 35.0439C77.1688 35.4919 77.0808 36.0039 77.0754 36.5799C77.0808 37.4706 77.2834 38.1906 77.6834 38.7399C78.0888 39.2892 78.6861 39.5639 79.4754 39.5639C80.0141 39.5639 80.4488 39.4412 80.7794 39.1959C81.1154 38.9452 81.3714 38.5879 81.5474 38.1239L83.2434 38.5239C82.9608 39.3666 82.4941 40.0146 81.8434 40.4679C81.1928 40.9159 80.4034 41.1399 79.4754 41.1399ZM90.9372 40.8999V36.6519C90.9372 36.3159 90.9078 35.9719 90.8492 35.6199C90.7958 35.2626 90.6892 34.9319 90.5292 34.6279C90.3745 34.3239 90.1532 34.0786 89.8652 33.8919C89.5825 33.7052 89.2118 33.6119 88.7532 33.6119C88.4545 33.6119 88.1718 33.6626 87.9052 33.7639C87.6385 33.8599 87.4038 34.0172 87.2012 34.2359C87.0038 34.4546 86.8465 34.7426 86.7292 35.0999C86.6172 35.4572 86.5612 35.8919 86.5612 36.4039L85.5212 36.0119C85.5212 35.2279 85.6678 34.5372 85.9612 33.9399C86.2545 33.3372 86.6758 32.8679 87.2252 32.5319C87.7745 32.1959 88.4385 32.0279 89.2172 32.0279C89.8145 32.0279 90.3158 32.1239 90.7212 32.3159C91.1265 32.5079 91.4545 32.7612 91.7052 33.0759C91.9612 33.3852 92.1558 33.7239 92.2892 34.0919C92.4225 34.4599 92.5132 34.8199 92.5612 35.1719C92.6092 35.5239 92.6332 35.8332 92.6332 36.0999V40.8999H90.9372ZM84.8652 40.8999V29.3799H86.3612V35.5959H86.5612V40.8999H84.8652ZM98.5489 41.1399C97.6903 41.1399 96.9356 40.9532 96.2849 40.5799C95.6396 40.2012 95.1356 39.6759 94.7729 39.0039C94.4156 38.3266 94.2369 37.5426 94.2369 36.6519C94.2369 35.7079 94.4129 34.8892 94.7649 34.1959C95.1223 33.5026 95.6183 32.9666 96.2529 32.5879C96.8876 32.2092 97.6263 32.0199 98.4689 32.0199C99.3489 32.0199 100.098 32.2252 100.717 32.6359C101.336 33.0412 101.797 33.6199 102.101 34.3719C102.41 35.1239 102.533 36.0172 102.469 37.0519H100.797V36.4439C100.786 35.4412 100.594 34.6999 100.221 34.2199C99.8529 33.7399 99.2903 33.4999 98.5329 33.4999C97.6956 33.4999 97.0663 33.7639 96.6449 34.2919C96.2236 34.8199 96.0129 35.5826 96.0129 36.5799C96.0129 37.5292 96.2236 38.2652 96.6449 38.7879C97.0663 39.3052 97.6743 39.5639 98.4689 39.5639C98.9916 39.5639 99.4423 39.4466 99.8209 39.2119C100.205 38.9719 100.504 38.6306 100.717 38.1879L102.357 38.7079C102.021 39.4812 101.512 40.0812 100.829 40.5079C100.146 40.9292 99.3863 41.1399 98.5489 41.1399ZM95.4689 37.0519V35.7479H101.637V37.0519H95.4689ZM107.696 41.1399C106.89 41.1399 106.194 40.9399 105.608 40.5399C105.026 40.1399 104.576 39.5959 104.256 38.9079C103.941 38.2146 103.784 37.4359 103.784 36.5719C103.784 35.7026 103.944 34.9266 104.264 34.2439C104.584 33.5559 105.037 33.0146 105.624 32.6199C106.216 32.2199 106.917 32.0199 107.728 32.0199C108.544 32.0199 109.229 32.2199 109.784 32.6199C110.344 33.0146 110.765 33.5559 111.048 34.2439C111.336 34.9319 111.48 35.7079 111.48 36.5719C111.48 37.4359 111.336 38.2119 111.048 38.8999C110.76 39.5879 110.336 40.1346 109.776 40.5399C109.216 40.9399 108.522 41.1399 107.696 41.1399ZM107.928 39.6279C108.477 39.6279 108.925 39.4972 109.272 39.2359C109.618 38.9746 109.872 38.6146 110.032 38.1559C110.192 37.6972 110.272 37.1692 110.272 36.5719C110.272 35.9746 110.189 35.4466 110.024 34.9879C109.864 34.5292 109.613 34.1719 109.272 33.9159C108.936 33.6599 108.506 33.5319 107.984 33.5319C107.429 33.5319 106.973 33.6679 106.616 33.9399C106.258 34.2119 105.992 34.5772 105.816 35.0359C105.645 35.4946 105.56 36.0066 105.56 36.5719C105.56 37.1426 105.645 37.6599 105.816 38.1239C105.992 38.5826 106.253 38.9479 106.6 39.2199C106.952 39.4919 107.394 39.6279 107.928 39.6279ZM110.272 40.8999V34.6839H110.08V29.3799H111.76V40.8999H110.272ZM117.254 41.1319C116.657 41.1319 116.156 41.0359 115.75 40.8439C115.345 40.6519 115.014 40.4012 114.758 40.0919C114.508 39.7772 114.316 39.4359 114.182 39.0679C114.049 38.6999 113.958 38.3399 113.91 37.9879C113.862 37.6359 113.838 37.3266 113.838 37.0599V32.2599H115.534V36.5079C115.534 36.8439 115.561 37.1906 115.614 37.5479C115.673 37.8999 115.78 38.2279 115.934 38.5319C116.094 38.8359 116.316 39.0812 116.598 39.2679C116.886 39.4546 117.26 39.5479 117.718 39.5479C118.017 39.5479 118.3 39.4999 118.566 39.4039C118.833 39.3026 119.065 39.1426 119.262 38.9239C119.465 38.7052 119.622 38.4172 119.734 38.0599C119.852 37.7026 119.91 37.2679 119.91 36.7559L120.95 37.1479C120.95 37.9319 120.804 38.6252 120.51 39.2279C120.217 39.8252 119.796 40.2919 119.246 40.6279C118.697 40.9639 118.033 41.1319 117.254 41.1319ZM120.11 40.8999V38.4039H119.91V32.2599H121.598V40.8999H120.11ZM124.002 40.8999V29.1399H125.674V40.8999H124.002ZM131.908 41.1399C131.05 41.1399 130.295 40.9532 129.644 40.5799C128.999 40.2012 128.495 39.6759 128.132 39.0039C127.775 38.3266 127.596 37.5426 127.596 36.6519C127.596 35.7079 127.772 34.8892 128.124 34.1959C128.482 33.5026 128.978 32.9666 129.612 32.5879C130.247 32.2092 130.986 32.0199 131.828 32.0199C132.708 32.0199 133.458 32.2252 134.076 32.6359C134.695 33.0412 135.156 33.6199 135.46 34.3719C135.77 35.1239 135.892 36.0172 135.828 37.0519H134.156V36.4439C134.146 35.4412 133.954 34.6999 133.58 34.2199C133.212 33.7399 132.65 33.4999 131.892 33.4999C131.055 33.4999 130.426 33.7639 130.004 34.2919C129.583 34.8199 129.372 35.5826 129.372 36.5799C129.372 37.5292 129.583 38.2652 130.004 38.7879C130.426 39.3052 131.034 39.5639 131.828 39.5639C132.351 39.5639 132.802 39.4466 133.18 39.2119C133.564 38.9719 133.863 38.6306 134.076 38.1879L135.716 38.7079C135.38 39.4812 134.871 40.0812 134.188 40.5079C133.506 40.9292 132.746 41.1399 131.908 41.1399ZM128.828 37.0519V35.7479H134.996V37.0519H128.828ZM141.618 40.8999V31.9559C141.618 31.7372 141.626 31.5052 141.642 31.2599C141.658 31.0092 141.704 30.7639 141.778 30.5239C141.858 30.2786 141.989 30.0546 142.17 29.8519C142.389 29.6119 142.629 29.4412 142.89 29.3399C143.152 29.2386 143.41 29.1799 143.666 29.1639C143.928 29.1479 144.168 29.1399 144.386 29.1399H145.474V30.5159H144.466C144.072 30.5159 143.776 30.6146 143.578 30.8119C143.386 31.0039 143.29 31.2786 143.29 31.6359V40.8999H141.618ZM140.186 33.6039V32.2599H145.474V33.6039H140.186ZM150.004 41.1319C149.407 41.1319 148.906 41.0359 148.5 40.8439C148.095 40.6519 147.764 40.4012 147.508 40.0919C147.258 39.7772 147.066 39.4359 146.932 39.0679C146.799 38.6999 146.708 38.3399 146.66 37.9879C146.612 37.6359 146.588 37.3266 146.588 37.0599V32.2599H148.284V36.5079C148.284 36.8439 148.311 37.1906 148.364 37.5479C148.423 37.8999 148.53 38.2279 148.684 38.5319C148.844 38.8359 149.066 39.0812 149.348 39.2679C149.636 39.4546 150.01 39.5479 150.468 39.5479C150.767 39.5479 151.05 39.4999 151.316 39.4039C151.583 39.3026 151.815 39.1426 152.012 38.9239C152.215 38.7052 152.372 38.4172 152.484 38.0599C152.602 37.7026 152.66 37.2679 152.66 36.7559L153.7 37.1479C153.7 37.9319 153.554 38.6252 153.26 39.2279C152.967 39.8252 152.546 40.2919 151.996 40.6279C151.447 40.9639 150.783 41.1319 150.004 41.1319ZM152.86 40.8999V38.4039H152.66V32.2599H154.348V40.8999H152.86ZM161.536 40.8999C160.992 41.0066 160.459 41.0519 159.936 41.0359C159.413 41.0199 158.947 40.9186 158.536 40.7319C158.125 40.5452 157.816 40.2519 157.608 39.8519C157.421 39.4946 157.32 39.1319 157.304 38.7639C157.293 38.3906 157.288 37.9692 157.288 37.4999V29.8599H158.968V37.4199C158.968 37.7666 158.971 38.0679 158.976 38.3239C158.987 38.5799 159.043 38.7959 159.144 38.9719C159.336 39.3026 159.64 39.4919 160.056 39.5399C160.477 39.5826 160.971 39.5639 161.536 39.4839V40.8999ZM155.632 33.6039V32.2599H161.536V33.6039H155.632ZM166.614 41.1319C166.016 41.1319 165.515 41.0359 165.11 40.8439C164.704 40.6519 164.374 40.4012 164.118 40.0919C163.867 39.7772 163.675 39.4359 163.542 39.0679C163.408 38.6999 163.318 38.3399 163.27 37.9879C163.222 37.6359 163.198 37.3266 163.198 37.0599V32.2599H164.894V36.5079C164.894 36.8439 164.92 37.1906 164.974 37.5479C165.032 37.8999 165.139 38.2279 165.294 38.5319C165.454 38.8359 165.675 39.0812 165.958 39.2679C166.246 39.4546 166.619 39.5479 167.078 39.5479C167.376 39.5479 167.659 39.4999 167.926 39.4039C168.192 39.3026 168.424 39.1426 168.622 38.9239C168.824 38.7052 168.982 38.4172 169.094 38.0599C169.211 37.7026 169.27 37.2679 169.27 36.7559L170.31 37.1479C170.31 37.9319 170.163 38.6252 169.87 39.2279C169.576 39.8252 169.155 40.2919 168.606 40.6279C168.056 40.9639 167.392 41.1319 166.614 41.1319ZM169.47 40.8999V38.4039H169.27V32.2599H170.958V40.8999H169.47ZM173.201 40.8999V32.2599H174.689V34.3559L174.481 34.0839C174.588 33.8066 174.727 33.5532 174.897 33.3239C175.068 33.0892 175.265 32.8972 175.489 32.7479C175.708 32.5879 175.951 32.4652 176.217 32.3799C176.489 32.2892 176.767 32.2359 177.049 32.2199C177.332 32.1986 177.604 32.2119 177.865 32.2599V33.8279C177.583 33.7532 177.268 33.7319 176.921 33.7639C176.58 33.7959 176.265 33.9052 175.977 34.0919C175.705 34.2679 175.489 34.4812 175.329 34.7319C175.175 34.9826 175.063 35.2626 174.993 35.5719C174.924 35.8759 174.889 36.1986 174.889 36.5399V40.8999H173.201ZM183.065 41.1399C182.206 41.1399 181.451 40.9532 180.801 40.5799C180.155 40.2012 179.651 39.6759 179.289 39.0039C178.931 38.3266 178.753 37.5426 178.753 36.6519C178.753 35.7079 178.929 34.8892 179.281 34.1959C179.638 33.5026 180.134 32.9666 180.769 32.5879C181.403 32.2092 182.142 32.0199 182.985 32.0199C183.865 32.0199 184.614 32.2252 185.233 32.6359C185.851 33.0412 186.313 33.6199 186.617 34.3719C186.926 35.1239 187.049 36.0172 186.985 37.0519H185.313V36.4439C185.302 35.4412 185.11 34.6999 184.737 34.2199C184.369 33.7399 183.806 33.4999 183.049 33.4999C182.211 33.4999 181.582 33.7639 181.161 34.2919C180.739 34.8199 180.529 35.5826 180.529 36.5799C180.529 37.5292 180.739 38.2652 181.161 38.7879C181.582 39.3052 182.19 39.5639 182.985 39.5639C183.507 39.5639 183.958 39.4466 184.337 39.2119C184.721 38.9719 185.019 38.6306 185.233 38.1879L186.873 38.7079C186.537 39.4812 186.027 40.0812 185.345 40.5079C184.662 40.9292 183.902 41.1399 183.065 41.1399ZM179.985 37.0519V35.7479H186.153V37.0519H179.985ZM196.927 40.8999C196.383 41.0066 195.849 41.0519 195.327 41.0359C194.804 41.0199 194.337 40.9186 193.927 40.7319C193.516 40.5452 193.207 40.2519 192.999 39.8519C192.812 39.4946 192.711 39.1319 192.695 38.7639C192.684 38.3906 192.679 37.9692 192.679 37.4999V29.8599H194.359V37.4199C194.359 37.7666 194.361 38.0679 194.367 38.3239C194.377 38.5799 194.433 38.7959 194.535 38.9719C194.727 39.3026 195.031 39.4919 195.447 39.5399C195.868 39.5826 196.361 39.5639 196.927 39.4839V40.8999ZM191.023 33.6039V32.2599H196.927V33.6039H191.023ZM198.748 40.8999V32.2599H200.236V34.3559L200.028 34.0839C200.135 33.8066 200.274 33.5532 200.444 33.3239C200.615 33.0892 200.812 32.8972 201.036 32.7479C201.255 32.5879 201.498 32.4652 201.764 32.3799C202.036 32.2892 202.314 32.2359 202.596 32.2199C202.879 32.1986 203.151 32.2119 203.412 32.2599V33.8279C203.13 33.7532 202.815 33.7319 202.468 33.7639C202.127 33.7959 201.812 33.9052 201.524 34.0919C201.252 34.2679 201.036 34.4812 200.876 34.7319C200.722 34.9826 200.61 35.2626 200.54 35.5719C200.471 35.8759 200.436 36.1986 200.436 36.5399V40.8999H198.748ZM207.126 41.1399C206.486 41.1399 205.95 41.0226 205.518 40.7879C205.086 40.5479 204.758 40.2332 204.534 39.8439C204.315 39.4492 204.206 39.0172 204.206 38.5479C204.206 38.1106 204.283 37.7266 204.438 37.3959C204.592 37.0652 204.822 36.7852 205.126 36.5559C205.43 36.3212 205.803 36.1319 206.246 35.9879C206.63 35.8759 207.064 35.7772 207.55 35.6919C208.035 35.6066 208.544 35.5266 209.078 35.4519C209.616 35.3772 210.15 35.3026 210.678 35.2279L210.07 35.5639C210.08 34.8866 209.936 34.3852 209.638 34.0599C209.344 33.7292 208.838 33.5639 208.118 33.5639C207.664 33.5639 207.248 33.6706 206.87 33.8839C206.491 34.0919 206.227 34.4386 206.078 34.9239L204.518 34.4439C204.731 33.7026 205.136 33.1132 205.734 32.6759C206.336 32.2386 207.136 32.0199 208.134 32.0199C208.907 32.0199 209.579 32.1532 210.15 32.4199C210.726 32.6812 211.147 33.0972 211.414 33.6679C211.552 33.9506 211.638 34.2492 211.67 34.5639C211.702 34.8786 211.718 35.2172 211.718 35.5799V40.8999H210.238V38.9239L210.526 39.1799C210.168 39.8412 209.712 40.3346 209.158 40.6599C208.608 40.9799 207.931 41.1399 207.126 41.1399ZM207.422 39.7719C207.896 39.7719 208.304 39.6892 208.646 39.5239C208.987 39.3532 209.262 39.1372 209.47 38.8759C209.678 38.6146 209.814 38.3426 209.878 38.0599C209.968 37.8039 210.019 37.5159 210.03 37.1959C210.046 36.8759 210.054 36.6199 210.054 36.4279L210.598 36.6279C210.07 36.7079 209.59 36.7799 209.158 36.8439C208.726 36.9079 208.334 36.9719 207.982 37.0359C207.635 37.0946 207.326 37.1666 207.054 37.2519C206.824 37.3319 206.619 37.4279 206.438 37.5399C206.262 37.6519 206.12 37.7879 206.014 37.9479C205.912 38.1079 205.862 38.3026 205.862 38.5319C205.862 38.7559 205.918 38.9639 206.03 39.1559C206.142 39.3426 206.312 39.4919 206.542 39.6039C206.771 39.7159 207.064 39.7719 207.422 39.7719ZM219.859 40.8999V36.6519C219.859 36.3159 219.83 35.9719 219.771 35.6199C219.718 35.2626 219.611 34.9319 219.451 34.6279C219.296 34.3239 219.075 34.0786 218.787 33.8919C218.504 33.7052 218.134 33.6119 217.675 33.6119C217.376 33.6119 217.094 33.6626 216.827 33.7639C216.56 33.8599 216.326 34.0172 216.123 34.2359C215.926 34.4546 215.768 34.7426 215.651 35.0999C215.539 35.4572 215.483 35.8919 215.483 36.4039L214.443 36.0119C214.443 35.2279 214.59 34.5372 214.883 33.9399C215.176 33.3372 215.598 32.8679 216.147 32.5319C216.696 32.1959 217.36 32.0279 218.139 32.0279C218.736 32.0279 219.238 32.1239 219.643 32.3159C220.048 32.5079 220.376 32.7612 220.627 33.0759C220.883 33.3852 221.078 33.7239 221.211 34.0919C221.344 34.4599 221.435 34.8199 221.483 35.1719C221.531 35.5239 221.555 35.8332 221.555 36.0999V40.8999H219.859ZM213.787 40.8999V32.2599H215.283V34.7559H215.483V40.8999H213.787ZM226.943 41.1319C225.892 41.1319 225.036 40.8999 224.375 40.4359C223.713 39.9719 223.308 39.3186 223.159 38.4759L224.871 38.2119C224.977 38.6599 225.223 39.0146 225.607 39.2759C225.996 39.5319 226.479 39.6599 227.055 39.6599C227.577 39.6599 227.985 39.5532 228.279 39.3399C228.577 39.1266 228.727 38.8332 228.727 38.4599C228.727 38.2412 228.673 38.0652 228.567 37.9319C228.465 37.7932 228.249 37.6626 227.919 37.5399C227.588 37.4172 227.084 37.2652 226.407 37.0839C225.665 36.8919 225.076 36.6866 224.639 36.4679C224.207 36.2439 223.897 35.9852 223.711 35.6919C223.529 35.3932 223.439 35.0332 223.439 34.6119C223.439 34.0892 223.577 33.6332 223.855 33.2439C224.132 32.8546 224.521 32.5532 225.023 32.3399C225.529 32.1266 226.121 32.0199 226.799 32.0199C227.46 32.0199 228.049 32.1239 228.567 32.3319C229.084 32.5399 229.503 32.8359 229.823 33.2199C230.143 33.5986 230.335 34.0439 230.399 34.5559L228.687 34.8679C228.628 34.4519 228.433 34.1239 228.103 33.8839C227.772 33.6439 227.343 33.5132 226.815 33.4919C226.308 33.4706 225.897 33.5559 225.583 33.7479C225.268 33.9346 225.111 34.1932 225.111 34.5239C225.111 34.7159 225.169 34.8786 225.287 35.0119C225.409 35.1452 225.644 35.2732 225.991 35.3959C226.337 35.5186 226.849 35.6652 227.527 35.8359C228.252 36.0226 228.828 36.2306 229.255 36.4599C229.681 36.6839 229.985 36.9532 230.167 37.2679C230.353 37.5772 230.447 37.9532 230.447 38.3959C230.447 39.2492 230.135 39.9186 229.511 40.4039C228.892 40.8892 228.036 41.1319 226.943 41.1319ZM233.009 40.8999V31.9559C233.009 31.7372 233.017 31.5052 233.033 31.2599C233.049 31.0092 233.094 30.7639 233.169 30.5239C233.249 30.2786 233.38 30.0546 233.561 29.8519C233.78 29.6119 234.02 29.4412 234.281 29.3399C234.542 29.2386 234.801 29.1799 235.057 29.1639C235.318 29.1479 235.558 29.1399 235.777 29.1399H236.865V30.5159H235.857C235.462 30.5159 235.166 30.6146 234.969 30.8119C234.777 31.0039 234.681 31.2786 234.681 31.6359V40.8999H233.009ZM231.577 33.6039V32.2599H236.865V33.6039H231.577ZM241.658 41.1399C240.8 41.1399 240.045 40.9532 239.394 40.5799C238.749 40.2012 238.245 39.6759 237.882 39.0039C237.525 38.3266 237.346 37.5426 237.346 36.6519C237.346 35.7079 237.522 34.8892 237.874 34.1959C238.232 33.5026 238.728 32.9666 239.362 32.5879C239.997 32.2092 240.736 32.0199 241.578 32.0199C242.458 32.0199 243.208 32.2252 243.826 32.6359C244.445 33.0412 244.906 33.6199 245.21 34.3719C245.52 35.1239 245.642 36.0172 245.578 37.0519H243.906V36.4439C243.896 35.4412 243.704 34.6999 243.33 34.2199C242.962 33.7399 242.4 33.4999 241.642 33.4999C240.805 33.4999 240.176 33.7639 239.754 34.2919C239.333 34.8199 239.122 35.5826 239.122 36.5799C239.122 37.5292 239.333 38.2652 239.754 38.7879C240.176 39.3052 240.784 39.5639 241.578 39.5639C242.101 39.5639 242.552 39.4466 242.93 39.2119C243.314 38.9719 243.613 38.6306 243.826 38.1879L245.466 38.7079C245.13 39.4812 244.621 40.0812 243.938 40.5079C243.256 40.9292 242.496 41.1399 241.658 41.1399ZM238.578 37.0519V35.7479H244.746V37.0519H238.578ZM247.373 40.8999V32.2599H248.861V34.3559L248.653 34.0839C248.76 33.8066 248.899 33.5532 249.069 33.3239C249.24 33.0892 249.437 32.8972 249.661 32.7479C249.88 32.5879 250.123 32.4652 250.389 32.3799C250.661 32.2892 250.939 32.2359 251.221 32.2199C251.504 32.1986 251.776 32.2119 252.037 32.2599V33.8279C251.755 33.7532 251.44 33.7319 251.093 33.7639C250.752 33.7959 250.437 33.9052 250.149 34.0919C249.877 34.2679 249.661 34.4812 249.501 34.7319C249.347 34.9826 249.235 35.2626 249.165 35.5719C249.096 35.8759 249.061 36.1986 249.061 36.5399V40.8999H247.373ZM256.552 41.1319C255.502 41.1319 254.646 40.8999 253.984 40.4359C253.323 39.9719 252.918 39.3186 252.768 38.4759L254.48 38.2119C254.587 38.6599 254.832 39.0146 255.216 39.2759C255.606 39.5319 256.088 39.6599 256.664 39.6599C257.187 39.6599 257.595 39.5532 257.888 39.3399C258.187 39.1266 258.336 38.8332 258.336 38.4599C258.336 38.2412 258.283 38.0652 258.176 37.9319C258.075 37.7932 257.859 37.6626 257.528 37.5399C257.198 37.4172 256.694 37.2652 256.016 37.0839C255.275 36.8919 254.686 36.6866 254.248 36.4679C253.816 36.2439 253.507 35.9852 253.32 35.6919C253.139 35.3932 253.048 35.0332 253.048 34.6119C253.048 34.0892 253.187 33.6332 253.464 33.2439C253.742 32.8546 254.131 32.5532 254.632 32.3399C255.139 32.1266 255.731 32.0199 256.408 32.0199C257.07 32.0199 257.659 32.1239 258.176 32.3319C258.694 32.5399 259.112 32.8359 259.432 33.2199C259.752 33.5986 259.944 34.0439 260.008 34.5559L258.296 34.8679C258.238 34.4519 258.043 34.1239 257.712 33.8839C257.382 33.6439 256.952 33.5132 256.424 33.4919C255.918 33.4706 255.507 33.5559 255.192 33.7479C254.878 33.9346 254.72 34.1932 254.72 34.5239C254.72 34.7159 254.779 34.8786 254.896 35.0119C255.019 35.1452 255.254 35.2732 255.6 35.3959C255.947 35.5186 256.459 35.6652 257.136 35.8359C257.862 36.0226 258.438 36.2306 258.864 36.4599C259.291 36.6839 259.595 36.9532 259.776 37.2679C259.963 37.5772 260.056 37.9532 260.056 38.3959C260.056 39.2492 259.744 39.9186 259.12 40.4039C258.502 40.8892 257.646 41.1319 256.552 41.1319ZM263.97 37.7719C263.97 37.3879 264 37.0279 264.058 36.6919C264.122 36.3559 264.24 36.0359 264.41 35.7319C264.554 35.4439 264.722 35.2119 264.914 35.0359C265.112 34.8546 265.325 34.6786 265.554 34.5079C265.789 34.3319 266.034 34.1079 266.29 33.8359C266.504 33.6012 266.645 33.3639 266.714 33.1239C266.789 32.8839 266.826 32.6252 266.826 32.3479C266.826 32.1452 266.802 31.9559 266.754 31.7799C266.706 31.6039 266.626 31.4519 266.514 31.3239C266.344 31.1106 266.128 30.9612 265.866 30.8759C265.605 30.7852 265.333 30.7399 265.05 30.7399C264.794 30.7399 264.549 30.7746 264.314 30.8439C264.085 30.9132 263.893 31.0199 263.738 31.1639C263.573 31.3026 263.45 31.4759 263.37 31.6839C263.296 31.8866 263.261 32.1079 263.266 32.3479H261.506C261.549 31.8466 261.677 31.3772 261.89 30.9399C262.104 30.5026 262.392 30.1479 262.754 29.8759C263.064 29.6306 263.416 29.4492 263.81 29.3319C264.205 29.2092 264.6 29.1479 264.994 29.1479C265.56 29.1479 266.093 29.2359 266.594 29.4119C267.101 29.5879 267.522 29.8732 267.858 30.2679C268.104 30.5452 268.288 30.8626 268.41 31.2199C268.538 31.5719 268.602 31.9372 268.602 32.3159C268.602 32.8226 268.493 33.2919 268.274 33.7239C268.061 34.1559 267.786 34.5506 267.45 34.9079C267.274 35.0946 267.096 35.2652 266.914 35.4199C266.733 35.5692 266.565 35.7159 266.41 35.8599C266.256 36.0039 266.128 36.1612 266.026 36.3319C265.882 36.5772 265.8 36.7986 265.778 36.9959C265.757 37.1879 265.746 37.4466 265.746 37.7719H263.97ZM263.978 40.8999V38.9639H265.746V40.8999H263.978Z" fill="white"/>
<rect x="305.6" y="16.6899" width="36" height="36" rx="18" fill="white" fill-opacity="0.05"/>
<g clip-path="url(#clip0_20005128_14387)">
<path d="M327.421 31.6003L323.6 35.4212L319.779 31.6003L318.6 32.7795L323.6 37.7795L328.6 32.7795L327.421 31.6003Z" fill="white"/>
</g>
<defs>
<clipPath id="clip0_20005128_14387">
<rect width="10" height="10" fill="white" transform="translate(318.6 29.6899)"/>
</clipPath>
</defs>
</svg>
