<svg width="367" height="75" viewBox="0 0 367 75" fill="none" xmlns="http://www.w3.org/2000/svg">
<mask id="path-1-inside-1_20005128_14408" fill="white">
<path d="M0 0.299805H366.4V66.6998C366.4 71.1181 362.818 74.6998 358.4 74.6998H7.99998C3.58171 74.6998 0 71.1181 0 66.6998V0.299805Z"/>
</mask>
<path d="M0 0.299805H366.4V66.6998C366.4 71.1181 362.818 74.6998 358.4 74.6998H7.99998C3.58171 74.6998 0 71.1181 0 66.6998V0.299805Z" fill="#131022"/>
<path d="M0 0.299805H366.4H0ZM367.2 66.6998C367.2 71.5599 363.26 75.4998 358.4 75.4998H8C3.13989 75.4998 -0.8 71.5599 -0.8 66.6998H0.8C0.8 70.6763 4.02355 73.8998 8 73.8998H358.4C362.376 73.8998 365.6 70.6763 365.6 66.6998H367.2ZM8 75.4998C3.13989 75.4998 -0.8 71.5599 -0.8 66.6998V0.299805H0.8V66.6998C0.8 70.6763 4.02355 73.8998 8 73.8998V75.4998ZM367.2 0.299805V66.6998C367.2 71.5599 363.26 75.4998 358.4 75.4998V73.8998C362.376 73.8998 365.6 70.6763 365.6 66.6998V0.299805H367.2Z" fill="white" fill-opacity="0.15" mask="url(#path-1-inside-1_20005128_14408)"/>
<path d="M0.800049 0.299805H365.6V66.8998C365.6 70.7658 362.466 73.8998 358.6 73.8998H7.80004C3.93405 73.8998 0.800049 70.7658 0.800049 66.8998V0.299805Z" fill="#131022"/>
<path d="M28.36 32.8999L25.016 21.3799H26.768L29.192 30.0919L31.616 21.3879L33.376 21.3799L35.8 30.0919L38.224 21.3799H39.984L36.632 32.8999H34.968L32.496 24.2839L30.024 32.8999H28.36ZM47.3903 32.8999V28.6519C47.3903 28.3159 47.361 27.9719 47.3023 27.6199C47.249 27.2626 47.1423 26.9319 46.9823 26.6279C46.8276 26.3239 46.6063 26.0786 46.3183 25.8919C46.0356 25.7052 45.665 25.6119 45.2063 25.6119C44.9076 25.6119 44.625 25.6626 44.3583 25.7639C44.0916 25.8599 43.857 26.0172 43.6543 26.2359C43.457 26.4546 43.2996 26.7426 43.1823 27.0999C43.0703 27.4572 43.0143 27.8919 43.0143 28.4039L41.9743 28.0119C41.9743 27.2279 42.121 26.5372 42.4143 25.9399C42.7076 25.3372 43.129 24.8679 43.6783 24.5319C44.2276 24.1959 44.8916 24.0279 45.6703 24.0279C46.2676 24.0279 46.769 24.1239 47.1743 24.3159C47.5796 24.5079 47.9076 24.7612 48.1583 25.0759C48.4143 25.3852 48.609 25.7239 48.7423 26.0919C48.8756 26.4599 48.9663 26.8199 49.0143 27.1719C49.0623 27.5239 49.0863 27.8332 49.0863 28.0999V32.8999H47.3903ZM41.3183 32.8999V21.3799H42.8143V27.5959H43.0143V32.8999H41.3183ZM53.61 33.1399C52.97 33.1399 52.434 33.0226 52.002 32.7879C51.57 32.5479 51.242 32.2332 51.018 31.8439C50.7994 31.4492 50.69 31.0172 50.69 30.5479C50.69 30.1106 50.7674 29.7266 50.922 29.3959C51.0767 29.0652 51.306 28.7852 51.61 28.5559C51.914 28.3212 52.2874 28.1319 52.73 27.9879C53.114 27.8759 53.5487 27.7772 54.034 27.6919C54.5194 27.6066 55.0287 27.5266 55.562 27.4519C56.1007 27.3772 56.634 27.3026 57.162 27.2279L56.554 27.5639C56.5647 26.8866 56.4207 26.3852 56.122 26.0599C55.8287 25.7292 55.322 25.5639 54.602 25.5639C54.1487 25.5639 53.7327 25.6706 53.354 25.8839C52.9754 26.0919 52.7114 26.4386 52.562 26.9239L51.002 26.4439C51.2154 25.7026 51.6207 25.1132 52.218 24.6759C52.8207 24.2386 53.6207 24.0199 54.618 24.0199C55.3914 24.0199 56.0634 24.1532 56.634 24.4199C57.21 24.6812 57.6314 25.0972 57.898 25.6679C58.0367 25.9506 58.122 26.2492 58.154 26.5639C58.186 26.8786 58.202 27.2172 58.202 27.5799V32.8999H56.722V30.9239L57.01 31.1799C56.6527 31.8412 56.1967 32.3346 55.642 32.6599C55.0927 32.9799 54.4154 33.1399 53.61 33.1399ZM53.906 31.7719C54.3807 31.7719 54.7887 31.6892 55.13 31.5239C55.4714 31.3532 55.746 31.1372 55.954 30.8759C56.162 30.6146 56.298 30.3426 56.362 30.0599C56.4527 29.8039 56.5034 29.5159 56.514 29.1959C56.53 28.8759 56.538 28.6199 56.538 28.4279L57.082 28.6279C56.554 28.7079 56.074 28.7799 55.642 28.8439C55.21 28.9079 54.818 28.9719 54.466 29.0359C54.1194 29.0946 53.81 29.1666 53.538 29.2519C53.3087 29.3319 53.1034 29.4279 52.922 29.5399C52.746 29.6519 52.6047 29.7879 52.498 29.9479C52.3967 30.1079 52.346 30.3026 52.346 30.5319C52.346 30.7559 52.402 30.9639 52.514 31.1559C52.626 31.3426 52.7967 31.4919 53.026 31.6039C53.2554 31.7159 53.5487 31.7719 53.906 31.7719ZM65.2234 32.8999C64.6794 33.0066 64.1461 33.0519 63.6234 33.0359C63.1008 33.0199 62.6341 32.9186 62.2234 32.7319C61.8128 32.5452 61.5034 32.2519 61.2954 31.8519C61.1088 31.4946 61.0074 31.1319 60.9914 30.7639C60.9808 30.3906 60.9754 29.9692 60.9754 29.4999V21.8599H62.6554V29.4199C62.6554 29.7666 62.6581 30.0679 62.6634 30.3239C62.6741 30.5799 62.7301 30.7959 62.8314 30.9719C63.0234 31.3026 63.3274 31.4919 63.7434 31.5399C64.1648 31.5826 64.6581 31.5639 65.2234 31.4839V32.8999ZM59.3194 25.6039V24.2599H65.2234V25.6039H59.3194ZM76.3122 32.8999V28.6519C76.3122 28.3159 76.2828 27.9719 76.2242 27.6199C76.1708 27.2626 76.0642 26.9319 75.9042 26.6279C75.7495 26.3239 75.5282 26.0786 75.2402 25.8919C74.9575 25.7052 74.5868 25.6119 74.1282 25.6119C73.8295 25.6119 73.5468 25.6626 73.2802 25.7639C73.0135 25.8599 72.7788 26.0172 72.5762 26.2359C72.3788 26.4546 72.2215 26.7426 72.1042 27.0999C71.9922 27.4572 71.9362 27.8919 71.9362 28.4039L70.8962 28.0119C70.8962 27.2279 71.0428 26.5372 71.3362 25.9399C71.6295 25.3372 72.0508 24.8679 72.6002 24.5319C73.1495 24.1959 73.8135 24.0279 74.5922 24.0279C75.1895 24.0279 75.6908 24.1239 76.0962 24.3159C76.5015 24.5079 76.8295 24.7612 77.0802 25.0759C77.3362 25.3852 77.5308 25.7239 77.6642 26.0919C77.7975 26.4599 77.8882 26.8199 77.9362 27.1719C77.9842 27.5239 78.0082 27.8332 78.0082 28.0999V32.8999H76.3122ZM70.2402 32.8999V21.3799H71.7362V27.5959H71.9362V32.8999H70.2402ZM82.5319 33.1399C81.8919 33.1399 81.3559 33.0226 80.9239 32.7879C80.4919 32.5479 80.1639 32.2332 79.9399 31.8439C79.7213 31.4492 79.6119 31.0172 79.6119 30.5479C79.6119 30.1106 79.6893 29.7266 79.8439 29.3959C79.9986 29.0652 80.2279 28.7852 80.5319 28.5559C80.8359 28.3212 81.2093 28.1319 81.6519 27.9879C82.0359 27.8759 82.4706 27.7772 82.9559 27.6919C83.4413 27.6066 83.9506 27.5266 84.4839 27.4519C85.0226 27.3772 85.5559 27.3026 86.0839 27.2279L85.4759 27.5639C85.4866 26.8866 85.3426 26.3852 85.0439 26.0599C84.7506 25.7292 84.2439 25.5639 83.5239 25.5639C83.0706 25.5639 82.6546 25.6706 82.2759 25.8839C81.8973 26.0919 81.6333 26.4386 81.4839 26.9239L79.9239 26.4439C80.1373 25.7026 80.5426 25.1132 81.1399 24.6759C81.7426 24.2386 82.5426 24.0199 83.5399 24.0199C84.3133 24.0199 84.9853 24.1532 85.5559 24.4199C86.1319 24.6812 86.5533 25.0972 86.8199 25.6679C86.9586 25.9506 87.0439 26.2492 87.0759 26.5639C87.1079 26.8786 87.1239 27.2172 87.1239 27.5799V32.8999H85.6439V30.9239L85.9319 31.1799C85.5746 31.8412 85.1186 32.3346 84.5639 32.6599C84.0146 32.9799 83.3373 33.1399 82.5319 33.1399ZM82.8279 31.7719C83.3026 31.7719 83.7106 31.6892 84.0519 31.5239C84.3933 31.3532 84.6679 31.1372 84.8759 30.8759C85.0839 30.6146 85.2199 30.3426 85.2839 30.0599C85.3746 29.8039 85.4253 29.5159 85.4359 29.1959C85.4519 28.8759 85.4599 28.6199 85.4599 28.4279L86.0039 28.6279C85.4759 28.7079 84.9959 28.7799 84.5639 28.8439C84.1319 28.9079 83.7399 28.9719 83.3879 29.0359C83.0413 29.0946 82.7319 29.1666 82.4599 29.2519C82.2306 29.3319 82.0253 29.4279 81.8439 29.5399C81.6679 29.6519 81.5266 29.7879 81.4199 29.9479C81.3186 30.1079 81.2679 30.3026 81.2679 30.5319C81.2679 30.7559 81.3239 30.9639 81.4359 31.1559C81.5479 31.3426 81.7186 31.4919 81.9479 31.6039C82.1773 31.7159 82.4706 31.7719 82.8279 31.7719ZM93.2573 33.1399C92.4306 33.1399 91.7373 32.9399 91.1773 32.5399C90.6173 32.1346 90.1933 31.5879 89.9053 30.8999C89.6173 30.2119 89.4733 29.4359 89.4733 28.5719C89.4733 27.7079 89.6146 26.9319 89.8973 26.2439C90.1853 25.5559 90.6066 25.0146 91.1613 24.6199C91.7213 24.2199 92.4093 24.0199 93.2253 24.0199C94.036 24.0199 94.7346 24.2199 95.3213 24.6199C95.9133 25.0146 96.3693 25.5559 96.6893 26.2439C97.0093 26.9266 97.1693 27.7026 97.1693 28.5719C97.1693 29.4359 97.0093 30.2146 96.6893 30.9079C96.3746 31.5959 95.924 32.1399 95.3373 32.5399C94.756 32.9399 94.0626 33.1399 93.2573 33.1399ZM89.1933 36.7399V24.2599H90.6813V30.4759H90.8733V36.7399H89.1933ZM93.0253 31.6279C93.5586 31.6279 93.9986 31.4919 94.3453 31.2199C94.6973 30.9479 94.9586 30.5826 95.1293 30.1239C95.3053 29.6599 95.3933 29.1426 95.3933 28.5719C95.3933 28.0066 95.3053 27.4946 95.1293 27.0359C94.9586 26.5772 94.6946 26.2119 94.3373 25.9399C93.98 25.6679 93.524 25.5319 92.9693 25.5319C92.4466 25.5319 92.0146 25.6599 91.6733 25.9159C91.3373 26.1719 91.0866 26.5292 90.9213 26.9879C90.7613 27.4466 90.6813 27.9746 90.6813 28.5719C90.6813 29.1692 90.7613 29.6972 90.9213 30.1559C91.0813 30.6146 91.3346 30.9746 91.6813 31.2359C92.028 31.4972 92.476 31.6279 93.0253 31.6279ZM102.992 33.1399C102.165 33.1399 101.472 32.9399 100.912 32.5399C100.352 32.1346 99.9277 31.5879 99.6397 30.8999C99.3517 30.2119 99.2077 29.4359 99.2077 28.5719C99.2077 27.7079 99.349 26.9319 99.6317 26.2439C99.9197 25.5559 100.341 25.0146 100.896 24.6199C101.456 24.2199 102.144 24.0199 102.96 24.0199C103.77 24.0199 104.469 24.2199 105.056 24.6199C105.648 25.0146 106.104 25.5559 106.424 26.2439C106.744 26.9266 106.904 27.7026 106.904 28.5719C106.904 29.4359 106.744 30.2146 106.424 30.9079C106.109 31.5959 105.658 32.1399 105.072 32.5399C104.49 32.9399 103.797 33.1399 102.992 33.1399ZM98.9277 36.7399V24.2599H100.416V30.4759H100.608V36.7399H98.9277ZM102.76 31.6279C103.293 31.6279 103.733 31.4919 104.08 31.2199C104.432 30.9479 104.693 30.5826 104.864 30.1239C105.04 29.6599 105.128 29.1426 105.128 28.5719C105.128 28.0066 105.04 27.4946 104.864 27.0359C104.693 26.5772 104.429 26.2119 104.072 25.9399C103.714 25.6679 103.258 25.5319 102.704 25.5319C102.181 25.5319 101.749 25.6599 101.408 25.9159C101.072 26.1719 100.821 26.5292 100.656 26.9879C100.496 27.4466 100.416 27.9746 100.416 28.5719C100.416 29.1692 100.496 29.6972 100.656 30.1559C100.816 30.6146 101.069 30.9746 101.416 31.2359C101.762 31.4972 102.21 31.6279 102.76 31.6279ZM112.502 33.1399C111.643 33.1399 110.889 32.9532 110.238 32.5799C109.593 32.2012 109.089 31.6759 108.726 31.0039C108.369 30.3266 108.19 29.5426 108.19 28.6519C108.19 27.7079 108.366 26.8892 108.718 26.1959C109.075 25.5026 109.571 24.9666 110.206 24.5879C110.841 24.2092 111.579 24.0199 112.422 24.0199C113.302 24.0199 114.051 24.2252 114.67 24.6359C115.289 25.0412 115.75 25.6199 116.054 26.3719C116.363 27.1239 116.486 28.0172 116.422 29.0519H114.75V28.4439C114.739 27.4412 114.547 26.6999 114.174 26.2199C113.806 25.7399 113.243 25.4999 112.486 25.4999C111.649 25.4999 111.019 25.7639 110.598 26.2919C110.177 26.8199 109.966 27.5826 109.966 28.5799C109.966 29.5292 110.177 30.2652 110.598 30.7879C111.019 31.3052 111.627 31.5639 112.422 31.5639C112.945 31.5639 113.395 31.4466 113.774 31.2119C114.158 30.9719 114.457 30.6306 114.67 30.1879L116.31 30.7079C115.974 31.4812 115.465 32.0812 114.782 32.5079C114.099 32.9292 113.339 33.1399 112.502 33.1399ZM109.422 29.0519V27.7479H115.59V29.0519H109.422ZM124.047 32.8999V28.6519C124.047 28.3159 124.017 27.9719 123.959 27.6199C123.905 27.2626 123.799 26.9319 123.639 26.6279C123.484 26.3239 123.263 26.0786 122.975 25.8919C122.692 25.7052 122.321 25.6119 121.863 25.6119C121.564 25.6119 121.281 25.6626 121.015 25.7639C120.748 25.8599 120.513 26.0172 120.311 26.2359C120.113 26.4546 119.956 26.7426 119.839 27.0999C119.727 27.4572 119.671 27.8919 119.671 28.4039L118.631 28.0119C118.631 27.2279 118.777 26.5372 119.071 25.9399C119.364 25.3372 119.785 24.8679 120.335 24.5319C120.884 24.1959 121.548 24.0279 122.327 24.0279C122.924 24.0279 123.425 24.1239 123.831 24.3159C124.236 24.5079 124.564 24.7612 124.815 25.0759C125.071 25.3852 125.265 25.7239 125.399 26.0919C125.532 26.4599 125.623 26.8199 125.671 27.1719C125.719 27.5239 125.743 27.8332 125.743 28.0999V32.8999H124.047ZM117.975 32.8999V24.2599H119.471V26.7559H119.671V32.8999H117.975ZM131.13 33.1319C130.08 33.1319 129.224 32.8999 128.562 32.4359C127.901 31.9719 127.496 31.3186 127.346 30.4759L129.058 30.2119C129.165 30.6599 129.41 31.0146 129.794 31.2759C130.184 31.5319 130.666 31.6599 131.242 31.6599C131.765 31.6599 132.173 31.5532 132.466 31.3399C132.765 31.1266 132.914 30.8332 132.914 30.4599C132.914 30.2412 132.861 30.0652 132.754 29.9319C132.653 29.7932 132.437 29.6626 132.106 29.5399C131.776 29.4172 131.272 29.2652 130.594 29.0839C129.853 28.8919 129.264 28.6866 128.826 28.4679C128.394 28.2439 128.085 27.9852 127.898 27.6919C127.717 27.3932 127.626 27.0332 127.626 26.6119C127.626 26.0892 127.765 25.6332 128.042 25.2439C128.32 24.8546 128.709 24.5532 129.21 24.3399C129.717 24.1266 130.309 24.0199 130.986 24.0199C131.648 24.0199 132.237 24.1239 132.754 24.3319C133.272 24.5399 133.69 24.8359 134.01 25.2199C134.33 25.5986 134.522 26.0439 134.586 26.5559L132.874 26.8679C132.816 26.4519 132.621 26.1239 132.29 25.8839C131.96 25.6439 131.53 25.5132 131.002 25.4919C130.496 25.4706 130.085 25.5559 129.77 25.7479C129.456 25.9346 129.298 26.1932 129.298 26.5239C129.298 26.7159 129.357 26.8786 129.474 27.0119C129.597 27.1452 129.832 27.2732 130.178 27.3959C130.525 27.5186 131.037 27.6652 131.714 27.8359C132.44 28.0226 133.016 28.2306 133.442 28.4599C133.869 28.6839 134.173 28.9532 134.354 29.2679C134.541 29.5772 134.634 29.9532 134.634 30.3959C134.634 31.2492 134.322 31.9186 133.698 32.4039C133.08 32.8892 132.224 33.1319 131.13 33.1319ZM139.768 22.8439V21.2199H141.44V22.8439H139.768ZM139.768 32.8999V24.2599H141.44V32.8999H139.768ZM144.634 32.8999V23.9559C144.634 23.7372 144.642 23.5052 144.658 23.2599C144.674 23.0092 144.719 22.7639 144.794 22.5239C144.874 22.2786 145.005 22.0546 145.186 21.8519C145.405 21.6119 145.645 21.4412 145.906 21.3399C146.167 21.2386 146.426 21.1799 146.682 21.1639C146.943 21.1479 147.183 21.1399 147.402 21.1399H148.49V22.5159H147.482C147.087 22.5159 146.791 22.6146 146.594 22.8119C146.402 23.0039 146.306 23.2786 146.306 23.6359V32.8999H144.634ZM143.202 25.6039V24.2599H148.49V25.6039H143.202ZM153.127 32.8999V21.3799H154.799V32.8999H153.127ZM161.196 32.8999V23.9559C161.196 23.7372 161.204 23.5052 161.22 23.2599C161.236 23.0092 161.282 22.7639 161.356 22.5239C161.436 22.2786 161.567 22.0546 161.748 21.8519C161.967 21.6119 162.207 21.4412 162.468 21.3399C162.73 21.2386 162.988 21.1799 163.244 21.1639C163.506 21.1479 163.746 21.1399 163.964 21.1399H165.052V22.5159H164.044C163.65 22.5159 163.354 22.6146 163.156 22.8119C162.964 23.0039 162.868 23.2786 162.868 23.6359V32.8999H161.196ZM159.764 25.6039V24.2599H165.052V25.6039H159.764ZM169.766 33.1399C168.902 33.1399 168.152 32.9452 167.518 32.5559C166.883 32.1666 166.392 31.6306 166.046 30.9479C165.704 30.2599 165.534 29.4679 165.534 28.5719C165.534 27.6706 165.71 26.8786 166.062 26.1959C166.414 25.5079 166.907 24.9746 167.542 24.5959C168.176 24.2119 168.918 24.0199 169.766 24.0199C170.63 24.0199 171.379 24.2146 172.014 24.6039C172.648 24.9932 173.139 25.5292 173.486 26.2119C173.832 26.8946 174.006 27.6812 174.006 28.5719C174.006 29.4732 173.83 30.2679 173.478 30.9559C173.131 31.6386 172.64 32.1746 172.006 32.5639C171.371 32.9479 170.624 33.1399 169.766 33.1399ZM169.766 31.5639C170.592 31.5639 171.208 31.2866 171.614 30.7319C172.024 30.1719 172.23 29.4519 172.23 28.5719C172.23 27.6706 172.022 26.9506 171.606 26.4119C171.195 25.8679 170.582 25.5959 169.766 25.5959C169.206 25.5959 168.744 25.7239 168.382 25.9799C168.019 26.2306 167.75 26.5799 167.574 27.0279C167.398 27.4706 167.31 27.9852 167.31 28.5719C167.31 29.4786 167.518 30.2039 167.934 30.7479C168.35 31.2919 168.96 31.5639 169.766 31.5639ZM175.764 32.8999V24.2599H177.252V26.3559L177.044 26.0839C177.15 25.8066 177.289 25.5532 177.46 25.3239C177.63 25.0892 177.828 24.8972 178.052 24.7479C178.27 24.5879 178.513 24.4652 178.78 24.3799C179.052 24.2892 179.329 24.2359 179.612 24.2199C179.894 24.1986 180.166 24.2119 180.428 24.2599V25.8279C180.145 25.7532 179.83 25.7319 179.484 25.7639C179.142 25.7959 178.828 25.9052 178.54 26.0919C178.268 26.2679 178.052 26.4812 177.892 26.7319C177.737 26.9826 177.625 27.2626 177.556 27.5719C177.486 27.8759 177.452 28.1986 177.452 28.5399V32.8999H175.764ZM185.199 36.9799C184.735 36.9799 184.284 36.9079 183.847 36.7639C183.415 36.6199 183.02 36.4066 182.663 36.1239C182.305 35.8466 182.009 35.5026 181.775 35.0919L183.319 34.3079C183.505 34.6759 183.772 34.9452 184.119 35.1159C184.465 35.2866 184.831 35.3719 185.215 35.3719C185.689 35.3719 186.095 35.2866 186.431 35.1159C186.767 34.9506 187.02 34.6999 187.191 34.3639C187.367 34.0279 187.452 33.6119 187.447 33.1159V30.6999H187.647V24.2599H189.127V33.1319C189.127 33.3612 189.119 33.5799 189.103 33.7879C189.087 33.9959 189.057 34.2039 189.015 34.4119C188.892 34.9932 188.657 35.4732 188.311 35.8519C187.969 36.2306 187.532 36.5132 186.999 36.6999C186.471 36.8866 185.871 36.9799 185.199 36.9799ZM185.071 33.1399C184.265 33.1399 183.569 32.9399 182.983 32.5399C182.401 32.1399 181.951 31.5959 181.631 30.9079C181.316 30.2146 181.159 29.4359 181.159 28.5719C181.159 27.7026 181.319 26.9266 181.639 26.2439C181.959 25.5559 182.412 25.0146 182.999 24.6199C183.591 24.2199 184.292 24.0199 185.103 24.0199C185.919 24.0199 186.604 24.2199 187.159 24.6199C187.719 25.0146 188.14 25.5559 188.423 26.2439C188.711 26.9319 188.855 27.7079 188.855 28.5719C188.855 29.4359 188.711 30.2119 188.423 30.8999C188.135 31.5879 187.711 32.1346 187.151 32.5399C186.591 32.9399 185.897 33.1399 185.071 33.1399ZM185.303 31.6279C185.852 31.6279 186.3 31.4972 186.647 31.2359C186.993 30.9746 187.247 30.6146 187.407 30.1559C187.567 29.6972 187.647 29.1692 187.647 28.5719C187.647 27.9746 187.564 27.4466 187.399 26.9879C187.239 26.5292 186.988 26.1719 186.647 25.9159C186.311 25.6599 185.881 25.5319 185.359 25.5319C184.804 25.5319 184.348 25.6679 183.991 25.9399C183.633 26.2119 183.367 26.5772 183.191 27.0359C183.02 27.4946 182.935 28.0066 182.935 28.5719C182.935 29.1426 183.02 29.6599 183.191 30.1239C183.367 30.5826 183.628 30.9479 183.975 31.2199C184.327 31.4919 184.769 31.6279 185.303 31.6279ZM195.205 33.1399C194.347 33.1399 193.592 32.9532 192.941 32.5799C192.296 32.2012 191.792 31.6759 191.429 31.0039C191.072 30.3266 190.893 29.5426 190.893 28.6519C190.893 27.7079 191.069 26.8892 191.421 26.1959C191.779 25.5026 192.275 24.9666 192.909 24.5879C193.544 24.2092 194.283 24.0199 195.125 24.0199C196.005 24.0199 196.755 24.2252 197.373 24.6359C197.992 25.0412 198.453 25.6199 198.757 26.3719C199.067 27.1239 199.189 28.0172 199.125 29.0519H197.453V28.4439C197.443 27.4412 197.251 26.6999 196.877 26.2199C196.509 25.7399 195.947 25.4999 195.189 25.4999C194.352 25.4999 193.723 25.7639 193.301 26.2919C192.88 26.8199 192.669 27.5826 192.669 28.5799C192.669 29.5292 192.88 30.2652 193.301 30.7879C193.723 31.3052 194.331 31.5639 195.125 31.5639C195.648 31.5639 196.099 31.4466 196.477 31.2119C196.861 30.9719 197.16 30.6306 197.373 30.1879L199.013 30.7079C198.677 31.4812 198.168 32.0812 197.485 32.5079C196.803 32.9292 196.043 33.1399 195.205 33.1399ZM192.125 29.0519V27.7479H198.293V29.0519H192.125ZM205.864 32.8999C205.32 33.0066 204.787 33.0519 204.264 33.0359C203.741 33.0199 203.275 32.9186 202.864 32.7319C202.453 32.5452 202.144 32.2519 201.936 31.8519C201.749 31.4946 201.648 31.1319 201.632 30.7639C201.621 30.3906 201.616 29.9692 201.616 29.4999V21.8599H203.296V29.4199C203.296 29.7666 203.299 30.0679 203.304 30.3239C203.315 30.5799 203.371 30.7959 203.472 30.9719C203.664 31.3026 203.968 31.4919 204.384 31.5399C204.805 31.5826 205.299 31.5639 205.864 31.4839V32.8999ZM199.96 25.6039V24.2599H205.864V25.6039H199.96ZM214.641 33.1399C213.777 33.1399 213.027 32.9452 212.393 32.5559C211.758 32.1666 211.267 31.6306 210.921 30.9479C210.579 30.2599 210.409 29.4679 210.409 28.5719C210.409 27.6706 210.585 26.8786 210.937 26.1959C211.289 25.5079 211.782 24.9746 212.417 24.5959C213.051 24.2119 213.793 24.0199 214.641 24.0199C215.505 24.0199 216.254 24.2146 216.889 24.6039C217.523 24.9932 218.014 25.5292 218.361 26.2119C218.707 26.8946 218.881 27.6812 218.881 28.5719C218.881 29.4732 218.705 30.2679 218.353 30.9559C218.006 31.6386 217.515 32.1746 216.881 32.5639C216.246 32.9479 215.499 33.1399 214.641 33.1399ZM214.641 31.5639C215.467 31.5639 216.083 31.2866 216.489 30.7319C216.899 30.1719 217.105 29.4519 217.105 28.5719C217.105 27.6706 216.897 26.9506 216.481 26.4119C216.07 25.8679 215.457 25.5959 214.641 25.5959C214.081 25.5959 213.619 25.7239 213.257 25.9799C212.894 26.2306 212.625 26.5799 212.449 27.0279C212.273 27.4706 212.185 27.9852 212.185 28.5719C212.185 29.4786 212.393 30.2039 212.809 30.7479C213.225 31.2919 213.835 31.5639 214.641 31.5639ZM220.639 32.8999V24.2599H222.127V26.3559L221.919 26.0839C222.025 25.8066 222.164 25.5532 222.335 25.3239C222.505 25.0892 222.703 24.8972 222.927 24.7479C223.145 24.5879 223.388 24.4652 223.655 24.3799C223.927 24.2892 224.204 24.2359 224.487 24.2199C224.769 24.1986 225.041 24.2119 225.303 24.2599V25.8279C225.02 25.7532 224.705 25.7319 224.359 25.7639C224.017 25.7959 223.703 25.9052 223.415 26.0919C223.143 26.2679 222.927 26.4812 222.767 26.7319C222.612 26.9826 222.5 27.2626 222.431 27.5719C222.361 27.8759 222.327 28.1986 222.327 28.5399V32.8999H220.639ZM230.189 32.8999V21.1399H231.861V32.8999H230.189ZM238.016 33.1399C237.152 33.1399 236.402 32.9452 235.768 32.5559C235.133 32.1666 234.642 31.6306 234.296 30.9479C233.954 30.2599 233.784 29.4679 233.784 28.5719C233.784 27.6706 233.96 26.8786 234.312 26.1959C234.664 25.5079 235.157 24.9746 235.792 24.5959C236.426 24.2119 237.168 24.0199 238.016 24.0199C238.88 24.0199 239.629 24.2146 240.264 24.6039C240.898 24.9932 241.389 25.5292 241.736 26.2119C242.082 26.8946 242.256 27.6812 242.256 28.5719C242.256 29.4732 242.08 30.2679 241.728 30.9559C241.381 31.6386 240.89 32.1746 240.256 32.5639C239.621 32.9479 238.874 33.1399 238.016 33.1399ZM238.016 31.5639C238.842 31.5639 239.458 31.2866 239.864 30.7319C240.274 30.1719 240.48 29.4519 240.48 28.5719C240.48 27.6706 240.272 26.9506 239.856 26.4119C239.445 25.8679 238.832 25.5959 238.016 25.5959C237.456 25.5959 236.994 25.7239 236.632 25.9799C236.269 26.2306 236 26.5799 235.824 27.0279C235.648 27.4706 235.56 27.9852 235.56 28.5719C235.56 29.4786 235.768 30.2039 236.184 30.7479C236.6 31.2919 237.21 31.5639 238.016 31.5639ZM247.162 33.1319C246.111 33.1319 245.255 32.8999 244.594 32.4359C243.932 31.9719 243.527 31.3186 243.378 30.4759L245.09 30.2119C245.196 30.6599 245.442 31.0146 245.826 31.2759C246.215 31.5319 246.698 31.6599 247.274 31.6599C247.796 31.6599 248.204 31.5532 248.498 31.3399C248.796 31.1266 248.946 30.8332 248.946 30.4599C248.946 30.2412 248.892 30.0652 248.786 29.9319C248.684 29.7932 248.468 29.6626 248.138 29.5399C247.807 29.4172 247.303 29.2652 246.626 29.0839C245.884 28.8919 245.295 28.6866 244.858 28.4679C244.426 28.2439 244.116 27.9852 243.93 27.6919C243.748 27.3932 243.658 27.0332 243.658 26.6119C243.658 26.0892 243.796 25.6332 244.074 25.2439C244.351 24.8546 244.74 24.5532 245.242 24.3399C245.748 24.1266 246.34 24.0199 247.018 24.0199C247.679 24.0199 248.268 24.1239 248.786 24.3319C249.303 24.5399 249.722 24.8359 250.042 25.2199C250.362 25.5986 250.554 26.0439 250.618 26.5559L248.906 26.8679C248.847 26.4519 248.652 26.1239 248.322 25.8839C247.991 25.6439 247.562 25.5132 247.034 25.4919C246.527 25.4706 246.116 25.5559 245.802 25.7479C245.487 25.9346 245.33 26.1932 245.33 26.5239C245.33 26.7159 245.388 26.8786 245.506 27.0119C245.628 27.1452 245.863 27.2732 246.21 27.3959C246.556 27.5186 247.068 27.6652 247.746 27.8359C248.471 28.0226 249.047 28.2306 249.474 28.4599C249.9 28.6839 250.204 28.9532 250.386 29.2679C250.572 29.5772 250.666 29.9532 250.666 30.3959C250.666 31.2492 250.354 31.9186 249.73 32.4039C249.111 32.8892 248.255 33.1319 247.162 33.1319ZM256.268 33.1399C255.409 33.1399 254.654 32.9532 254.004 32.5799C253.358 32.2012 252.854 31.6759 252.492 31.0039C252.134 30.3266 251.956 29.5426 251.956 28.6519C251.956 27.7079 252.132 26.8892 252.484 26.1959C252.841 25.5026 253.337 24.9666 253.972 24.5879C254.606 24.2092 255.345 24.0199 256.188 24.0199C257.068 24.0199 257.817 24.2252 258.436 24.6359C259.054 25.0412 259.516 25.6199 259.82 26.3719C260.129 27.1239 260.252 28.0172 260.188 29.0519H258.516V28.4439C258.505 27.4412 258.313 26.6999 257.94 26.2199C257.572 25.7399 257.009 25.4999 256.252 25.4999C255.414 25.4999 254.785 25.7639 254.364 26.2919C253.942 26.8199 253.732 27.5826 253.732 28.5799C253.732 29.5292 253.942 30.2652 254.364 30.7879C254.785 31.3052 255.393 31.5639 256.188 31.5639C256.71 31.5639 257.161 31.4466 257.54 31.2119C257.924 30.9719 258.222 30.6306 258.436 30.1879L260.076 30.7079C259.74 31.4812 259.23 32.0812 258.548 32.5079C257.865 32.9292 257.105 33.1399 256.268 33.1399ZM253.188 29.0519V27.7479H259.356V29.0519H253.188ZM275.538 32.8999L275.546 27.5159C275.546 26.8919 275.386 26.4066 275.066 26.0599C274.746 25.7079 274.324 25.5319 273.802 25.5319C273.482 25.5319 273.188 25.6066 272.922 25.7559C272.66 25.8999 272.447 26.1186 272.282 26.4119C272.122 26.6999 272.042 27.0626 272.042 27.4999L271.234 27.0919C271.223 26.4839 271.351 25.9506 271.618 25.4919C271.89 25.0332 272.258 24.6786 272.722 24.4279C273.186 24.1719 273.706 24.0439 274.282 24.0439C275.215 24.0439 275.938 24.3239 276.45 24.8839C276.962 25.4439 277.218 26.1879 277.218 27.1159L277.21 32.8999H275.538ZM265.178 32.8999V24.2599H266.666V26.7559H266.858V32.8999H265.178ZM270.362 32.8999L270.37 27.5479C270.37 26.9186 270.21 26.4252 269.89 26.0679C269.575 25.7106 269.151 25.5319 268.618 25.5319C268.09 25.5319 267.663 25.7132 267.338 26.0759C267.018 26.4386 266.858 26.9132 266.858 27.4999L266.058 26.9879C266.058 26.4226 266.194 25.9186 266.466 25.4759C266.738 25.0332 267.106 24.6839 267.57 24.4279C268.034 24.1719 268.559 24.0439 269.146 24.0439C269.759 24.0439 270.282 24.1746 270.714 24.4359C271.146 24.6919 271.474 25.0519 271.698 25.5159C271.927 25.9799 272.042 26.5186 272.042 27.1319L272.034 32.8999H270.362ZM280.151 36.7399L281.823 32.1879L281.847 33.5319L278.079 24.2599H279.823L282.639 31.4199H282.127L284.815 24.2599H286.511L281.743 36.7399H280.151ZM29.976 53.1399C29.1494 53.1399 28.456 52.9399 27.896 52.5399C27.336 52.1346 26.912 51.5879 26.624 50.8999C26.336 50.2119 26.192 49.4359 26.192 48.5719C26.192 47.7079 26.3334 46.9319 26.616 46.2439C26.904 45.5559 27.3254 45.0146 27.88 44.6199C28.44 44.2199 29.128 44.0199 29.944 44.0199C30.7547 44.0199 31.4534 44.2199 32.04 44.6199C32.632 45.0146 33.088 45.5559 33.408 46.2439C33.728 46.9266 33.888 47.7026 33.888 48.5719C33.888 49.4359 33.728 50.2146 33.408 50.9079C33.0934 51.5959 32.6427 52.1399 32.056 52.5399C31.4747 52.9399 30.7814 53.1399 29.976 53.1399ZM25.912 56.7399V44.2599H27.4V50.4759H27.592V56.7399H25.912ZM29.744 51.6279C30.2774 51.6279 30.7174 51.4919 31.064 51.2199C31.416 50.9479 31.6774 50.5826 31.848 50.1239C32.024 49.6599 32.112 49.1426 32.112 48.5719C32.112 48.0066 32.024 47.4946 31.848 47.0359C31.6774 46.5772 31.4134 46.2119 31.056 45.9399C30.6987 45.6679 30.2427 45.5319 29.688 45.5319C29.1654 45.5319 28.7334 45.6599 28.392 45.9159C28.056 46.1719 27.8054 46.5292 27.64 46.9879C27.48 47.4466 27.4 47.9746 27.4 48.5719C27.4 49.1692 27.48 49.6972 27.64 50.1559C27.8 50.6146 28.0534 50.9746 28.4 51.2359C28.7467 51.4972 29.1947 51.6279 29.744 51.6279ZM38.0944 53.1399C37.4544 53.1399 36.9184 53.0226 36.4864 52.7879C36.0544 52.5479 35.7264 52.2332 35.5024 51.8439C35.2838 51.4492 35.1744 51.0172 35.1744 50.5479C35.1744 50.1106 35.2518 49.7266 35.4064 49.3959C35.5611 49.0652 35.7904 48.7852 36.0944 48.5559C36.3984 48.3212 36.7718 48.1319 37.2144 47.9879C37.5984 47.8759 38.0331 47.7772 38.5184 47.6919C39.0038 47.6066 39.5131 47.5266 40.0464 47.4519C40.5851 47.3772 41.1184 47.3026 41.6464 47.2279L41.0384 47.5639C41.0491 46.8866 40.9051 46.3852 40.6064 46.0599C40.3131 45.7292 39.8064 45.5639 39.0864 45.5639C38.6331 45.5639 38.2171 45.6706 37.8384 45.8839C37.4598 46.0919 37.1958 46.4386 37.0464 46.9239L35.4864 46.4439C35.6998 45.7026 36.1051 45.1132 36.7024 44.6759C37.3051 44.2386 38.1051 44.0199 39.1024 44.0199C39.8758 44.0199 40.5478 44.1532 41.1184 44.4199C41.6944 44.6812 42.1158 45.0972 42.3824 45.6679C42.5211 45.9506 42.6064 46.2492 42.6384 46.5639C42.6704 46.8786 42.6864 47.2172 42.6864 47.5799V52.8999H41.2064V50.9239L41.4944 51.1799C41.1371 51.8412 40.6811 52.3346 40.1264 52.6599C39.5771 52.9799 38.8998 53.1399 38.0944 53.1399ZM38.3904 51.7719C38.8651 51.7719 39.2731 51.6892 39.6144 51.5239C39.9558 51.3532 40.2304 51.1372 40.4384 50.8759C40.6464 50.6146 40.7824 50.3426 40.8464 50.0599C40.9371 49.8039 40.9878 49.5159 40.9984 49.1959C41.0144 48.8759 41.0224 48.6199 41.0224 48.4279L41.5664 48.6279C41.0384 48.7079 40.5584 48.7799 40.1264 48.8439C39.6944 48.9079 39.3024 48.9719 38.9504 49.0359C38.6038 49.0946 38.2944 49.1666 38.0224 49.2519C37.7931 49.3319 37.5878 49.4279 37.4064 49.5399C37.2304 49.6519 37.0891 49.7879 36.9824 49.9479C36.8811 50.1079 36.8304 50.3026 36.8304 50.5319C36.8304 50.7559 36.8864 50.9639 36.9984 51.1559C37.1104 51.3426 37.2811 51.4919 37.5104 51.6039C37.7398 51.7159 38.0331 51.7719 38.3904 51.7719ZM48.0678 53.1319C47.0171 53.1319 46.1611 52.8999 45.4998 52.4359C44.8385 51.9719 44.4331 51.3186 44.2838 50.4759L45.9958 50.2119C46.1025 50.6599 46.3478 51.0146 46.7318 51.2759C47.1211 51.5319 47.6038 51.6599 48.1798 51.6599C48.7025 51.6599 49.1105 51.5532 49.4038 51.3399C49.7025 51.1266 49.8518 50.8332 49.8518 50.4599C49.8518 50.2412 49.7985 50.0652 49.6918 49.9319C49.5905 49.7932 49.3745 49.6626 49.0438 49.5399C48.7131 49.4172 48.2091 49.2652 47.5318 49.0839C46.7905 48.8919 46.2011 48.6866 45.7638 48.4679C45.3318 48.2439 45.0225 47.9852 44.8358 47.6919C44.6545 47.3932 44.5638 47.0332 44.5638 46.6119C44.5638 46.0892 44.7025 45.6332 44.9798 45.2439C45.2571 44.8546 45.6465 44.5532 46.1478 44.3399C46.6545 44.1266 47.2465 44.0199 47.9238 44.0199C48.5851 44.0199 49.1745 44.1239 49.6918 44.3319C50.2091 44.5399 50.6278 44.8359 50.9478 45.2199C51.2678 45.5986 51.4598 46.0439 51.5238 46.5559L49.8118 46.8679C49.7531 46.4519 49.5585 46.1239 49.2278 45.8839C48.8971 45.6439 48.4678 45.5132 47.9398 45.4919C47.4331 45.4706 47.0225 45.5559 46.7078 45.7479C46.3931 45.9346 46.2358 46.1932 46.2358 46.5239C46.2358 46.7159 46.2945 46.8786 46.4118 47.0119C46.5345 47.1452 46.7691 47.2732 47.1158 47.3959C47.4625 47.5186 47.9745 47.6652 48.6518 47.8359C49.3771 48.0226 49.9531 48.2306 50.3798 48.4599C50.8065 48.6839 51.1105 48.9532 51.2918 49.2679C51.4785 49.5772 51.5718 49.9532 51.5718 50.3959C51.5718 51.2492 51.2598 51.9186 50.6358 52.4039C50.0171 52.8892 49.1611 53.1319 48.0678 53.1319ZM56.6459 53.1319C55.5953 53.1319 54.7393 52.8999 54.0779 52.4359C53.4166 51.9719 53.0113 51.3186 52.8619 50.4759L54.5739 50.2119C54.6806 50.6599 54.9259 51.0146 55.3099 51.2759C55.6993 51.5319 56.1819 51.6599 56.7579 51.6599C57.2806 51.6599 57.6886 51.5532 57.9819 51.3399C58.2806 51.1266 58.4299 50.8332 58.4299 50.4599C58.4299 50.2412 58.3766 50.0652 58.2699 49.9319C58.1686 49.7932 57.9526 49.6626 57.6219 49.5399C57.2913 49.4172 56.7873 49.2652 56.1099 49.0839C55.3686 48.8919 54.7793 48.6866 54.3419 48.4679C53.9099 48.2439 53.6006 47.9852 53.4139 47.6919C53.2326 47.3932 53.1419 47.0332 53.1419 46.6119C53.1419 46.0892 53.2806 45.6332 53.5579 45.2439C53.8353 44.8546 54.2246 44.5532 54.7259 44.3399C55.2326 44.1266 55.8246 44.0199 56.5019 44.0199C57.1633 44.0199 57.7526 44.1239 58.2699 44.3319C58.7873 44.5399 59.2059 44.8359 59.5259 45.2199C59.8459 45.5986 60.0379 46.0439 60.1019 46.5559L58.3899 46.8679C58.3313 46.4519 58.1366 46.1239 57.8059 45.8839C57.4753 45.6439 57.0459 45.5132 56.5179 45.4919C56.0113 45.4706 55.6006 45.5559 55.2859 45.7479C54.9713 45.9346 54.8139 46.1932 54.8139 46.5239C54.8139 46.7159 54.8726 46.8786 54.9899 47.0119C55.1126 47.1452 55.3473 47.2732 55.6939 47.3959C56.0406 47.5186 56.5526 47.6652 57.2299 47.8359C57.9553 48.0226 58.5313 48.2306 58.9579 48.4599C59.3846 48.6839 59.6886 48.9532 59.8699 49.2679C60.0566 49.5772 60.1499 49.9532 60.1499 50.3959C60.1499 51.2492 59.8379 51.9186 59.2139 52.4039C58.5953 52.8892 57.7393 53.1319 56.6459 53.1319ZM63.4475 52.8999L60.8075 44.2519L62.4635 44.2599L64.2715 50.1879L66.0955 44.2599H67.5355L69.3595 50.1879L71.1675 44.2599H72.8155L70.1755 52.8999H68.8315L66.8155 46.6439L64.7915 52.8999H63.4475ZM77.6877 53.1399C76.8237 53.1399 76.0743 52.9452 75.4397 52.5559C74.805 52.1666 74.3143 51.6306 73.9677 50.9479C73.6263 50.2599 73.4557 49.4679 73.4557 48.5719C73.4557 47.6706 73.6317 46.8786 73.9837 46.1959C74.3357 45.5079 74.829 44.9746 75.4637 44.5959C76.0983 44.2119 76.8397 44.0199 77.6877 44.0199C78.5517 44.0199 79.301 44.2146 79.9357 44.6039C80.5703 44.9932 81.061 45.5292 81.4077 46.2119C81.7543 46.8946 81.9277 47.6812 81.9277 48.5719C81.9277 49.4732 81.7517 50.2679 81.3997 50.9559C81.053 51.6386 80.5623 52.1746 79.9277 52.5639C79.293 52.9479 78.5463 53.1399 77.6877 53.1399ZM77.6877 51.5639C78.5143 51.5639 79.1303 51.2866 79.5357 50.7319C79.9463 50.1719 80.1517 49.4519 80.1517 48.5719C80.1517 47.6706 79.9437 46.9506 79.5277 46.4119C79.117 45.8679 78.5037 45.5959 77.6877 45.5959C77.1277 45.5959 76.6663 45.7239 76.3037 45.9799C75.941 46.2306 75.6717 46.5799 75.4957 47.0279C75.3197 47.4706 75.2317 47.9852 75.2317 48.5719C75.2317 49.4786 75.4397 50.2039 75.8557 50.7479C76.2717 51.2919 76.8823 51.5639 77.6877 51.5639ZM83.6857 52.8999V44.2599H85.1737V46.3559L84.9657 46.0839C85.0723 45.8066 85.211 45.5532 85.3817 45.3239C85.5523 45.0892 85.7497 44.8972 85.9737 44.7479C86.1923 44.5879 86.435 44.4652 86.7017 44.3799C86.9737 44.2892 87.251 44.2359 87.5337 44.2199C87.8163 44.1986 88.0883 44.2119 88.3497 44.2599V45.8279C88.067 45.7532 87.7523 45.7319 87.4057 45.7639C87.0643 45.7959 86.7497 45.9052 86.4617 46.0919C86.1897 46.2679 85.9737 46.4812 85.8137 46.7319C85.659 46.9826 85.547 47.2626 85.4777 47.5719C85.4083 47.8759 85.3737 48.1986 85.3737 48.5399V52.8999H83.6857ZM93.1489 53.1399C92.3436 53.1399 91.6476 52.9399 91.0609 52.5399C90.4796 52.1399 90.0289 51.5959 89.7089 50.9079C89.3943 50.2146 89.2369 49.4359 89.2369 48.5719C89.2369 47.7026 89.3969 46.9266 89.7169 46.2439C90.0369 45.5559 90.4903 45.0146 91.0769 44.6199C91.6689 44.2199 92.3703 44.0199 93.1809 44.0199C93.9969 44.0199 94.6823 44.2199 95.2369 44.6199C95.7969 45.0146 96.2183 45.5559 96.5009 46.2439C96.7889 46.9319 96.9329 47.7079 96.9329 48.5719C96.9329 49.4359 96.7889 50.2119 96.5009 50.8999C96.2129 51.5879 95.7889 52.1346 95.2289 52.5399C94.6689 52.9399 93.9756 53.1399 93.1489 53.1399ZM93.3809 51.6279C93.9303 51.6279 94.3783 51.4972 94.7249 51.2359C95.0716 50.9746 95.3249 50.6146 95.4849 50.1559C95.6449 49.6972 95.7249 49.1692 95.7249 48.5719C95.7249 47.9746 95.6423 47.4466 95.4769 46.9879C95.3169 46.5292 95.0663 46.1719 94.7249 45.9159C94.3889 45.6599 93.9596 45.5319 93.4369 45.5319C92.8823 45.5319 92.4263 45.6679 92.0689 45.9399C91.7116 46.2119 91.4449 46.5772 91.2689 47.0359C91.0983 47.4946 91.0129 48.0066 91.0129 48.5719C91.0129 49.1426 91.0983 49.6599 91.2689 50.1239C91.4449 50.5826 91.7063 50.9479 92.0529 51.2199C92.4049 51.4919 92.8476 51.6279 93.3809 51.6279ZM95.7249 52.8999V46.6839H95.5329V41.3799H97.2129V52.8999H95.7249ZM101.595 49.7719C101.595 49.3879 101.625 49.0279 101.683 48.6919C101.747 48.3559 101.865 48.0359 102.035 47.7319C102.179 47.4439 102.347 47.2119 102.539 47.0359C102.737 46.8546 102.95 46.6786 103.179 46.5079C103.414 46.3319 103.659 46.1079 103.915 45.8359C104.129 45.6012 104.27 45.3639 104.339 45.1239C104.414 44.8839 104.451 44.6252 104.451 44.3479C104.451 44.1452 104.427 43.9559 104.379 43.7799C104.331 43.6039 104.251 43.4519 104.139 43.3239C103.969 43.1106 103.753 42.9612 103.491 42.8759C103.23 42.7852 102.958 42.7399 102.675 42.7399C102.419 42.7399 102.174 42.7746 101.939 42.8439C101.71 42.9132 101.518 43.0199 101.363 43.1639C101.198 43.3026 101.075 43.4759 100.995 43.6839C100.921 43.8866 100.886 44.1079 100.891 44.3479H99.1313C99.174 43.8466 99.302 43.3772 99.5153 42.9399C99.7286 42.5026 100.017 42.1479 100.379 41.8759C100.689 41.6306 101.041 41.4492 101.435 41.3319C101.83 41.2092 102.225 41.1479 102.619 41.1479C103.185 41.1479 103.718 41.2359 104.219 41.4119C104.726 41.5879 105.147 41.8732 105.483 42.2679C105.729 42.5452 105.913 42.8626 106.035 43.2199C106.163 43.5719 106.227 43.9372 106.227 44.3159C106.227 44.8226 106.118 45.2919 105.899 45.7239C105.686 46.1559 105.411 46.5506 105.075 46.9079C104.899 47.0946 104.721 47.2652 104.539 47.4199C104.358 47.5692 104.19 47.7159 104.035 47.8599C103.881 48.0039 103.753 48.1612 103.651 48.3319C103.507 48.5772 103.425 48.7986 103.403 48.9959C103.382 49.1879 103.371 49.4466 103.371 49.7719H101.595ZM101.603 52.8999V50.9639H103.371V52.8999H101.603Z" fill="white"/>
<rect x="305.6" y="19.0999" width="36" height="36" rx="18" fill="white" fill-opacity="0.05"/>
<g clip-path="url(#clip0_20005128_14408)">
<path d="M327.421 34.0103L323.6 37.8311L319.779 34.0103L318.6 35.1894L323.6 40.1894L328.6 35.1894L327.421 34.0103Z" fill="white"/>
</g>
<defs>
<clipPath id="clip0_20005128_14408">
<rect width="10" height="10" fill="white" transform="translate(318.6 32.0999)"/>
</clipPath>
</defs>
</svg>
