<svg width="367" height="75" viewBox="0 0 367 75" fill="none" xmlns="http://www.w3.org/2000/svg">
<mask id="path-1-inside-1_20005128_14380" fill="white">
<path d="M0 0.299805H366.4V74.6998H0V0.299805Z"/>
</mask>
<path d="M0 0.299805H366.4V74.6998H0V0.299805Z" fill="#131022"/>
<path d="M366.4 74.6998V75.4998H367.2V74.6998H366.4ZM0 74.6998H-0.8V75.4998H0V74.6998ZM365.6 0.299805V74.6998H367.2V0.299805H365.6ZM366.4 73.8998H0V75.4998H366.4V73.8998ZM0.8 74.6998V0.299805H-0.8V74.6998H0.8Z" fill="white" fill-opacity="0.15" mask="url(#path-1-inside-1_20005128_14380)"/>
<rect width="364.8" height="73.6" transform="translate(0.800049 0.299805)" fill="#131022"/>
<path d="M28.36 32.8999L25.016 21.3799H26.768L29.192 30.0919L31.616 21.3879L33.376 21.3799L35.8 30.0919L38.224 21.3799H39.984L36.632 32.8999H34.968L32.496 24.2839L30.024 32.8999H28.36ZM47.3903 32.8999V28.6519C47.3903 28.3159 47.361 27.9719 47.3023 27.6199C47.249 27.2626 47.1423 26.9319 46.9823 26.6279C46.8276 26.3239 46.6063 26.0786 46.3183 25.8919C46.0356 25.7052 45.665 25.6119 45.2063 25.6119C44.9076 25.6119 44.625 25.6626 44.3583 25.7639C44.0916 25.8599 43.857 26.0172 43.6543 26.2359C43.457 26.4546 43.2996 26.7426 43.1823 27.0999C43.0703 27.4572 43.0143 27.8919 43.0143 28.4039L41.9743 28.0119C41.9743 27.2279 42.121 26.5372 42.4143 25.9399C42.7076 25.3372 43.129 24.8679 43.6783 24.5319C44.2276 24.1959 44.8916 24.0279 45.6703 24.0279C46.2676 24.0279 46.769 24.1239 47.1743 24.3159C47.5796 24.5079 47.9076 24.7612 48.1583 25.0759C48.4143 25.3852 48.609 25.7239 48.7423 26.0919C48.8756 26.4599 48.9663 26.8199 49.0143 27.1719C49.0623 27.5239 49.0863 27.8332 49.0863 28.0999V32.8999H47.3903ZM41.3183 32.8999V21.3799H42.8143V27.5959H43.0143V32.8999H41.3183ZM53.61 33.1399C52.97 33.1399 52.434 33.0226 52.002 32.7879C51.57 32.5479 51.242 32.2332 51.018 31.8439C50.7994 31.4492 50.69 31.0172 50.69 30.5479C50.69 30.1106 50.7674 29.7266 50.922 29.3959C51.0767 29.0652 51.306 28.7852 51.61 28.5559C51.914 28.3212 52.2874 28.1319 52.73 27.9879C53.114 27.8759 53.5487 27.7772 54.034 27.6919C54.5194 27.6066 55.0287 27.5266 55.562 27.4519C56.1007 27.3772 56.634 27.3026 57.162 27.2279L56.554 27.5639C56.5647 26.8866 56.4207 26.3852 56.122 26.0599C55.8287 25.7292 55.322 25.5639 54.602 25.5639C54.1487 25.5639 53.7327 25.6706 53.354 25.8839C52.9754 26.0919 52.7114 26.4386 52.562 26.9239L51.002 26.4439C51.2154 25.7026 51.6207 25.1132 52.218 24.6759C52.8207 24.2386 53.6207 24.0199 54.618 24.0199C55.3914 24.0199 56.0634 24.1532 56.634 24.4199C57.21 24.6812 57.6314 25.0972 57.898 25.6679C58.0367 25.9506 58.122 26.2492 58.154 26.5639C58.186 26.8786 58.202 27.2172 58.202 27.5799V32.8999H56.722V30.9239L57.01 31.1799C56.6527 31.8412 56.1967 32.3346 55.642 32.6599C55.0927 32.9799 54.4154 33.1399 53.61 33.1399ZM53.906 31.7719C54.3807 31.7719 54.7887 31.6892 55.13 31.5239C55.4714 31.3532 55.746 31.1372 55.954 30.8759C56.162 30.6146 56.298 30.3426 56.362 30.0599C56.4527 29.8039 56.5034 29.5159 56.514 29.1959C56.53 28.8759 56.538 28.6199 56.538 28.4279L57.082 28.6279C56.554 28.7079 56.074 28.7799 55.642 28.8439C55.21 28.9079 54.818 28.9719 54.466 29.0359C54.1194 29.0946 53.81 29.1666 53.538 29.2519C53.3087 29.3319 53.1034 29.4279 52.922 29.5399C52.746 29.6519 52.6047 29.7879 52.498 29.9479C52.3967 30.1079 52.346 30.3026 52.346 30.5319C52.346 30.7559 52.402 30.9639 52.514 31.1559C52.626 31.3426 52.7967 31.4919 53.026 31.6039C53.2554 31.7159 53.5487 31.7719 53.906 31.7719ZM65.2234 32.8999C64.6794 33.0066 64.1461 33.0519 63.6234 33.0359C63.1008 33.0199 62.6341 32.9186 62.2234 32.7319C61.8128 32.5452 61.5034 32.2519 61.2954 31.8519C61.1088 31.4946 61.0074 31.1319 60.9914 30.7639C60.9808 30.3906 60.9754 29.9692 60.9754 29.4999V21.8599H62.6554V29.4199C62.6554 29.7666 62.6581 30.0679 62.6634 30.3239C62.6741 30.5799 62.7301 30.7959 62.8314 30.9719C63.0234 31.3026 63.3274 31.4919 63.7434 31.5399C64.1648 31.5826 64.6581 31.5639 65.2234 31.4839V32.8999ZM59.3194 25.6039V24.2599H65.2234V25.6039H59.3194ZM71.0402 32.8999V23.9559C71.0402 23.7372 71.0482 23.5052 71.0642 23.2599C71.0802 23.0092 71.1255 22.7639 71.2002 22.5239C71.2802 22.2786 71.4108 22.0546 71.5922 21.8519C71.8108 21.6119 72.0508 21.4412 72.3122 21.3399C72.5735 21.2386 72.8322 21.1799 73.0882 21.1639C73.3495 21.1479 73.5895 21.1399 73.8082 21.1399H74.8962V22.5159H73.8882C73.4935 22.5159 73.1975 22.6146 73.0002 22.8119C72.8082 23.0039 72.7122 23.2786 72.7122 23.6359V32.8999H71.0402ZM69.6082 25.6039V24.2599H74.8962V25.6039H69.6082ZM79.6095 33.1399C78.7455 33.1399 77.9962 32.9452 77.3615 32.5559C76.7269 32.1666 76.2362 31.6306 75.8895 30.9479C75.5482 30.2599 75.3775 29.4679 75.3775 28.5719C75.3775 27.6706 75.5535 26.8786 75.9055 26.1959C76.2575 25.5079 76.7509 24.9746 77.3855 24.5959C78.0202 24.2119 78.7615 24.0199 79.6095 24.0199C80.4735 24.0199 81.2229 24.2146 81.8575 24.6039C82.4922 24.9932 82.9829 25.5292 83.3295 26.2119C83.6762 26.8946 83.8495 27.6812 83.8495 28.5719C83.8495 29.4732 83.6735 30.2679 83.3215 30.9559C82.9749 31.6386 82.4842 32.1746 81.8495 32.5639C81.2149 32.9479 80.4682 33.1399 79.6095 33.1399ZM79.6095 31.5639C80.4362 31.5639 81.0522 31.2866 81.4575 30.7319C81.8682 30.1719 82.0735 29.4519 82.0735 28.5719C82.0735 27.6706 81.8655 26.9506 81.4495 26.4119C81.0389 25.8679 80.4255 25.5959 79.6095 25.5959C79.0495 25.5959 78.5882 25.7239 78.2255 25.9799C77.8629 26.2306 77.5935 26.5799 77.4175 27.0279C77.2415 27.4706 77.1535 27.9852 77.1535 28.5719C77.1535 29.4786 77.3615 30.2039 77.7775 30.7479C78.1935 31.2919 78.8042 31.5639 79.6095 31.5639ZM85.6075 32.8999V24.2599H87.0955V26.3559L86.8875 26.0839C86.9942 25.8066 87.1329 25.5532 87.3035 25.3239C87.4742 25.0892 87.6715 24.8972 87.8955 24.7479C88.1142 24.5879 88.3569 24.4652 88.6235 24.3799C88.8955 24.2892 89.1729 24.2359 89.4555 24.2199C89.7382 24.1986 90.0102 24.2119 90.2715 24.2599V25.8279C89.9889 25.7532 89.6742 25.7319 89.3275 25.7639C88.9862 25.7959 88.6715 25.9052 88.3835 26.0919C88.1115 26.2679 87.8955 26.4812 87.7355 26.7319C87.5809 26.9826 87.4689 27.2626 87.3995 27.5719C87.3302 27.8759 87.2955 28.1986 87.2955 28.5399V32.8999H85.6075ZM102.147 32.8999L102.155 27.5159C102.155 26.8919 101.995 26.4066 101.675 26.0599C101.355 25.7079 100.934 25.5319 100.411 25.5319C100.091 25.5319 99.7977 25.6066 99.531 25.7559C99.2697 25.8999 99.0564 26.1186 98.891 26.4119C98.731 26.6999 98.651 27.0626 98.651 27.4999L97.843 27.0919C97.8324 26.4839 97.9604 25.9506 98.227 25.4919C98.499 25.0332 98.867 24.6786 99.331 24.4279C99.795 24.1719 100.315 24.0439 100.891 24.0439C101.824 24.0439 102.547 24.3239 103.059 24.8839C103.571 25.4439 103.827 26.1879 103.827 27.1159L103.819 32.8999H102.147ZM91.787 32.8999V24.2599H93.275V26.7559H93.467V32.8999H91.787ZM96.971 32.8999L96.979 27.5479C96.979 26.9186 96.819 26.4252 96.499 26.0679C96.1844 25.7106 95.7604 25.5319 95.227 25.5319C94.699 25.5319 94.2724 25.7132 93.947 26.0759C93.627 26.4386 93.467 26.9132 93.467 27.4999L92.667 26.9879C92.667 26.4226 92.803 25.9186 93.075 25.4759C93.347 25.0332 93.715 24.6839 94.179 24.4279C94.643 24.1719 95.1684 24.0439 95.755 24.0439C96.3684 24.0439 96.891 24.1746 97.323 24.4359C97.755 24.6919 98.083 25.0519 98.307 25.5159C98.5364 25.9799 98.651 26.5186 98.651 27.1319L98.643 32.8999H96.971ZM108.344 33.1399C107.704 33.1399 107.168 33.0226 106.736 32.7879C106.304 32.5479 105.976 32.2332 105.752 31.8439C105.534 31.4492 105.424 31.0172 105.424 30.5479C105.424 30.1106 105.502 29.7266 105.656 29.3959C105.811 29.0652 106.04 28.7852 106.344 28.5559C106.648 28.3212 107.022 28.1319 107.464 27.9879C107.848 27.8759 108.283 27.7772 108.768 27.6919C109.254 27.6066 109.763 27.5266 110.296 27.4519C110.835 27.3772 111.368 27.3026 111.896 27.2279L111.288 27.5639C111.299 26.8866 111.155 26.3852 110.856 26.0599C110.563 25.7292 110.056 25.5639 109.336 25.5639C108.883 25.5639 108.467 25.6706 108.088 25.8839C107.71 26.0919 107.446 26.4386 107.296 26.9239L105.736 26.4439C105.95 25.7026 106.355 25.1132 106.952 24.6759C107.555 24.2386 108.355 24.0199 109.352 24.0199C110.126 24.0199 110.798 24.1532 111.368 24.4199C111.944 24.6812 112.366 25.0972 112.632 25.6679C112.771 25.9506 112.856 26.2492 112.888 26.5639C112.92 26.8786 112.936 27.2172 112.936 27.5799V32.8999H111.456V30.9239L111.744 31.1799C111.387 31.8412 110.931 32.3346 110.376 32.6599C109.827 32.9799 109.15 33.1399 108.344 33.1399ZM108.64 31.7719C109.115 31.7719 109.523 31.6892 109.864 31.5239C110.206 31.3532 110.48 31.1372 110.688 30.8759C110.896 30.6146 111.032 30.3426 111.096 30.0599C111.187 29.8039 111.238 29.5159 111.248 29.1959C111.264 28.8759 111.272 28.6199 111.272 28.4279L111.816 28.6279C111.288 28.7079 110.808 28.7799 110.376 28.8439C109.944 28.9079 109.552 28.9719 109.2 29.0359C108.854 29.0946 108.544 29.1666 108.272 29.2519C108.043 29.3319 107.838 29.4279 107.656 29.5399C107.48 29.6519 107.339 29.7879 107.232 29.9479C107.131 30.1079 107.08 30.3026 107.08 30.5319C107.08 30.7559 107.136 30.9639 107.248 31.1559C107.36 31.3426 107.531 31.4919 107.76 31.6039C107.99 31.7159 108.283 31.7719 108.64 31.7719ZM119.958 32.8999C119.414 33.0066 118.88 33.0519 118.358 33.0359C117.835 33.0199 117.368 32.9186 116.958 32.7319C116.547 32.5452 116.238 32.2519 116.03 31.8519C115.843 31.4946 115.742 31.1319 115.726 30.7639C115.715 30.3906 115.71 29.9692 115.71 29.4999V21.8599H117.39V29.4199C117.39 29.7666 117.392 30.0679 117.398 30.3239C117.408 30.5799 117.464 30.7959 117.566 30.9719C117.758 31.3026 118.062 31.4919 118.478 31.5399C118.899 31.5826 119.392 31.5639 119.958 31.4839V32.8999ZM114.054 25.6039V24.2599H119.958V25.6039H114.054ZM125.083 33.1319C124.033 33.1319 123.177 32.8999 122.515 32.4359C121.854 31.9719 121.449 31.3186 121.299 30.4759L123.011 30.2119C123.118 30.6599 123.363 31.0146 123.747 31.2759C124.137 31.5319 124.619 31.6599 125.195 31.6599C125.718 31.6599 126.126 31.5532 126.419 31.3399C126.718 31.1266 126.867 30.8332 126.867 30.4599C126.867 30.2412 126.814 30.0652 126.707 29.9319C126.606 29.7932 126.39 29.6626 126.059 29.5399C125.729 29.4172 125.225 29.2652 124.547 29.0839C123.806 28.8919 123.217 28.6866 122.779 28.4679C122.347 28.2439 122.038 27.9852 121.851 27.6919C121.67 27.3932 121.579 27.0332 121.579 26.6119C121.579 26.0892 121.718 25.6332 121.995 25.2439C122.273 24.8546 122.662 24.5532 123.163 24.3399C123.67 24.1266 124.262 24.0199 124.939 24.0199C125.601 24.0199 126.19 24.1239 126.707 24.3319C127.225 24.5399 127.643 24.8359 127.963 25.2199C128.283 25.5986 128.475 26.0439 128.539 26.5559L126.827 26.8679C126.769 26.4519 126.574 26.1239 126.243 25.8839C125.913 25.6439 125.483 25.5132 124.955 25.4919C124.449 25.4706 124.038 25.5559 123.723 25.7479C123.409 25.9346 123.251 26.1932 123.251 26.5239C123.251 26.7159 123.31 26.8786 123.427 27.0119C123.55 27.1452 123.785 27.2732 124.131 27.3959C124.478 27.5186 124.99 27.6652 125.667 27.8359C126.393 28.0226 126.969 28.2306 127.395 28.4599C127.822 28.6839 128.126 28.9532 128.307 29.2679C128.494 29.5772 128.587 29.9532 128.587 30.3959C128.587 31.2492 128.275 31.9186 127.651 32.4039C127.033 32.8892 126.177 33.1319 125.083 33.1319ZM137.257 33.1399C136.371 33.1399 135.619 32.9426 135.001 32.5479C134.382 32.1532 133.907 31.6119 133.577 30.9239C133.251 30.2359 133.086 29.4546 133.081 28.5799C133.086 27.6892 133.257 26.9026 133.593 26.2199C133.929 25.5319 134.409 24.9932 135.033 24.6039C135.657 24.2146 136.406 24.0199 137.281 24.0199C138.225 24.0199 139.03 24.2546 139.697 24.7239C140.369 25.1932 140.811 25.8359 141.025 26.6519L139.361 27.1319C139.195 26.6466 138.923 26.2706 138.545 26.0039C138.171 25.7319 137.742 25.5959 137.257 25.5959C136.707 25.5959 136.257 25.7266 135.905 25.9879C135.553 26.2439 135.291 26.5959 135.121 27.0439C134.95 27.4919 134.862 28.0039 134.857 28.5799C134.862 29.4706 135.065 30.1906 135.465 30.7399C135.87 31.2892 136.467 31.5639 137.257 31.5639C137.795 31.5639 138.23 31.4412 138.561 31.1959C138.897 30.9452 139.153 30.5879 139.329 30.1239L141.025 30.5239C140.742 31.3666 140.275 32.0146 139.625 32.4679C138.974 32.9159 138.185 33.1399 137.257 33.1399ZM144.985 33.1399C144.345 33.1399 143.809 33.0226 143.377 32.7879C142.945 32.5479 142.617 32.2332 142.393 31.8439C142.174 31.4492 142.065 31.0172 142.065 30.5479C142.065 30.1106 142.142 29.7266 142.297 29.3959C142.452 29.0652 142.681 28.7852 142.985 28.5559C143.289 28.3212 143.662 28.1319 144.105 27.9879C144.489 27.8759 144.924 27.7772 145.409 27.6919C145.894 27.6066 146.404 27.5266 146.937 27.4519C147.476 27.3772 148.009 27.3026 148.537 27.2279L147.929 27.5639C147.94 26.8866 147.796 26.3852 147.497 26.0599C147.204 25.7292 146.697 25.5639 145.977 25.5639C145.524 25.5639 145.108 25.6706 144.729 25.8839C144.35 26.0919 144.086 26.4386 143.937 26.9239L142.377 26.4439C142.59 25.7026 142.996 25.1132 143.593 24.6759C144.196 24.2386 144.996 24.0199 145.993 24.0199C146.766 24.0199 147.438 24.1532 148.009 24.4199C148.585 24.6812 149.006 25.0972 149.273 25.6679C149.412 25.9506 149.497 26.2492 149.529 26.5639C149.561 26.8786 149.577 27.2172 149.577 27.5799V32.8999H148.097V30.9239L148.385 31.1799C148.028 31.8412 147.572 32.3346 147.017 32.6599C146.468 32.9799 145.79 33.1399 144.985 33.1399ZM145.281 31.7719C145.756 31.7719 146.164 31.6892 146.505 31.5239C146.846 31.3532 147.121 31.1372 147.329 30.8759C147.537 30.6146 147.673 30.3426 147.737 30.0599C147.828 29.8039 147.878 29.5159 147.889 29.1959C147.905 28.8759 147.913 28.6199 147.913 28.4279L148.457 28.6279C147.929 28.7079 147.449 28.7799 147.017 28.8439C146.585 28.9079 146.193 28.9719 145.841 29.0359C145.494 29.0946 145.185 29.1666 144.913 29.2519C144.684 29.3319 144.478 29.4279 144.297 29.5399C144.121 29.6519 143.98 29.7879 143.873 29.9479C143.772 30.1079 143.721 30.3026 143.721 30.5319C143.721 30.7559 143.777 30.9639 143.889 31.1559C144.001 31.3426 144.172 31.4919 144.401 31.6039C144.63 31.7159 144.924 31.7719 145.281 31.7719ZM157.718 32.8999V28.6519C157.718 28.3159 157.689 27.9719 157.63 27.6199C157.577 27.2626 157.47 26.9319 157.31 26.6279C157.156 26.3239 156.934 26.0786 156.646 25.8919C156.364 25.7052 155.993 25.6119 155.534 25.6119C155.236 25.6119 154.953 25.6626 154.686 25.7639C154.42 25.8599 154.185 26.0172 153.982 26.2359C153.785 26.4546 153.628 26.7426 153.51 27.0999C153.398 27.4572 153.342 27.8919 153.342 28.4039L152.302 28.0119C152.302 27.2279 152.449 26.5372 152.742 25.9399C153.036 25.3372 153.457 24.8679 154.006 24.5319C154.556 24.1959 155.22 24.0279 155.998 24.0279C156.596 24.0279 157.097 24.1239 157.502 24.3159C157.908 24.5079 158.236 24.7612 158.486 25.0759C158.742 25.3852 158.937 25.7239 159.07 26.0919C159.204 26.4599 159.294 26.8199 159.342 27.1719C159.39 27.5239 159.414 27.8332 159.414 28.0999V32.8999H157.718ZM151.646 32.8999V24.2599H153.142V26.7559H153.342V32.8999H151.646ZM164.861 32.8999V21.3799H166.533V32.8999H164.861ZM175.571 33.1399C174.765 33.1399 174.069 32.9399 173.483 32.5399C172.901 32.1399 172.451 31.5959 172.131 30.9079C171.816 30.2146 171.659 29.4359 171.659 28.5719C171.659 27.7026 171.819 26.9266 172.139 26.2439C172.459 25.5559 172.912 25.0146 173.499 24.6199C174.091 24.2199 174.792 24.0199 175.603 24.0199C176.419 24.0199 177.104 24.2199 177.659 24.6199C178.219 25.0146 178.64 25.5559 178.923 26.2439C179.211 26.9319 179.355 27.7079 179.355 28.5719C179.355 29.4359 179.211 30.2119 178.923 30.8999C178.635 31.5879 178.211 32.1346 177.651 32.5399C177.091 32.9399 176.397 33.1399 175.571 33.1399ZM175.803 31.6279C176.352 31.6279 176.8 31.4972 177.147 31.2359C177.493 30.9746 177.747 30.6146 177.907 30.1559C178.067 29.6972 178.147 29.1692 178.147 28.5719C178.147 27.9746 178.064 27.4466 177.899 26.9879C177.739 26.5292 177.488 26.1719 177.147 25.9159C176.811 25.6599 176.381 25.5319 175.859 25.5319C175.304 25.5319 174.848 25.6679 174.491 25.9399C174.133 26.2119 173.867 26.5772 173.691 27.0359C173.52 27.4946 173.435 28.0066 173.435 28.5719C173.435 29.1426 173.52 29.6599 173.691 30.1239C173.867 30.5826 174.128 30.9479 174.475 31.2199C174.827 31.4919 175.269 31.6279 175.803 31.6279ZM178.147 32.8999V26.6839H177.955V21.3799H179.635V32.8999H178.147ZM185.625 33.1399C184.761 33.1399 184.012 32.9452 183.377 32.5559C182.743 32.1666 182.252 31.6306 181.905 30.9479C181.564 30.2599 181.393 29.4679 181.393 28.5719C181.393 27.6706 181.569 26.8786 181.921 26.1959C182.273 25.5079 182.767 24.9746 183.401 24.5959C184.036 24.2119 184.777 24.0199 185.625 24.0199C186.489 24.0199 187.239 24.2146 187.873 24.6039C188.508 24.9932 188.999 25.5292 189.345 26.2119C189.692 26.8946 189.865 27.6812 189.865 28.5719C189.865 29.4732 189.689 30.2679 189.337 30.9559C188.991 31.6386 188.5 32.1746 187.865 32.5639C187.231 32.9479 186.484 33.1399 185.625 33.1399ZM185.625 31.5639C186.452 31.5639 187.068 31.2866 187.473 30.7319C187.884 30.1719 188.089 29.4519 188.089 28.5719C188.089 27.6706 187.881 26.9506 187.465 26.4119C187.055 25.8679 186.441 25.5959 185.625 25.5959C185.065 25.5959 184.604 25.7239 184.241 25.9799C183.879 26.2306 183.609 26.5799 183.433 27.0279C183.257 27.4706 183.169 27.9852 183.169 28.5719C183.169 29.4786 183.377 30.2039 183.793 30.7479C184.209 31.2919 184.82 31.5639 185.625 31.5639ZM193.151 32.8999L190.511 24.2519L192.167 24.2599L193.975 30.1879L195.799 24.2599H197.239L199.063 30.1879L200.871 24.2599H202.519L199.879 32.8999H198.535L196.519 26.6439L194.495 32.8999H193.151ZM210.015 32.8999V28.6519C210.015 28.3159 209.986 27.9719 209.927 27.6199C209.874 27.2626 209.767 26.9319 209.607 26.6279C209.453 26.3239 209.231 26.0786 208.943 25.8919C208.661 25.7052 208.29 25.6119 207.831 25.6119C207.533 25.6119 207.25 25.6626 206.983 25.7639C206.717 25.8599 206.482 26.0172 206.279 26.2359C206.082 26.4546 205.925 26.7426 205.807 27.0999C205.695 27.4572 205.639 27.8919 205.639 28.4039L204.599 28.0119C204.599 27.2279 204.746 26.5372 205.039 25.9399C205.333 25.3372 205.754 24.8679 206.303 24.5319C206.853 24.1959 207.517 24.0279 208.295 24.0279C208.893 24.0279 209.394 24.1239 209.799 24.3159C210.205 24.5079 210.533 24.7612 210.783 25.0759C211.039 25.3852 211.234 25.7239 211.367 26.0919C211.501 26.4599 211.591 26.8199 211.639 27.1719C211.687 27.5239 211.711 27.8332 211.711 28.0999V32.8999H210.015ZM203.943 32.8999V24.2599H205.439V26.7559H205.639V32.8999H203.943ZM213.955 32.8999V21.1399H215.627V32.8999H213.955ZM221.781 33.1399C220.917 33.1399 220.168 32.9452 219.533 32.5559C218.899 32.1666 218.408 31.6306 218.061 30.9479C217.72 30.2599 217.549 29.4679 217.549 28.5719C217.549 27.6706 217.725 26.8786 218.077 26.1959C218.429 25.5079 218.923 24.9746 219.557 24.5959C220.192 24.2119 220.933 24.0199 221.781 24.0199C222.645 24.0199 223.395 24.2146 224.029 24.6039C224.664 24.9932 225.155 25.5292 225.501 26.2119C225.848 26.8946 226.021 27.6812 226.021 28.5719C226.021 29.4732 225.845 30.2679 225.493 30.9559C225.147 31.6386 224.656 32.1746 224.021 32.5639C223.387 32.9479 222.64 33.1399 221.781 33.1399ZM221.781 31.5639C222.608 31.5639 223.224 31.2866 223.629 30.7319C224.04 30.1719 224.245 29.4519 224.245 28.5719C224.245 27.6706 224.037 26.9506 223.621 26.4119C223.211 25.8679 222.597 25.5959 221.781 25.5959C221.221 25.5959 220.76 25.7239 220.397 25.9799C220.035 26.2306 219.765 26.5799 219.589 27.0279C219.413 27.4706 219.325 27.9852 219.325 28.5719C219.325 29.4786 219.533 30.2039 219.949 30.7479C220.365 31.2919 220.976 31.5639 221.781 31.5639ZM230.219 33.1399C229.579 33.1399 229.043 33.0226 228.611 32.7879C228.179 32.5479 227.851 32.2332 227.627 31.8439C227.409 31.4492 227.299 31.0172 227.299 30.5479C227.299 30.1106 227.377 29.7266 227.531 29.3959C227.686 29.0652 227.915 28.7852 228.219 28.5559C228.523 28.3212 228.897 28.1319 229.339 27.9879C229.723 27.8759 230.158 27.7772 230.643 27.6919C231.129 27.6066 231.638 27.5266 232.171 27.4519C232.71 27.3772 233.243 27.3026 233.771 27.2279L233.163 27.5639C233.174 26.8866 233.03 26.3852 232.731 26.0599C232.438 25.7292 231.931 25.5639 231.211 25.5639C230.758 25.5639 230.342 25.6706 229.963 25.8839C229.585 26.0919 229.321 26.4386 229.171 26.9239L227.611 26.4439C227.825 25.7026 228.23 25.1132 228.827 24.6759C229.43 24.2386 230.23 24.0199 231.227 24.0199C232.001 24.0199 232.673 24.1532 233.243 24.4199C233.819 24.6812 234.241 25.0972 234.507 25.6679C234.646 25.9506 234.731 26.2492 234.763 26.5639C234.795 26.8786 234.811 27.2172 234.811 27.5799V32.8999H233.331V30.9239L233.619 31.1799C233.262 31.8412 232.806 32.3346 232.251 32.6599C231.702 32.9799 231.025 33.1399 230.219 33.1399ZM230.515 31.7719C230.99 31.7719 231.398 31.6892 231.739 31.5239C232.081 31.3532 232.355 31.1372 232.563 30.8759C232.771 30.6146 232.907 30.3426 232.971 30.0599C233.062 29.8039 233.113 29.5159 233.123 29.1959C233.139 28.8759 233.147 28.6199 233.147 28.4279L233.691 28.6279C233.163 28.7079 232.683 28.7799 232.251 28.8439C231.819 28.9079 231.427 28.9719 231.075 29.0359C230.729 29.0946 230.419 29.1666 230.147 29.2519C229.918 29.3319 229.713 29.4279 229.531 29.5399C229.355 29.6519 229.214 29.7879 229.107 29.9479C229.006 30.1079 228.955 30.3026 228.955 30.5319C228.955 30.7559 229.011 30.9639 229.123 31.1559C229.235 31.3426 229.406 31.4919 229.635 31.6039C229.865 31.7159 230.158 31.7719 230.515 31.7719ZM240.321 33.1399C239.515 33.1399 238.819 32.9399 238.233 32.5399C237.651 32.1399 237.201 31.5959 236.881 30.9079C236.566 30.2146 236.409 29.4359 236.409 28.5719C236.409 27.7026 236.569 26.9266 236.889 26.2439C237.209 25.5559 237.662 25.0146 238.249 24.6199C238.841 24.2199 239.542 24.0199 240.353 24.0199C241.169 24.0199 241.854 24.2199 242.409 24.6199C242.969 25.0146 243.39 25.5559 243.673 26.2439C243.961 26.9319 244.105 27.7079 244.105 28.5719C244.105 29.4359 243.961 30.2119 243.673 30.8999C243.385 31.5879 242.961 32.1346 242.401 32.5399C241.841 32.9399 241.147 33.1399 240.321 33.1399ZM240.553 31.6279C241.102 31.6279 241.55 31.4972 241.897 31.2359C242.243 30.9746 242.497 30.6146 242.657 30.1559C242.817 29.6972 242.897 29.1692 242.897 28.5719C242.897 27.9746 242.814 27.4466 242.649 26.9879C242.489 26.5292 242.238 26.1719 241.897 25.9159C241.561 25.6599 241.131 25.5319 240.609 25.5319C240.054 25.5319 239.598 25.6679 239.241 25.9399C238.883 26.2119 238.617 26.5772 238.441 27.0359C238.27 27.4946 238.185 28.0066 238.185 28.5719C238.185 29.1426 238.27 29.6599 238.441 30.1239C238.617 30.5826 238.878 30.9479 239.225 31.2199C239.577 31.4919 240.019 31.6279 240.553 31.6279ZM242.897 32.8999V26.6839H242.705V21.3799H244.385V32.8999H242.897ZM260.178 32.8999L260.186 27.5159C260.186 26.8919 260.026 26.4066 259.706 26.0599C259.386 25.7079 258.965 25.5319 258.442 25.5319C258.122 25.5319 257.829 25.6066 257.562 25.7559C257.301 25.8999 257.088 26.1186 256.922 26.4119C256.762 26.6999 256.682 27.0626 256.682 27.4999L255.874 27.0919C255.864 26.4839 255.992 25.9506 256.258 25.4919C256.53 25.0332 256.898 24.6786 257.362 24.4279C257.826 24.1719 258.346 24.0439 258.922 24.0439C259.856 24.0439 260.578 24.3239 261.09 24.8839C261.602 25.4439 261.858 26.1879 261.858 27.1159L261.85 32.8999H260.178ZM249.818 32.8999V24.2599H251.306V26.7559H251.498V32.8999H249.818ZM255.002 32.8999L255.01 27.5479C255.01 26.9186 254.85 26.4252 254.53 26.0679C254.216 25.7106 253.792 25.5319 253.258 25.5319C252.73 25.5319 252.304 25.7132 251.978 26.0759C251.658 26.4386 251.498 26.9132 251.498 27.4999L250.698 26.9879C250.698 26.4226 250.834 25.9186 251.106 25.4759C251.378 25.0332 251.746 24.6839 252.21 24.4279C252.674 24.1719 253.2 24.0439 253.786 24.0439C254.4 24.0439 254.922 24.1746 255.354 24.4359C255.786 24.6919 256.114 25.0519 256.338 25.5159C256.568 25.9799 256.682 26.5186 256.682 27.1319L256.674 32.8999H255.002ZM264.791 36.7399L266.463 32.1879L266.487 33.5319L262.719 24.2599H264.463L267.279 31.4199H266.767L269.455 24.2599H271.151L266.383 36.7399H264.791ZM30.864 52.8999C30.32 53.0066 29.7867 53.0519 29.264 53.0359C28.7414 53.0199 28.2747 52.9186 27.864 52.7319C27.4534 52.5452 27.144 52.2519 26.936 51.8519C26.7494 51.4946 26.648 51.1319 26.632 50.7639C26.6214 50.3906 26.616 49.9692 26.616 49.4999V41.8599H28.296V49.4199C28.296 49.7666 28.2987 50.0679 28.304 50.3239C28.3147 50.5799 28.3707 50.7959 28.472 50.9719C28.664 51.3026 28.968 51.4919 29.384 51.5399C29.8054 51.5826 30.2987 51.5639 30.864 51.4839V52.8999ZM24.96 45.6039V44.2599H30.864V45.6039H24.96ZM32.6857 52.8999V44.2599H34.1737V46.3559L33.9657 46.0839C34.0723 45.8066 34.211 45.5532 34.3817 45.3239C34.5523 45.0892 34.7497 44.8972 34.9737 44.7479C35.1923 44.5879 35.435 44.4652 35.7017 44.3799C35.9737 44.2892 36.251 44.2359 36.5337 44.2199C36.8163 44.1986 37.0883 44.2119 37.3497 44.2599V45.8279C37.067 45.7532 36.7523 45.7319 36.4057 45.7639C36.0643 45.7959 35.7497 45.9052 35.4617 46.0919C35.1897 46.2679 34.9737 46.4812 34.8137 46.7319C34.659 46.9826 34.547 47.2626 34.4777 47.5719C34.4083 47.8759 34.3737 48.1986 34.3737 48.5399V52.8999H32.6857ZM41.0632 53.1399C40.4232 53.1399 39.8872 53.0226 39.4552 52.7879C39.0232 52.5479 38.6952 52.2332 38.4712 51.8439C38.2525 51.4492 38.1432 51.0172 38.1432 50.5479C38.1432 50.1106 38.2205 49.7266 38.3752 49.3959C38.5298 49.0652 38.7592 48.7852 39.0632 48.5559C39.3672 48.3212 39.7405 48.1319 40.1832 47.9879C40.5672 47.8759 41.0018 47.7772 41.4872 47.6919C41.9725 47.6066 42.4818 47.5266 43.0152 47.4519C43.5538 47.3772 44.0872 47.3026 44.6152 47.2279L44.0072 47.5639C44.0178 46.8866 43.8738 46.3852 43.5752 46.0599C43.2818 45.7292 42.7752 45.5639 42.0552 45.5639C41.6018 45.5639 41.1858 45.6706 40.8072 45.8839C40.4285 46.0919 40.1645 46.4386 40.0152 46.9239L38.4552 46.4439C38.6685 45.7026 39.0738 45.1132 39.6712 44.6759C40.2738 44.2386 41.0738 44.0199 42.0712 44.0199C42.8445 44.0199 43.5165 44.1532 44.0872 44.4199C44.6632 44.6812 45.0845 45.0972 45.3512 45.6679C45.4898 45.9506 45.5752 46.2492 45.6072 46.5639C45.6392 46.8786 45.6552 47.2172 45.6552 47.5799V52.8999H44.1752V50.9239L44.4632 51.1799C44.1058 51.8412 43.6498 52.3346 43.0952 52.6599C42.5458 52.9799 41.8685 53.1399 41.0632 53.1399ZM41.3592 51.7719C41.8338 51.7719 42.2418 51.6892 42.5832 51.5239C42.9245 51.3532 43.1992 51.1372 43.4072 50.8759C43.6152 50.6146 43.7512 50.3426 43.8152 50.0599C43.9058 49.8039 43.9565 49.5159 43.9672 49.1959C43.9832 48.8759 43.9912 48.6199 43.9912 48.4279L44.5352 48.6279C44.0072 48.7079 43.5272 48.7799 43.0952 48.8439C42.6632 48.9079 42.2712 48.9719 41.9192 49.0359C41.5725 49.0946 41.2632 49.1666 40.9912 49.2519C40.7618 49.3319 40.5565 49.4279 40.3752 49.5399C40.1992 49.6519 40.0578 49.7879 39.9512 49.9479C39.8498 50.1079 39.7992 50.3026 39.7992 50.5319C39.7992 50.7559 39.8552 50.9639 39.9672 51.1559C40.0792 51.3426 40.2498 51.4919 40.4792 51.6039C40.7085 51.7159 41.0018 51.7719 41.3592 51.7719ZM53.7965 52.8999V48.6519C53.7965 48.3159 53.7672 47.9719 53.7085 47.6199C53.6552 47.2626 53.5485 46.9319 53.3885 46.6279C53.2339 46.3239 53.0125 46.0786 52.7245 45.8919C52.4419 45.7052 52.0712 45.6119 51.6125 45.6119C51.3139 45.6119 51.0312 45.6626 50.7645 45.7639C50.4979 45.8599 50.2632 46.0172 50.0605 46.2359C49.8632 46.4546 49.7059 46.7426 49.5885 47.0999C49.4765 47.4572 49.4205 47.8919 49.4205 48.4039L48.3805 48.0119C48.3805 47.2279 48.5272 46.5372 48.8205 45.9399C49.1139 45.3372 49.5352 44.8679 50.0845 44.5319C50.6339 44.1959 51.2979 44.0279 52.0765 44.0279C52.6739 44.0279 53.1752 44.1239 53.5805 44.3159C53.9859 44.5079 54.3139 44.7612 54.5645 45.0759C54.8205 45.3852 55.0152 45.7239 55.1485 46.0919C55.2819 46.4599 55.3725 46.8199 55.4205 47.1719C55.4685 47.5239 55.4925 47.8332 55.4925 48.0999V52.8999H53.7965ZM47.7245 52.8999V44.2599H49.2205V46.7559H49.4205V52.8999H47.7245ZM60.8803 53.1319C59.8296 53.1319 58.9736 52.8999 58.3123 52.4359C57.651 51.9719 57.2456 51.3186 57.0963 50.4759L58.8083 50.2119C58.915 50.6599 59.1603 51.0146 59.5443 51.2759C59.9336 51.5319 60.4163 51.6599 60.9923 51.6599C61.515 51.6599 61.923 51.5532 62.2163 51.3399C62.515 51.1266 62.6643 50.8332 62.6643 50.4599C62.6643 50.2412 62.611 50.0652 62.5043 49.9319C62.403 49.7932 62.187 49.6626 61.8563 49.5399C61.5256 49.4172 61.0216 49.2652 60.3443 49.0839C59.603 48.8919 59.0136 48.6866 58.5763 48.4679C58.1443 48.2439 57.835 47.9852 57.6483 47.6919C57.467 47.3932 57.3763 47.0332 57.3763 46.6119C57.3763 46.0892 57.515 45.6332 57.7923 45.2439C58.0696 44.8546 58.459 44.5532 58.9603 44.3399C59.467 44.1266 60.059 44.0199 60.7363 44.0199C61.3976 44.0199 61.987 44.1239 62.5043 44.3319C63.0216 44.5399 63.4403 44.8359 63.7603 45.2199C64.0803 45.5986 64.2723 46.0439 64.3363 46.5559L62.6243 46.8679C62.5656 46.4519 62.371 46.1239 62.0403 45.8839C61.7096 45.6439 61.2803 45.5132 60.7523 45.4919C60.2456 45.4706 59.835 45.5559 59.5203 45.7479C59.2056 45.9346 59.0483 46.1932 59.0483 46.5239C59.0483 46.7159 59.107 46.8786 59.2243 47.0119C59.347 47.1452 59.5816 47.2732 59.9283 47.3959C60.275 47.5186 60.787 47.6652 61.4643 47.8359C62.1896 48.0226 62.7656 48.2306 63.1923 48.4599C63.619 48.6839 63.923 48.9532 64.1043 49.2679C64.291 49.5772 64.3843 49.9532 64.3843 50.3959C64.3843 51.2492 64.0723 51.9186 63.4483 52.4039C62.8296 52.8892 61.9736 53.1319 60.8803 53.1319ZM68.5944 53.1399C67.9544 53.1399 67.4184 53.0226 66.9864 52.7879C66.5544 52.5479 66.2264 52.2332 66.0024 51.8439C65.7838 51.4492 65.6744 51.0172 65.6744 50.5479C65.6744 50.1106 65.7518 49.7266 65.9064 49.3959C66.0611 49.0652 66.2904 48.7852 66.5944 48.5559C66.8984 48.3212 67.2718 48.1319 67.7144 47.9879C68.0984 47.8759 68.5331 47.7772 69.0184 47.6919C69.5038 47.6066 70.0131 47.5266 70.5464 47.4519C71.0851 47.3772 71.6184 47.3026 72.1464 47.2279L71.5384 47.5639C71.5491 46.8866 71.4051 46.3852 71.1064 46.0599C70.8131 45.7292 70.3064 45.5639 69.5864 45.5639C69.1331 45.5639 68.7171 45.6706 68.3384 45.8839C67.9598 46.0919 67.6958 46.4386 67.5464 46.9239L65.9864 46.4439C66.1998 45.7026 66.6051 45.1132 67.2024 44.6759C67.8051 44.2386 68.6051 44.0199 69.6024 44.0199C70.3758 44.0199 71.0478 44.1532 71.6184 44.4199C72.1944 44.6812 72.6158 45.0972 72.8824 45.6679C73.0211 45.9506 73.1064 46.2492 73.1384 46.5639C73.1704 46.8786 73.1864 47.2172 73.1864 47.5799V52.8999H71.7064V50.9239L71.9944 51.1799C71.6371 51.8412 71.1811 52.3346 70.6264 52.6599C70.0771 52.9799 69.3998 53.1399 68.5944 53.1399ZM68.8904 51.7719C69.3651 51.7719 69.7731 51.6892 70.1144 51.5239C70.4558 51.3532 70.7304 51.1372 70.9384 50.8759C71.1464 50.6146 71.2824 50.3426 71.3464 50.0599C71.4371 49.8039 71.4878 49.5159 71.4984 49.1959C71.5144 48.8759 71.5224 48.6199 71.5224 48.4279L72.0664 48.6279C71.5384 48.7079 71.0584 48.7799 70.6264 48.8439C70.1944 48.9079 69.8024 48.9719 69.4504 49.0359C69.1038 49.0946 68.7944 49.1666 68.5224 49.2519C68.2931 49.3319 68.0878 49.4279 67.9064 49.5399C67.7304 49.6519 67.5891 49.7879 67.4824 49.9479C67.3811 50.1079 67.3304 50.3026 67.3304 50.5319C67.3304 50.7559 67.3864 50.9639 67.4984 51.1559C67.6104 51.3426 67.7811 51.4919 68.0104 51.6039C68.2398 51.7159 68.5331 51.7719 68.8904 51.7719ZM78.9598 53.1399C78.0745 53.1399 77.3225 52.9426 76.7038 52.5479C76.0851 52.1532 75.6105 51.6119 75.2798 50.9239C74.9545 50.2359 74.7891 49.4546 74.7838 48.5799C74.7891 47.6892 74.9598 46.9026 75.2958 46.2199C75.6318 45.5319 76.1118 44.9932 76.7358 44.6039C77.3598 44.2146 78.1091 44.0199 78.9838 44.0199C79.9278 44.0199 80.7331 44.2546 81.3998 44.7239C82.0718 45.1932 82.5145 45.8359 82.7278 46.6519L81.0638 47.1319C80.8985 46.6466 80.6265 46.2706 80.2478 46.0039C79.8745 45.7319 79.4451 45.5959 78.9598 45.5959C78.4105 45.5959 77.9598 45.7266 77.6078 45.9879C77.2558 46.2439 76.9945 46.5959 76.8238 47.0439C76.6531 47.4919 76.5651 48.0039 76.5598 48.5799C76.5651 49.4706 76.7678 50.1906 77.1678 50.7399C77.5731 51.2892 78.1705 51.5639 78.9598 51.5639C79.4985 51.5639 79.9331 51.4412 80.2638 51.1959C80.5998 50.9452 80.8558 50.5879 81.0318 50.1239L82.7278 50.5239C82.4451 51.3666 81.9785 52.0146 81.3278 52.4679C80.6771 52.9159 79.8878 53.1399 78.9598 53.1399ZM89.3015 52.8999C88.7575 53.0066 88.2242 53.0519 87.7015 53.0359C87.1789 53.0199 86.7122 52.9186 86.3015 52.7319C85.8909 52.5452 85.5815 52.2519 85.3735 51.8519C85.1869 51.4946 85.0855 51.1319 85.0695 50.7639C85.0589 50.3906 85.0535 49.9692 85.0535 49.4999V41.8599H86.7335V49.4199C86.7335 49.7666 86.7362 50.0679 86.7415 50.3239C86.7522 50.5799 86.8082 50.7959 86.9095 50.9719C87.1015 51.3026 87.4055 51.4919 87.8215 51.5399C88.2429 51.5826 88.7362 51.5639 89.3015 51.4839V52.8999ZM83.3975 45.6039V44.2599H89.3015V45.6039H83.3975ZM91.2832 42.8439V41.2199H92.9552V42.8439H91.2832ZM91.2832 52.8999V44.2599H92.9552V52.8999H91.2832ZM99.1095 53.1399C98.2455 53.1399 97.4962 52.9452 96.8615 52.5559C96.2269 52.1666 95.7362 51.6306 95.3895 50.9479C95.0482 50.2599 94.8775 49.4679 94.8775 48.5719C94.8775 47.6706 95.0535 46.8786 95.4055 46.1959C95.7575 45.5079 96.2509 44.9746 96.8855 44.5959C97.5202 44.2119 98.2615 44.0199 99.1095 44.0199C99.9735 44.0199 100.723 44.2146 101.358 44.6039C101.992 44.9932 102.483 45.5292 102.83 46.2119C103.176 46.8946 103.35 47.6812 103.35 48.5719C103.35 49.4732 103.174 50.2679 102.822 50.9559C102.475 51.6386 101.984 52.1746 101.35 52.5639C100.715 52.9479 99.9682 53.1399 99.1095 53.1399ZM99.1095 51.5639C99.9362 51.5639 100.552 51.2866 100.958 50.7319C101.368 50.1719 101.574 49.4519 101.574 48.5719C101.574 47.6706 101.366 46.9506 100.95 46.4119C100.539 45.8679 99.9255 45.5959 99.1095 45.5959C98.5495 45.5959 98.0882 45.7239 97.7255 45.9799C97.3629 46.2306 97.0935 46.5799 96.9175 47.0279C96.7415 47.4706 96.6535 47.9852 96.6535 48.5719C96.6535 49.4786 96.8615 50.2039 97.2775 50.7479C97.6935 51.2919 98.3042 51.5639 99.1095 51.5639ZM111.172 52.8999V48.6519C111.172 48.3159 111.142 47.9719 111.084 47.6199C111.03 47.2626 110.924 46.9319 110.764 46.6279C110.609 46.3239 110.388 46.0786 110.1 45.8919C109.817 45.7052 109.446 45.6119 108.988 45.6119C108.689 45.6119 108.406 45.6626 108.14 45.7639C107.873 45.8599 107.638 46.0172 107.436 46.2359C107.238 46.4546 107.081 46.7426 106.964 47.0999C106.852 47.4572 106.796 47.8919 106.796 48.4039L105.756 48.0119C105.756 47.2279 105.902 46.5372 106.196 45.9399C106.489 45.3372 106.91 44.8679 107.46 44.5319C108.009 44.1959 108.673 44.0279 109.452 44.0279C110.049 44.0279 110.55 44.1239 110.956 44.3159C111.361 44.5079 111.689 44.7612 111.94 45.0759C112.196 45.3852 112.39 45.7239 112.524 46.0919C112.657 46.4599 112.748 46.8199 112.796 47.1719C112.844 47.5239 112.868 47.8332 112.868 48.0999V52.8999H111.172ZM105.1 52.8999V44.2599H106.596V46.7559H106.796V52.8999H105.1ZM124.218 52.8999V48.6519C124.218 48.3159 124.189 47.9719 124.13 47.6199C124.077 47.2626 123.97 46.9319 123.81 46.6279C123.656 46.3239 123.434 46.0786 123.146 45.8919C122.864 45.7052 122.493 45.6119 122.034 45.6119C121.736 45.6119 121.453 45.6626 121.186 45.7639C120.92 45.8599 120.685 46.0172 120.482 46.2359C120.285 46.4546 120.128 46.7426 120.01 47.0999C119.898 47.4572 119.842 47.8919 119.842 48.4039L118.802 48.0119C118.802 47.2279 118.949 46.5372 119.242 45.9399C119.536 45.3372 119.957 44.8679 120.506 44.5319C121.056 44.1959 121.72 44.0279 122.498 44.0279C123.096 44.0279 123.597 44.1239 124.002 44.3159C124.408 44.5079 124.736 44.7612 124.986 45.0759C125.242 45.3852 125.437 45.7239 125.57 46.0919C125.704 46.4599 125.794 46.8199 125.842 47.1719C125.89 47.5239 125.914 47.8332 125.914 48.0999V52.8999H124.218ZM118.146 52.8999V41.3799H119.642V47.5959H119.842V52.8999H118.146ZM128.158 42.8439V41.2199H129.83V42.8439H128.158ZM128.158 52.8999V44.2599H129.83V52.8999H128.158ZM135.537 53.1319C134.486 53.1319 133.63 52.8999 132.969 52.4359C132.307 51.9719 131.902 51.3186 131.753 50.4759L133.465 50.2119C133.571 50.6599 133.817 51.0146 134.201 51.2759C134.59 51.5319 135.073 51.6599 135.649 51.6599C136.171 51.6599 136.579 51.5532 136.873 51.3399C137.171 51.1266 137.321 50.8332 137.321 50.4599C137.321 50.2412 137.267 50.0652 137.161 49.9319C137.059 49.7932 136.843 49.6626 136.513 49.5399C136.182 49.4172 135.678 49.2652 135.001 49.0839C134.259 48.8919 133.67 48.6866 133.233 48.4679C132.801 48.2439 132.491 47.9852 132.305 47.6919C132.123 47.3932 132.033 47.0332 132.033 46.6119C132.033 46.0892 132.171 45.6332 132.449 45.2439C132.726 44.8546 133.115 44.5532 133.617 44.3399C134.123 44.1266 134.715 44.0199 135.393 44.0199C136.054 44.0199 136.643 44.1239 137.161 44.3319C137.678 44.5399 138.097 44.8359 138.417 45.2199C138.737 45.5986 138.929 46.0439 138.993 46.5559L137.281 46.8679C137.222 46.4519 137.027 46.1239 136.697 45.8839C136.366 45.6439 135.937 45.5132 135.409 45.4919C134.902 45.4706 134.491 45.5559 134.177 45.7479C133.862 45.9346 133.705 46.1932 133.705 46.5239C133.705 46.7159 133.763 46.8786 133.881 47.0119C134.003 47.1452 134.238 47.2732 134.585 47.3959C134.931 47.5186 135.443 47.6652 136.121 47.8359C136.846 48.0226 137.422 48.2306 137.849 48.4599C138.275 48.6839 138.579 48.9532 138.761 49.2679C138.947 49.5772 139.041 49.9532 139.041 50.3959C139.041 51.2492 138.729 51.9186 138.105 52.4039C137.486 52.8892 136.63 53.1319 135.537 53.1319ZM145.755 52.8999C145.211 53.0066 144.677 53.0519 144.155 53.0359C143.632 53.0199 143.165 52.9186 142.755 52.7319C142.344 52.5452 142.035 52.2519 141.827 51.8519C141.64 51.4946 141.539 51.1319 141.523 50.7639C141.512 50.3906 141.507 49.9692 141.507 49.4999V41.8599H143.187V49.4199C143.187 49.7666 143.189 50.0679 143.195 50.3239C143.205 50.5799 143.261 50.7959 143.363 50.9719C143.555 51.3026 143.859 51.4919 144.275 51.5399C144.696 51.5826 145.189 51.5639 145.755 51.4839V52.8999ZM139.851 45.6039V44.2599H145.755V45.6039H139.851ZM150.938 53.1399C150.074 53.1399 149.324 52.9452 148.69 52.5559C148.055 52.1666 147.564 51.6306 147.218 50.9479C146.876 50.2599 146.706 49.4679 146.706 48.5719C146.706 47.6706 146.882 46.8786 147.234 46.1959C147.586 45.5079 148.079 44.9746 148.714 44.5959C149.348 44.2119 150.09 44.0199 150.938 44.0199C151.802 44.0199 152.551 44.2146 153.186 44.6039C153.82 44.9932 154.311 45.5292 154.658 46.2119C155.004 46.8946 155.178 47.6812 155.178 48.5719C155.178 49.4732 155.002 50.2679 154.65 50.9559C154.303 51.6386 153.812 52.1746 153.178 52.5639C152.543 52.9479 151.796 53.1399 150.938 53.1399ZM150.938 51.5639C151.764 51.5639 152.38 51.2866 152.786 50.7319C153.196 50.1719 153.402 49.4519 153.402 48.5719C153.402 47.6706 153.194 46.9506 152.778 46.4119C152.367 45.8679 151.754 45.5959 150.938 45.5959C150.378 45.5959 149.916 45.7239 149.554 45.9799C149.191 46.2306 148.922 46.5799 148.746 47.0279C148.57 47.4706 148.482 47.9852 148.482 48.5719C148.482 49.4786 148.69 50.2039 149.106 50.7479C149.522 51.2919 150.132 51.5639 150.938 51.5639ZM156.936 52.8999V44.2599H158.424V46.3559L158.216 46.0839C158.322 45.8066 158.461 45.5532 158.632 45.3239C158.802 45.0892 159 44.8972 159.224 44.7479C159.442 44.5879 159.685 44.4652 159.952 44.3799C160.224 44.2892 160.501 44.2359 160.784 44.2199C161.066 44.1986 161.338 44.2119 161.6 44.2599V45.8279C161.317 45.7532 161.002 45.7319 160.656 45.7639C160.314 45.7959 160 45.9052 159.712 46.0919C159.44 46.2679 159.224 46.4812 159.064 46.7319C158.909 46.9826 158.797 47.2626 158.728 47.5719C158.658 47.8759 158.624 48.1986 158.624 48.5399V52.8999H156.936ZM164.072 56.7399L165.744 52.1879L165.768 53.5319L162 44.2599H163.744L166.56 51.4199H166.048L168.736 44.2599H170.432L165.664 56.7399H164.072ZM175.049 42.8439V41.2199H176.721V42.8439H175.049ZM175.049 52.8999V44.2599H176.721V52.8999H175.049ZM185.187 52.8999V48.6519C185.187 48.3159 185.158 47.9719 185.099 47.6199C185.046 47.2626 184.939 46.9319 184.779 46.6279C184.625 46.3239 184.403 46.0786 184.115 45.8919C183.833 45.7052 183.462 45.6119 183.003 45.6119C182.705 45.6119 182.422 45.6626 182.155 45.7639C181.889 45.8599 181.654 46.0172 181.451 46.2359C181.254 46.4546 181.097 46.7426 180.979 47.0999C180.867 47.4572 180.811 47.8919 180.811 48.4039L179.771 48.0119C179.771 47.2279 179.918 46.5372 180.211 45.9399C180.505 45.3372 180.926 44.8679 181.475 44.5319C182.025 44.1959 182.689 44.0279 183.467 44.0279C184.065 44.0279 184.566 44.1239 184.971 44.3159C185.377 44.5079 185.705 44.7612 185.955 45.0759C186.211 45.3852 186.406 45.7239 186.539 46.0919C186.673 46.4599 186.763 46.8199 186.811 47.1719C186.859 47.5239 186.883 47.8332 186.883 48.0999V52.8999H185.187ZM179.115 52.8999V44.2599H180.611V46.7559H180.811V52.8999H179.115ZM191.111 49.7719C191.111 49.3879 191.14 49.0279 191.199 48.6919C191.263 48.3559 191.38 48.0359 191.551 47.7319C191.695 47.4439 191.863 47.2119 192.055 47.0359C192.252 46.8546 192.466 46.6786 192.695 46.5079C192.93 46.3319 193.175 46.1079 193.431 45.8359C193.644 45.6012 193.786 45.3639 193.855 45.1239C193.93 44.8839 193.967 44.6252 193.967 44.3479C193.967 44.1452 193.943 43.9559 193.895 43.7799C193.847 43.6039 193.767 43.4519 193.655 43.3239C193.484 43.1106 193.268 42.9612 193.007 42.8759C192.746 42.7852 192.474 42.7399 192.191 42.7399C191.935 42.7399 191.69 42.7746 191.455 42.8439C191.226 42.9132 191.034 43.0199 190.879 43.1639C190.714 43.3026 190.591 43.4759 190.511 43.6839C190.436 43.8866 190.402 44.1079 190.407 44.3479H188.647C188.69 43.8466 188.818 43.3772 189.031 42.9399C189.244 42.5026 189.532 42.1479 189.895 41.8759C190.204 41.6306 190.556 41.4492 190.951 41.3319C191.346 41.2092 191.74 41.1479 192.135 41.1479C192.7 41.1479 193.234 41.2359 193.735 41.4119C194.242 41.5879 194.663 41.8732 194.999 42.2679C195.244 42.5452 195.428 42.8626 195.551 43.2199C195.679 43.5719 195.743 43.9372 195.743 44.3159C195.743 44.8226 195.634 45.2919 195.415 45.7239C195.202 46.1559 194.927 46.5506 194.591 46.9079C194.415 47.0946 194.236 47.2652 194.055 47.4199C193.874 47.5692 193.706 47.7159 193.551 47.8599C193.396 48.0039 193.268 48.1612 193.167 48.3319C193.023 48.5772 192.94 48.7986 192.919 48.9959C192.898 49.1879 192.887 49.4466 192.887 49.7719H191.111ZM191.119 52.8999V50.9639H192.887V52.8999H191.119Z" fill="white"/>
<rect x="305.6" y="19.0999" width="36" height="36" rx="18" fill="white" fill-opacity="0.05"/>
<g clip-path="url(#clip0_20005128_14380)">
<path d="M327.421 34.0103L323.6 37.8311L319.779 34.0103L318.6 35.1894L323.6 40.1894L328.6 35.1894L327.421 34.0103Z" fill="white"/>
</g>
<defs>
<clipPath id="clip0_20005128_14380">
<rect width="10" height="10" fill="white" transform="translate(318.6 32.0999)"/>
</clipPath>
</defs>
</svg>
