<svg width="367" height="76" viewBox="0 0 367 76" fill="none" xmlns="http://www.w3.org/2000/svg">
<mask id="path-1-inside-1_20005128_14401" fill="white">
<path d="M0 0.899902H366.4V75.2999H0V0.899902Z"/>
</mask>
<path d="M0 0.899902H366.4V75.2999H0V0.899902Z" fill="#131022"/>
<path d="M366.4 75.2999V76.0999H367.2V75.2999H366.4ZM0 75.2999H-0.8V76.0999H0V75.2999ZM365.6 0.899902V75.2999H367.2V0.899902H365.6ZM366.4 74.4999H0V76.0999H366.4V74.4999ZM0.8 75.2999V0.899902H-0.8V75.2999H0.8Z" fill="white" fill-opacity="0.15" mask="url(#path-1-inside-1_20005128_14401)"/>
<rect width="364.8" height="73.6" transform="translate(0.800049 0.899902)" fill="#131022"/>
<path d="M30.728 33.74C29.576 33.74 28.5947 33.4893 27.784 32.988C26.9734 32.4813 26.352 31.7773 25.92 30.876C25.4934 29.9747 25.28 28.9293 25.28 27.74C25.28 26.5507 25.4934 25.5053 25.92 24.604C26.352 23.7027 26.9734 23.0013 27.784 22.5C28.5947 21.9933 29.576 21.74 30.728 21.74C32.056 21.74 33.1547 22.076 34.024 22.748C34.8987 23.42 35.5067 24.324 35.848 25.46L34.152 25.916C33.928 25.1107 33.528 24.4787 32.952 24.02C32.3814 23.5613 31.64 23.332 30.728 23.332C29.912 23.332 29.232 23.516 28.688 23.884C28.144 24.252 27.7334 24.7667 27.456 25.428C27.184 26.0893 27.048 26.86 27.048 27.74C27.0427 28.62 27.176 29.3907 27.448 30.052C27.7254 30.7133 28.136 31.228 28.68 31.596C29.2294 31.964 29.912 32.148 30.728 32.148C31.64 32.148 32.3814 31.9187 32.952 31.46C33.528 30.996 33.928 30.364 34.152 29.564L35.848 30.02C35.5067 31.156 34.8987 32.06 34.024 32.732C33.1547 33.404 32.056 33.74 30.728 33.74ZM40.0475 33.74C39.4075 33.74 38.8715 33.6227 38.4395 33.388C38.0075 33.148 37.6795 32.8333 37.4555 32.444C37.2369 32.0493 37.1275 31.6173 37.1275 31.148C37.1275 30.7107 37.2049 30.3267 37.3595 29.996C37.5142 29.6653 37.7435 29.3853 38.0475 29.156C38.3515 28.9213 38.7249 28.732 39.1675 28.588C39.5515 28.476 39.9862 28.3773 40.4715 28.292C40.9569 28.2067 41.4662 28.1267 41.9995 28.052C42.5382 27.9773 43.0715 27.9027 43.5995 27.828L42.9915 28.164C43.0022 27.4867 42.8582 26.9853 42.5595 26.66C42.2662 26.3293 41.7595 26.164 41.0395 26.164C40.5862 26.164 40.1702 26.2707 39.7915 26.484C39.4129 26.692 39.1489 27.0387 38.9995 27.524L37.4395 27.044C37.6529 26.3027 38.0582 25.7133 38.6555 25.276C39.2582 24.8387 40.0582 24.62 41.0555 24.62C41.8289 24.62 42.5009 24.7533 43.0715 25.02C43.6475 25.2813 44.0689 25.6973 44.3355 26.268C44.4742 26.5507 44.5595 26.8493 44.5915 27.164C44.6235 27.4787 44.6395 27.8173 44.6395 28.18V33.5H43.1595V31.524L43.4475 31.78C43.0902 32.4413 42.6342 32.9347 42.0795 33.26C41.5302 33.58 40.8529 33.74 40.0475 33.74ZM40.3435 32.372C40.8182 32.372 41.2262 32.2893 41.5675 32.124C41.9089 31.9533 42.1835 31.7373 42.3915 31.476C42.5995 31.2147 42.7355 30.9427 42.7995 30.66C42.8902 30.404 42.9409 30.116 42.9515 29.796C42.9675 29.476 42.9755 29.22 42.9755 29.028L43.5195 29.228C42.9915 29.308 42.5115 29.38 42.0795 29.444C41.6475 29.508 41.2555 29.572 40.9035 29.636C40.5569 29.6947 40.2475 29.7667 39.9755 29.852C39.7462 29.932 39.5409 30.028 39.3595 30.14C39.1835 30.252 39.0422 30.388 38.9355 30.548C38.8342 30.708 38.7835 30.9027 38.7835 31.132C38.7835 31.356 38.8395 31.564 38.9515 31.756C39.0635 31.9427 39.2342 32.092 39.4635 32.204C39.6929 32.316 39.9862 32.372 40.3435 32.372ZM52.7809 33.5V29.252C52.7809 28.916 52.7516 28.572 52.6929 28.22C52.6396 27.8627 52.5329 27.532 52.3729 27.228C52.2183 26.924 51.9969 26.6787 51.7089 26.492C51.4263 26.3053 51.0556 26.212 50.5969 26.212C50.2983 26.212 50.0156 26.2627 49.7489 26.364C49.4823 26.46 49.2476 26.6173 49.0449 26.836C48.8476 27.0547 48.6903 27.3427 48.5729 27.7C48.4609 28.0573 48.4049 28.492 48.4049 29.004L47.3649 28.612C47.3649 27.828 47.5116 27.1373 47.8049 26.54C48.0983 25.9373 48.5196 25.468 49.0689 25.132C49.6183 24.796 50.2823 24.628 51.0609 24.628C51.6583 24.628 52.1596 24.724 52.5649 24.916C52.9703 25.108 53.2983 25.3613 53.5489 25.676C53.8049 25.9853 53.9996 26.324 54.1329 26.692C54.2663 27.06 54.3569 27.42 54.4049 27.772C54.4529 28.124 54.4769 28.4333 54.4769 28.7V33.5H52.7809ZM46.7089 33.5V24.86H48.2049V27.356H48.4049V33.5H46.7089ZM59.9238 33.5V21.98H61.5958V33.5H59.9238ZM70.8973 33.74C70.012 33.74 69.26 33.5427 68.6413 33.148C68.0226 32.7533 67.548 32.212 67.2173 31.524C66.892 30.836 66.7266 30.0547 66.7213 29.18C66.7266 28.2893 66.8973 27.5027 67.2333 26.82C67.5693 26.132 68.0493 25.5933 68.6733 25.204C69.2973 24.8147 70.0466 24.62 70.9213 24.62C71.8653 24.62 72.6706 24.8547 73.3373 25.324C74.0093 25.7933 74.452 26.436 74.6653 27.252L73.0013 27.732C72.836 27.2467 72.564 26.8707 72.1853 26.604C71.812 26.332 71.3826 26.196 70.8973 26.196C70.348 26.196 69.8973 26.3267 69.5453 26.588C69.1933 26.844 68.932 27.196 68.7613 27.644C68.5906 28.092 68.5026 28.604 68.4973 29.18C68.5026 30.0707 68.7053 30.7907 69.1053 31.34C69.5106 31.8893 70.108 32.164 70.8973 32.164C71.436 32.164 71.8706 32.0413 72.2013 31.796C72.5373 31.5453 72.7933 31.188 72.9693 30.724L74.6653 31.124C74.3826 31.9667 73.916 32.6147 73.2653 33.068C72.6146 33.516 71.8253 33.74 70.8973 33.74ZM76.295 33.5V24.86H77.783V26.956L77.575 26.684C77.6817 26.4067 77.8204 26.1533 77.991 25.924C78.1617 25.6893 78.359 25.4973 78.583 25.348C78.8017 25.188 79.0444 25.0653 79.311 24.98C79.583 24.8893 79.8604 24.836 80.143 24.82C80.4257 24.7987 80.6977 24.812 80.959 24.86V26.428C80.6764 26.3533 80.3617 26.332 80.015 26.364C79.6737 26.396 79.359 26.5053 79.071 26.692C78.799 26.868 78.583 27.0813 78.423 27.332C78.2684 27.5827 78.1564 27.8627 78.087 28.172C78.0177 28.476 77.983 28.7987 77.983 29.14V33.5H76.295ZM86.1583 33.74C85.2996 33.74 84.545 33.5533 83.8943 33.18C83.249 32.8013 82.745 32.276 82.3823 31.604C82.025 30.9267 81.8463 30.1427 81.8463 29.252C81.8463 28.308 82.0223 27.4893 82.3743 26.796C82.7316 26.1027 83.2276 25.5667 83.8623 25.188C84.497 24.8093 85.2356 24.62 86.0783 24.62C86.9583 24.62 87.7076 24.8253 88.3263 25.236C88.945 25.6413 89.4063 26.22 89.7103 26.972C90.0196 27.724 90.1423 28.6173 90.0783 29.652H88.4063V29.044C88.3956 28.0413 88.2036 27.3 87.8303 26.82C87.4623 26.34 86.8996 26.1 86.1423 26.1C85.305 26.1 84.6756 26.364 84.2543 26.892C83.833 27.42 83.6223 28.1827 83.6223 29.18C83.6223 30.1293 83.833 30.8653 84.2543 31.388C84.6756 31.9053 85.2836 32.164 86.0783 32.164C86.601 32.164 87.0516 32.0467 87.4303 31.812C87.8143 31.572 88.113 31.2307 88.3263 30.788L89.9663 31.308C89.6303 32.0813 89.121 32.6813 88.4383 33.108C87.7556 33.5293 86.9956 33.74 86.1583 33.74ZM83.0783 29.652V28.348H89.2463V29.652H83.0783ZM94.1569 33.74C93.5169 33.74 92.9809 33.6227 92.5489 33.388C92.1169 33.148 91.7889 32.8333 91.5649 32.444C91.3463 32.0493 91.2369 31.6173 91.2369 31.148C91.2369 30.7107 91.3143 30.3267 91.4689 29.996C91.6236 29.6653 91.8529 29.3853 92.1569 29.156C92.4609 28.9213 92.8343 28.732 93.2769 28.588C93.6609 28.476 94.0956 28.3773 94.5809 28.292C95.0663 28.2067 95.5756 28.1267 96.1089 28.052C96.6476 27.9773 97.1809 27.9027 97.7089 27.828L97.1009 28.164C97.1116 27.4867 96.9676 26.9853 96.6689 26.66C96.3756 26.3293 95.8689 26.164 95.1489 26.164C94.6956 26.164 94.2796 26.2707 93.9009 26.484C93.5223 26.692 93.2583 27.0387 93.1089 27.524L91.5489 27.044C91.7623 26.3027 92.1676 25.7133 92.7649 25.276C93.3676 24.8387 94.1676 24.62 95.1649 24.62C95.9383 24.62 96.6103 24.7533 97.1809 25.02C97.7569 25.2813 98.1783 25.6973 98.4449 26.268C98.5836 26.5507 98.6689 26.8493 98.7009 27.164C98.7329 27.4787 98.7489 27.8173 98.7489 28.18V33.5H97.2689V31.524L97.5569 31.78C97.1996 32.4413 96.7436 32.9347 96.1889 33.26C95.6396 33.58 94.9623 33.74 94.1569 33.74ZM94.4529 32.372C94.9276 32.372 95.3356 32.2893 95.6769 32.124C96.0183 31.9533 96.2929 31.7373 96.5009 31.476C96.7089 31.2147 96.8449 30.9427 96.9089 30.66C96.9996 30.404 97.0503 30.116 97.0609 29.796C97.0769 29.476 97.0849 29.22 97.0849 29.028L97.6289 29.228C97.1009 29.308 96.6209 29.38 96.1889 29.444C95.7569 29.508 95.3649 29.572 95.0129 29.636C94.6663 29.6947 94.3569 29.7667 94.0849 29.852C93.8556 29.932 93.6503 30.028 93.4689 30.14C93.2929 30.252 93.1516 30.388 93.0449 30.548C92.9436 30.708 92.8929 30.9027 92.8929 31.132C92.8929 31.356 92.9489 31.564 93.0609 31.756C93.1729 31.9427 93.3436 32.092 93.5729 32.204C93.8023 32.316 94.0956 32.372 94.4529 32.372ZM105.77 33.5C105.226 33.6067 104.693 33.652 104.17 33.636C103.648 33.62 103.181 33.5187 102.77 33.332C102.36 33.1453 102.05 32.852 101.842 32.452C101.656 32.0947 101.554 31.732 101.538 31.364C101.528 30.9907 101.522 30.5693 101.522 30.1V22.46H103.202V30.02C103.202 30.3667 103.205 30.668 103.21 30.924C103.221 31.18 103.277 31.396 103.378 31.572C103.57 31.9027 103.874 32.092 104.29 32.14C104.712 32.1827 105.205 32.164 105.77 32.084V33.5ZM99.8663 26.204V24.86H105.77V26.204H99.8663ZM111.033 33.74C110.175 33.74 109.42 33.5533 108.769 33.18C108.124 32.8013 107.62 32.276 107.257 31.604C106.9 30.9267 106.721 30.1427 106.721 29.252C106.721 28.308 106.897 27.4893 107.249 26.796C107.607 26.1027 108.103 25.5667 108.737 25.188C109.372 24.8093 110.111 24.62 110.953 24.62C111.833 24.62 112.583 24.8253 113.201 25.236C113.82 25.6413 114.281 26.22 114.585 26.972C114.895 27.724 115.017 28.6173 114.953 29.652H113.281V29.044C113.271 28.0413 113.079 27.3 112.705 26.82C112.337 26.34 111.775 26.1 111.017 26.1C110.18 26.1 109.551 26.364 109.129 26.892C108.708 27.42 108.497 28.1827 108.497 29.18C108.497 30.1293 108.708 30.8653 109.129 31.388C109.551 31.9053 110.159 32.164 110.953 32.164C111.476 32.164 111.927 32.0467 112.305 31.812C112.689 31.572 112.988 31.2307 113.201 30.788L114.841 31.308C114.505 32.0813 113.996 32.6813 113.313 33.108C112.631 33.5293 111.871 33.74 111.033 33.74ZM107.953 29.652V28.348H114.121V29.652H107.953ZM130.303 33.5L130.311 28.116C130.311 27.492 130.151 27.0067 129.831 26.66C129.511 26.308 129.09 26.132 128.567 26.132C128.247 26.132 127.954 26.2067 127.687 26.356C127.426 26.5 127.213 26.7187 127.047 27.012C126.887 27.3 126.807 27.6627 126.807 28.1L125.999 27.692C125.989 27.084 126.117 26.5507 126.383 26.092C126.655 25.6333 127.023 25.2787 127.487 25.028C127.951 24.772 128.471 24.644 129.047 24.644C129.981 24.644 130.703 24.924 131.215 25.484C131.727 26.044 131.983 26.788 131.983 27.716L131.975 33.5H130.303ZM119.943 33.5V24.86H121.431V27.356H121.623V33.5H119.943ZM125.127 33.5L125.135 28.148C125.135 27.5187 124.975 27.0253 124.655 26.668C124.341 26.3107 123.917 26.132 123.383 26.132C122.855 26.132 122.429 26.3133 122.103 26.676C121.783 27.0387 121.623 27.5133 121.623 28.1L120.823 27.588C120.823 27.0227 120.959 26.5187 121.231 26.076C121.503 25.6333 121.871 25.284 122.335 25.028C122.799 24.772 123.325 24.644 123.911 24.644C124.525 24.644 125.047 24.7747 125.479 25.036C125.911 25.292 126.239 25.652 126.463 26.116C126.693 26.58 126.807 27.1187 126.807 27.732L126.799 33.5H125.127ZM134.916 37.34L136.588 32.788L136.612 34.132L132.844 24.86H134.588L137.404 32.02H136.892L139.58 24.86H141.276L136.508 37.34H134.916ZM149.485 33.74C148.621 33.74 147.871 33.5453 147.237 33.156C146.602 32.7667 146.111 32.2307 145.765 31.548C145.423 30.86 145.253 30.068 145.253 29.172C145.253 28.2707 145.429 27.4787 145.781 26.796C146.133 26.108 146.626 25.5747 147.261 25.196C147.895 24.812 148.637 24.62 149.485 24.62C150.349 24.62 151.098 24.8147 151.733 25.204C152.367 25.5933 152.858 26.1293 153.205 26.812C153.551 27.4947 153.725 28.2813 153.725 29.172C153.725 30.0733 153.549 30.868 153.197 31.556C152.85 32.2387 152.359 32.7747 151.725 33.164C151.09 33.548 150.343 33.74 149.485 33.74ZM149.485 32.164C150.311 32.164 150.927 31.8867 151.333 31.332C151.743 30.772 151.949 30.052 151.949 29.172C151.949 28.2707 151.741 27.5507 151.325 27.012C150.914 26.468 150.301 26.196 149.485 26.196C148.925 26.196 148.463 26.324 148.101 26.58C147.738 26.8307 147.469 27.18 147.293 27.628C147.117 28.0707 147.029 28.5853 147.029 29.172C147.029 30.0787 147.237 30.804 147.653 31.348C148.069 31.892 148.679 32.164 149.485 32.164ZM157.01 33.5L154.37 24.852L156.026 24.86L157.834 30.788L159.658 24.86H161.098L162.922 30.788L164.73 24.86H166.378L163.738 33.5H162.394L160.378 27.244L158.354 33.5H157.01ZM173.875 33.5V29.252C173.875 28.916 173.845 28.572 173.787 28.22C173.733 27.8627 173.627 27.532 173.467 27.228C173.312 26.924 173.091 26.6787 172.803 26.492C172.52 26.3053 172.149 26.212 171.691 26.212C171.392 26.212 171.109 26.2627 170.843 26.364C170.576 26.46 170.341 26.6173 170.139 26.836C169.941 27.0547 169.784 27.3427 169.667 27.7C169.555 28.0573 169.499 28.492 169.499 29.004L168.459 28.612C168.459 27.828 168.605 27.1373 168.899 26.54C169.192 25.9373 169.613 25.468 170.163 25.132C170.712 24.796 171.376 24.628 172.155 24.628C172.752 24.628 173.253 24.724 173.659 24.916C174.064 25.108 174.392 25.3613 174.643 25.676C174.899 25.9853 175.093 26.324 175.227 26.692C175.36 27.06 175.451 27.42 175.499 27.772C175.547 28.124 175.571 28.4333 175.571 28.7V33.5H173.875ZM167.803 33.5V24.86H169.299V27.356H169.499V33.5H167.803ZM184.914 33.74C184.087 33.74 183.394 33.54 182.834 33.14C182.274 32.7347 181.85 32.188 181.562 31.5C181.274 30.812 181.13 30.036 181.13 29.172C181.13 28.308 181.271 27.532 181.554 26.844C181.842 26.156 182.263 25.6147 182.818 25.22C183.378 24.82 184.066 24.62 184.882 24.62C185.692 24.62 186.391 24.82 186.978 25.22C187.57 25.6147 188.026 26.156 188.346 26.844C188.666 27.5267 188.826 28.3027 188.826 29.172C188.826 30.036 188.666 30.8147 188.346 31.508C188.031 32.196 187.58 32.74 186.994 33.14C186.412 33.54 185.719 33.74 184.914 33.74ZM180.85 37.34V24.86H182.338V31.076H182.53V37.34H180.85ZM184.682 32.228C185.215 32.228 185.655 32.092 186.002 31.82C186.354 31.548 186.615 31.1827 186.786 30.724C186.962 30.26 187.05 29.7427 187.05 29.172C187.05 28.6067 186.962 28.0947 186.786 27.636C186.615 27.1773 186.351 26.812 185.994 26.54C185.636 26.268 185.18 26.132 184.626 26.132C184.103 26.132 183.671 26.26 183.33 26.516C182.994 26.772 182.743 27.1293 182.578 27.588C182.418 28.0467 182.338 28.5747 182.338 29.172C182.338 29.7693 182.418 30.2973 182.578 30.756C182.738 31.2147 182.991 31.5747 183.338 31.836C183.684 32.0973 184.132 32.228 184.682 32.228ZM193.032 33.74C192.392 33.74 191.856 33.6227 191.424 33.388C190.992 33.148 190.664 32.8333 190.44 32.444C190.221 32.0493 190.112 31.6173 190.112 31.148C190.112 30.7107 190.189 30.3267 190.344 29.996C190.499 29.6653 190.728 29.3853 191.032 29.156C191.336 28.9213 191.709 28.732 192.152 28.588C192.536 28.476 192.971 28.3773 193.456 28.292C193.941 28.2067 194.451 28.1267 194.984 28.052C195.523 27.9773 196.056 27.9027 196.584 27.828L195.976 28.164C195.987 27.4867 195.843 26.9853 195.544 26.66C195.251 26.3293 194.744 26.164 194.024 26.164C193.571 26.164 193.155 26.2707 192.776 26.484C192.397 26.692 192.133 27.0387 191.984 27.524L190.424 27.044C190.637 26.3027 191.043 25.7133 191.64 25.276C192.243 24.8387 193.043 24.62 194.04 24.62C194.813 24.62 195.485 24.7533 196.056 25.02C196.632 25.2813 197.053 25.6973 197.32 26.268C197.459 26.5507 197.544 26.8493 197.576 27.164C197.608 27.4787 197.624 27.8173 197.624 28.18V33.5H196.144V31.524L196.432 31.78C196.075 32.4413 195.619 32.9347 195.064 33.26C194.515 33.58 193.837 33.74 193.032 33.74ZM193.328 32.372C193.803 32.372 194.211 32.2893 194.552 32.124C194.893 31.9533 195.168 31.7373 195.376 31.476C195.584 31.2147 195.72 30.9427 195.784 30.66C195.875 30.404 195.925 30.116 195.936 29.796C195.952 29.476 195.96 29.22 195.96 29.028L196.504 29.228C195.976 29.308 195.496 29.38 195.064 29.444C194.632 29.508 194.24 29.572 193.888 29.636C193.541 29.6947 193.232 29.7667 192.96 29.852C192.731 29.932 192.525 30.028 192.344 30.14C192.168 30.252 192.027 30.388 191.92 30.548C191.819 30.708 191.768 30.9027 191.768 31.132C191.768 31.356 191.824 31.564 191.936 31.756C192.048 31.9427 192.219 32.092 192.448 32.204C192.677 32.316 192.971 32.372 193.328 32.372ZM203.005 33.732C201.955 33.732 201.099 33.5 200.437 33.036C199.776 32.572 199.371 31.9187 199.221 31.076L200.933 30.812C201.04 31.26 201.285 31.6147 201.669 31.876C202.059 32.132 202.541 32.26 203.117 32.26C203.64 32.26 204.048 32.1533 204.341 31.94C204.64 31.7267 204.789 31.4333 204.789 31.06C204.789 30.8413 204.736 30.6653 204.629 30.532C204.528 30.3933 204.312 30.2627 203.981 30.14C203.651 30.0173 203.147 29.8653 202.469 29.684C201.728 29.492 201.139 29.2867 200.701 29.068C200.269 28.844 199.96 28.5853 199.773 28.292C199.592 27.9933 199.501 27.6333 199.501 27.212C199.501 26.6893 199.64 26.2333 199.917 25.844C200.195 25.4547 200.584 25.1533 201.085 24.94C201.592 24.7267 202.184 24.62 202.861 24.62C203.523 24.62 204.112 24.724 204.629 24.932C205.147 25.14 205.565 25.436 205.885 25.82C206.205 26.1987 206.397 26.644 206.461 27.156L204.749 27.468C204.691 27.052 204.496 26.724 204.165 26.484C203.835 26.244 203.405 26.1133 202.877 26.092C202.371 26.0707 201.96 26.156 201.645 26.348C201.331 26.5347 201.173 26.7933 201.173 27.124C201.173 27.316 201.232 27.4787 201.349 27.612C201.472 27.7453 201.707 27.8733 202.053 27.996C202.4 28.1187 202.912 28.2653 203.589 28.436C204.315 28.6227 204.891 28.8307 205.317 29.06C205.744 29.284 206.048 29.5533 206.229 29.868C206.416 30.1773 206.509 30.5533 206.509 30.996C206.509 31.8493 206.197 32.5187 205.573 33.004C204.955 33.4893 204.099 33.732 203.005 33.732ZM211.583 33.732C210.533 33.732 209.677 33.5 209.015 33.036C208.354 32.572 207.949 31.9187 207.799 31.076L209.511 30.812C209.618 31.26 209.863 31.6147 210.247 31.876C210.637 32.132 211.119 32.26 211.695 32.26C212.218 32.26 212.626 32.1533 212.919 31.94C213.218 31.7267 213.367 31.4333 213.367 31.06C213.367 30.8413 213.314 30.6653 213.207 30.532C213.106 30.3933 212.89 30.2627 212.559 30.14C212.229 30.0173 211.725 29.8653 211.047 29.684C210.306 29.492 209.717 29.2867 209.279 29.068C208.847 28.844 208.538 28.5853 208.351 28.292C208.17 27.9933 208.079 27.6333 208.079 27.212C208.079 26.6893 208.218 26.2333 208.495 25.844C208.773 25.4547 209.162 25.1533 209.663 24.94C210.17 24.7267 210.762 24.62 211.439 24.62C212.101 24.62 212.69 24.724 213.207 24.932C213.725 25.14 214.143 25.436 214.463 25.82C214.783 26.1987 214.975 26.644 215.039 27.156L213.327 27.468C213.269 27.052 213.074 26.724 212.743 26.484C212.413 26.244 211.983 26.1133 211.455 26.092C210.949 26.0707 210.538 26.156 210.223 26.348C209.909 26.5347 209.751 26.7933 209.751 27.124C209.751 27.316 209.81 27.4787 209.927 27.612C210.05 27.7453 210.285 27.8733 210.631 27.996C210.978 28.1187 211.49 28.2653 212.167 28.436C212.893 28.6227 213.469 28.8307 213.895 29.06C214.322 29.284 214.626 29.5533 214.807 29.868C214.994 30.1773 215.087 30.5533 215.087 30.996C215.087 31.8493 214.775 32.5187 214.151 33.004C213.533 33.4893 212.677 33.732 211.583 33.732ZM218.385 33.5L215.745 24.852L217.401 24.86L219.209 30.788L221.033 24.86H222.473L224.297 30.788L226.105 24.86H227.753L225.113 33.5H223.769L221.753 27.244L219.729 33.5H218.385ZM232.625 33.74C231.761 33.74 231.012 33.5453 230.377 33.156C229.743 32.7667 229.252 32.2307 228.905 31.548C228.564 30.86 228.393 30.068 228.393 29.172C228.393 28.2707 228.569 27.4787 228.921 26.796C229.273 26.108 229.767 25.5747 230.401 25.196C231.036 24.812 231.777 24.62 232.625 24.62C233.489 24.62 234.239 24.8147 234.873 25.204C235.508 25.5933 235.999 26.1293 236.345 26.812C236.692 27.4947 236.865 28.2813 236.865 29.172C236.865 30.0733 236.689 30.868 236.337 31.556C235.991 32.2387 235.5 32.7747 234.865 33.164C234.231 33.548 233.484 33.74 232.625 33.74ZM232.625 32.164C233.452 32.164 234.068 31.8867 234.473 31.332C234.884 30.772 235.089 30.052 235.089 29.172C235.089 28.2707 234.881 27.5507 234.465 27.012C234.055 26.468 233.441 26.196 232.625 26.196C232.065 26.196 231.604 26.324 231.241 26.58C230.879 26.8307 230.609 27.18 230.433 27.628C230.257 28.0707 230.169 28.5853 230.169 29.172C230.169 30.0787 230.377 30.804 230.793 31.348C231.209 31.892 231.82 32.164 232.625 32.164ZM238.623 33.5V24.86H240.111V26.956L239.903 26.684C240.01 26.4067 240.149 26.1533 240.319 25.924C240.49 25.6893 240.687 25.4973 240.911 25.348C241.13 25.188 241.373 25.0653 241.639 24.98C241.911 24.8893 242.189 24.836 242.471 24.82C242.754 24.7987 243.026 24.812 243.287 24.86V26.428C243.005 26.3533 242.69 26.332 242.343 26.364C242.002 26.396 241.687 26.5053 241.399 26.692C241.127 26.868 240.911 27.0813 240.751 27.332C240.597 27.5827 240.485 27.8627 240.415 28.172C240.346 28.476 240.311 28.7987 240.311 29.14V33.5H238.623ZM248.086 33.74C247.281 33.74 246.585 33.54 245.998 33.14C245.417 32.74 244.966 32.196 244.646 31.508C244.332 30.8147 244.174 30.036 244.174 29.172C244.174 28.3027 244.334 27.5267 244.654 26.844C244.974 26.156 245.428 25.6147 246.014 25.22C246.606 24.82 247.308 24.62 248.118 24.62C248.934 24.62 249.62 24.82 250.174 25.22C250.734 25.6147 251.156 26.156 251.438 26.844C251.726 27.532 251.87 28.308 251.87 29.172C251.87 30.036 251.726 30.812 251.438 31.5C251.15 32.188 250.726 32.7347 250.166 33.14C249.606 33.54 248.913 33.74 248.086 33.74ZM248.318 32.228C248.868 32.228 249.316 32.0973 249.662 31.836C250.009 31.5747 250.262 31.2147 250.422 30.756C250.582 30.2973 250.662 29.7693 250.662 29.172C250.662 28.5747 250.58 28.0467 250.414 27.588C250.254 27.1293 250.004 26.772 249.662 26.516C249.326 26.26 248.897 26.132 248.374 26.132C247.82 26.132 247.364 26.268 247.006 26.54C246.649 26.812 246.382 27.1773 246.206 27.636C246.036 28.0947 245.95 28.6067 245.95 29.172C245.95 29.7427 246.036 30.26 246.206 30.724C246.382 31.1827 246.644 31.548 246.99 31.82C247.342 32.092 247.785 32.228 248.318 32.228ZM250.662 33.5V27.284H250.47V21.98H252.15V33.5H250.662ZM262.536 33.5C261.992 33.6067 261.459 33.652 260.936 33.636C260.413 33.62 259.947 33.5187 259.536 33.332C259.125 33.1453 258.816 32.852 258.608 32.452C258.421 32.0947 258.32 31.732 258.304 31.364C258.293 30.9907 258.288 30.5693 258.288 30.1V22.46H259.968V30.02C259.968 30.3667 259.971 30.668 259.976 30.924C259.987 31.18 260.043 31.396 260.144 31.572C260.336 31.9027 260.64 32.092 261.056 32.14C261.477 32.1827 261.971 32.164 262.536 32.084V33.5ZM256.632 26.204V24.86H262.536V26.204H256.632ZM270.422 33.5V29.252C270.422 28.916 270.392 28.572 270.334 28.22C270.28 27.8627 270.174 27.532 270.014 27.228C269.859 26.924 269.638 26.6787 269.35 26.492C269.067 26.3053 268.696 26.212 268.238 26.212C267.939 26.212 267.656 26.2627 267.39 26.364C267.123 26.46 266.888 26.6173 266.686 26.836C266.488 27.0547 266.331 27.3427 266.214 27.7C266.102 28.0573 266.046 28.492 266.046 29.004L265.006 28.612C265.006 27.828 265.152 27.1373 265.446 26.54C265.739 25.9373 266.16 25.468 266.71 25.132C267.259 24.796 267.923 24.628 268.702 24.628C269.299 24.628 269.8 24.724 270.206 24.916C270.611 25.108 270.939 25.3613 271.19 25.676C271.446 25.9853 271.64 26.324 271.774 26.692C271.907 27.06 271.998 27.42 272.046 27.772C272.094 28.124 272.118 28.4333 272.118 28.7V33.5H270.422ZM264.35 33.5V21.98H265.846V28.196H266.046V33.5H264.35ZM276.641 33.74C276.001 33.74 275.465 33.6227 275.033 33.388C274.601 33.148 274.273 32.8333 274.049 32.444C273.831 32.0493 273.721 31.6173 273.721 31.148C273.721 30.7107 273.799 30.3267 273.953 29.996C274.108 29.6653 274.337 29.3853 274.641 29.156C274.945 28.9213 275.319 28.732 275.761 28.588C276.145 28.476 276.58 28.3773 277.065 28.292C277.551 28.2067 278.06 28.1267 278.593 28.052C279.132 27.9773 279.665 27.9027 280.193 27.828L279.585 28.164C279.596 27.4867 279.452 26.9853 279.153 26.66C278.86 26.3293 278.353 26.164 277.633 26.164C277.18 26.164 276.764 26.2707 276.385 26.484C276.007 26.692 275.743 27.0387 275.593 27.524L274.033 27.044C274.247 26.3027 274.652 25.7133 275.249 25.276C275.852 24.8387 276.652 24.62 277.649 24.62C278.423 24.62 279.095 24.7533 279.665 25.02C280.241 25.2813 280.663 25.6973 280.929 26.268C281.068 26.5507 281.153 26.8493 281.185 27.164C281.217 27.4787 281.233 27.8173 281.233 28.18V33.5H279.753V31.524L280.041 31.78C279.684 32.4413 279.228 32.9347 278.673 33.26C278.124 33.58 277.447 33.74 276.641 33.74ZM276.937 32.372C277.412 32.372 277.82 32.2893 278.161 32.124C278.503 31.9533 278.777 31.7373 278.985 31.476C279.193 31.2147 279.329 30.9427 279.393 30.66C279.484 30.404 279.535 30.116 279.545 29.796C279.561 29.476 279.569 29.22 279.569 29.028L280.113 29.228C279.585 29.308 279.105 29.38 278.673 29.444C278.241 29.508 277.849 29.572 277.497 29.636C277.151 29.6947 276.841 29.7667 276.569 29.852C276.34 29.932 276.135 30.028 275.953 30.14C275.777 30.252 275.636 30.388 275.529 30.548C275.428 30.708 275.377 30.9027 275.377 31.132C275.377 31.356 275.433 31.564 275.545 31.756C275.657 31.9427 275.828 32.092 276.057 32.204C276.287 32.316 276.58 32.372 276.937 32.372ZM288.255 33.5C287.711 33.6067 287.177 33.652 286.655 33.636C286.132 33.62 285.665 33.5187 285.255 33.332C284.844 33.1453 284.535 32.852 284.327 32.452C284.14 32.0947 284.039 31.732 284.023 31.364C284.012 30.9907 284.007 30.5693 284.007 30.1V22.46H285.687V30.02C285.687 30.3667 285.689 30.668 285.695 30.924C285.705 31.18 285.761 31.396 285.863 31.572C286.055 31.9027 286.359 32.092 286.775 32.14C287.196 32.1827 287.689 32.164 288.255 32.084V33.5ZM282.351 26.204V24.86H288.255V26.204H282.351ZM293.439 23.444V21.82H295.111V23.444H293.439ZM293.439 33.5V24.86H295.111V33.5H293.439ZM300.818 33.732C299.767 33.732 298.911 33.5 298.25 33.036C297.588 32.572 297.183 31.9187 297.034 31.076L298.746 30.812C298.852 31.26 299.098 31.6147 299.482 31.876C299.871 32.132 300.354 32.26 300.93 32.26C301.452 32.26 301.86 32.1533 302.154 31.94C302.452 31.7267 302.602 31.4333 302.602 31.06C302.602 30.8413 302.548 30.6653 302.442 30.532C302.34 30.3933 302.124 30.2627 301.794 30.14C301.463 30.0173 300.959 29.8653 300.282 29.684C299.54 29.492 298.951 29.2867 298.514 29.068C298.082 28.844 297.772 28.5853 297.586 28.292C297.404 27.9933 297.314 27.6333 297.314 27.212C297.314 26.6893 297.452 26.2333 297.73 25.844C298.007 25.4547 298.396 25.1533 298.898 24.94C299.404 24.7267 299.996 24.62 300.674 24.62C301.335 24.62 301.924 24.724 302.442 24.932C302.959 25.14 303.378 25.436 303.698 25.82C304.018 26.1987 304.21 26.644 304.274 27.156L302.562 27.468C302.503 27.052 302.308 26.724 301.978 26.484C301.647 26.244 301.218 26.1133 300.69 26.092C300.183 26.0707 299.772 26.156 299.458 26.348C299.143 26.5347 298.986 26.7933 298.986 27.124C298.986 27.316 299.044 27.4787 299.162 27.612C299.284 27.7453 299.519 27.8733 299.866 27.996C300.212 28.1187 300.724 28.2653 301.402 28.436C302.127 28.6227 302.703 28.8307 303.13 29.06C303.556 29.284 303.86 29.5533 304.042 29.868C304.228 30.1773 304.322 30.5533 304.322 30.996C304.322 31.8493 304.01 32.5187 303.386 33.004C302.767 33.4893 301.911 33.732 300.818 33.732ZM29.752 53.74C28.8934 53.74 28.1387 53.5533 27.488 53.18C26.8427 52.8013 26.3387 52.276 25.976 51.604C25.6187 50.9267 25.44 50.1427 25.44 49.252C25.44 48.308 25.616 47.4893 25.968 46.796C26.3254 46.1027 26.8214 45.5667 27.456 45.188C28.0907 44.8093 28.8294 44.62 29.672 44.62C30.552 44.62 31.3014 44.8253 31.92 45.236C32.5387 45.6413 33 46.22 33.304 46.972C33.6134 47.724 33.736 48.6173 33.672 49.652H32V49.044C31.9894 48.0413 31.7974 47.3 31.424 46.82C31.056 46.34 30.4934 46.1 29.736 46.1C28.8987 46.1 28.2694 46.364 27.848 46.892C27.4267 47.42 27.216 48.1827 27.216 49.18C27.216 50.1293 27.4267 50.8653 27.848 51.388C28.2694 51.9053 28.8774 52.164 29.672 52.164C30.1947 52.164 30.6454 52.0467 31.024 51.812C31.408 51.572 31.7067 51.2307 31.92 50.788L33.56 51.308C33.224 52.0813 32.7147 52.6813 32.032 53.108C31.3494 53.5293 30.5894 53.74 29.752 53.74ZM26.672 49.652V48.348H32.84V49.652H26.672ZM37.7507 53.74C37.1107 53.74 36.5747 53.6227 36.1427 53.388C35.7107 53.148 35.3827 52.8333 35.1587 52.444C34.94 52.0493 34.8307 51.6173 34.8307 51.148C34.8307 50.7107 34.908 50.3267 35.0627 49.996C35.2173 49.6653 35.4467 49.3853 35.7507 49.156C36.0547 48.9213 36.428 48.732 36.8707 48.588C37.2547 48.476 37.6893 48.3773 38.1747 48.292C38.66 48.2067 39.1693 48.1267 39.7027 48.052C40.2413 47.9773 40.7747 47.9027 41.3027 47.828L40.6947 48.164C40.7053 47.4867 40.5613 46.9853 40.2627 46.66C39.9693 46.3293 39.4627 46.164 38.7427 46.164C38.2893 46.164 37.8733 46.2707 37.4947 46.484C37.116 46.692 36.852 47.0387 36.7027 47.524L35.1427 47.044C35.356 46.3027 35.7613 45.7133 36.3587 45.276C36.9613 44.8387 37.7613 44.62 38.7587 44.62C39.532 44.62 40.204 44.7533 40.7747 45.02C41.3507 45.2813 41.772 45.6973 42.0387 46.268C42.1773 46.5507 42.2627 46.8493 42.2947 47.164C42.3267 47.4787 42.3427 47.8173 42.3427 48.18V53.5H40.8627V51.524L41.1507 51.78C40.7933 52.4413 40.3373 52.9347 39.7827 53.26C39.2333 53.58 38.556 53.74 37.7507 53.74ZM38.0467 52.372C38.5213 52.372 38.9293 52.2893 39.2707 52.124C39.612 51.9533 39.8867 51.7373 40.0947 51.476C40.3027 51.2147 40.4387 50.9427 40.5027 50.66C40.5933 50.404 40.644 50.116 40.6547 49.796C40.6707 49.476 40.6787 49.22 40.6787 49.028L41.2227 49.228C40.6947 49.308 40.2147 49.38 39.7827 49.444C39.3507 49.508 38.9587 49.572 38.6067 49.636C38.26 49.6947 37.9507 49.7667 37.6787 49.852C37.4493 49.932 37.244 50.028 37.0627 50.14C36.8867 50.252 36.7453 50.388 36.6387 50.548C36.5373 50.708 36.4867 50.9027 36.4867 51.132C36.4867 51.356 36.5427 51.564 36.6547 51.756C36.7667 51.9427 36.9373 52.092 37.1667 52.204C37.396 52.316 37.6893 52.372 38.0467 52.372ZM47.724 53.732C46.6734 53.732 45.8174 53.5 45.156 53.036C44.4947 52.572 44.0894 51.9187 43.94 51.076L45.652 50.812C45.7587 51.26 46.004 51.6147 46.388 51.876C46.7774 52.132 47.26 52.26 47.836 52.26C48.3587 52.26 48.7667 52.1533 49.06 51.94C49.3587 51.7267 49.508 51.4333 49.508 51.06C49.508 50.8413 49.4547 50.6653 49.348 50.532C49.2467 50.3933 49.0307 50.2627 48.7 50.14C48.3694 50.0173 47.8654 49.8653 47.188 49.684C46.4467 49.492 45.8574 49.2867 45.42 49.068C44.988 48.844 44.6787 48.5853 44.492 48.292C44.3107 47.9933 44.22 47.6333 44.22 47.212C44.22 46.6893 44.3587 46.2333 44.636 45.844C44.9134 45.4547 45.3027 45.1533 45.804 44.94C46.3107 44.7267 46.9027 44.62 47.58 44.62C48.2414 44.62 48.8307 44.724 49.348 44.932C49.8654 45.14 50.284 45.436 50.604 45.82C50.924 46.1987 51.116 46.644 51.18 47.156L49.468 47.468C49.4094 47.052 49.2147 46.724 48.884 46.484C48.5534 46.244 48.124 46.1133 47.596 46.092C47.0894 46.0707 46.6787 46.156 46.364 46.348C46.0494 46.5347 45.892 46.7933 45.892 47.124C45.892 47.316 45.9507 47.4787 46.068 47.612C46.1907 47.7453 46.4254 47.8733 46.772 47.996C47.1187 48.1187 47.6307 48.2653 48.308 48.436C49.0334 48.6227 49.6094 48.8307 50.036 49.06C50.4627 49.284 50.7667 49.5533 50.948 49.868C51.1347 50.1773 51.228 50.5533 51.228 50.996C51.228 51.8493 50.916 52.5187 50.292 53.004C49.6734 53.4893 48.8174 53.732 47.724 53.732ZM53.8537 57.34L55.5257 52.788L55.5497 54.132L51.7817 44.86H53.5257L56.3417 52.02H55.8297L58.5177 44.86H60.2137L55.4457 57.34H53.8537ZM65.462 53.5V44.556C65.462 44.3373 65.47 44.1053 65.486 43.86C65.502 43.6093 65.5474 43.364 65.622 43.124C65.702 42.8787 65.8327 42.6547 66.014 42.452C66.2327 42.212 66.4727 42.0413 66.734 41.94C66.9954 41.8387 67.254 41.78 67.51 41.764C67.7714 41.748 68.0114 41.74 68.23 41.74H69.318V43.116H68.31C67.9154 43.116 67.6194 43.2147 67.422 43.412C67.23 43.604 67.134 43.8787 67.134 44.236V53.5H65.462ZM64.03 46.204V44.86H69.318V46.204H64.03ZM74.0314 53.74C73.1674 53.74 72.4181 53.5453 71.7834 53.156C71.1488 52.7667 70.6581 52.2307 70.3114 51.548C69.9701 50.86 69.7994 50.068 69.7994 49.172C69.7994 48.2707 69.9754 47.4787 70.3274 46.796C70.6794 46.108 71.1728 45.5747 71.8074 45.196C72.4421 44.812 73.1834 44.62 74.0314 44.62C74.8954 44.62 75.6448 44.8147 76.2794 45.204C76.9141 45.5933 77.4048 46.1293 77.7514 46.812C78.0981 47.4947 78.2714 48.2813 78.2714 49.172C78.2714 50.0733 78.0954 50.868 77.7434 51.556C77.3968 52.2387 76.9061 52.7747 76.2714 53.164C75.6368 53.548 74.8901 53.74 74.0314 53.74ZM74.0314 52.164C74.8581 52.164 75.4741 51.8867 75.8794 51.332C76.2901 50.772 76.4954 50.052 76.4954 49.172C76.4954 48.2707 76.2874 47.5507 75.8714 47.012C75.4608 46.468 74.8474 46.196 74.0314 46.196C73.4714 46.196 73.0101 46.324 72.6474 46.58C72.2848 46.8307 72.0154 47.18 71.8394 47.628C71.6634 48.0707 71.5754 48.5853 71.5754 49.172C71.5754 50.0787 71.7834 50.804 72.1994 51.348C72.6154 51.892 73.2261 52.164 74.0314 52.164ZM80.0294 53.5V44.86H81.5174V46.956L81.3094 46.684C81.4161 46.4067 81.5548 46.1533 81.7254 45.924C81.8961 45.6893 82.0934 45.4973 82.3174 45.348C82.5361 45.188 82.7788 45.0653 83.0454 44.98C83.3174 44.8893 83.5948 44.836 83.8774 44.82C84.1601 44.7987 84.4321 44.812 84.6934 44.86V46.428C84.4108 46.3533 84.0961 46.332 83.7494 46.364C83.4081 46.396 83.0934 46.5053 82.8054 46.692C82.5334 46.868 82.3174 47.0813 82.1574 47.332C82.0028 47.5827 81.8908 47.8627 81.8214 48.172C81.7521 48.476 81.7174 48.7987 81.7174 49.14V53.5H80.0294ZM99.772 53.5L99.78 48.116C99.78 47.492 99.62 47.0067 99.3 46.66C98.98 46.308 98.5587 46.132 98.036 46.132C97.716 46.132 97.4227 46.2067 97.156 46.356C96.8947 46.5 96.6814 46.7187 96.516 47.012C96.356 47.3 96.276 47.6627 96.276 48.1L95.468 47.692C95.4574 47.084 95.5854 46.5507 95.852 46.092C96.124 45.6333 96.492 45.2787 96.956 45.028C97.42 44.772 97.94 44.644 98.516 44.644C99.4494 44.644 100.172 44.924 100.684 45.484C101.196 46.044 101.452 46.788 101.452 47.716L101.444 53.5H99.772ZM89.412 53.5V44.86H90.9V47.356H91.092V53.5H89.412ZM94.596 53.5L94.604 48.148C94.604 47.5187 94.444 47.0253 94.124 46.668C93.8094 46.3107 93.3854 46.132 92.852 46.132C92.324 46.132 91.8974 46.3133 91.572 46.676C91.252 47.0387 91.092 47.5133 91.092 48.1L90.292 47.588C90.292 47.0227 90.428 46.5187 90.7 46.076C90.972 45.6333 91.34 45.284 91.804 45.028C92.268 44.772 92.7934 44.644 93.38 44.644C93.9934 44.644 94.516 44.7747 94.948 45.036C95.38 45.292 95.708 45.652 95.932 46.116C96.1614 46.58 96.276 47.1187 96.276 47.732L96.268 53.5H94.596ZM107.252 53.74C106.393 53.74 105.639 53.5533 104.988 53.18C104.343 52.8013 103.839 52.276 103.476 51.604C103.119 50.9267 102.94 50.1427 102.94 49.252C102.94 48.308 103.116 47.4893 103.468 46.796C103.825 46.1027 104.321 45.5667 104.956 45.188C105.591 44.8093 106.329 44.62 107.172 44.62C108.052 44.62 108.801 44.8253 109.42 45.236C110.039 45.6413 110.5 46.22 110.804 46.972C111.113 47.724 111.236 48.6173 111.172 49.652H109.5V49.044C109.489 48.0413 109.297 47.3 108.924 46.82C108.556 46.34 107.993 46.1 107.236 46.1C106.399 46.1 105.769 46.364 105.348 46.892C104.927 47.42 104.716 48.1827 104.716 49.18C104.716 50.1293 104.927 50.8653 105.348 51.388C105.769 51.9053 106.377 52.164 107.172 52.164C107.695 52.164 108.145 52.0467 108.524 51.812C108.908 51.572 109.207 51.2307 109.42 50.788L111.06 51.308C110.724 52.0813 110.215 52.6813 109.532 53.108C108.849 53.5293 108.089 53.74 107.252 53.74ZM104.172 49.652V48.348H110.34V49.652H104.172ZM121.114 53.5C120.57 53.6067 120.037 53.652 119.514 53.636C118.991 53.62 118.525 53.5187 118.114 53.332C117.703 53.1453 117.394 52.852 117.186 52.452C116.999 52.0947 116.898 51.732 116.882 51.364C116.871 50.9907 116.866 50.5693 116.866 50.1V42.46H118.546V50.02C118.546 50.3667 118.549 50.668 118.554 50.924C118.565 51.18 118.621 51.396 118.722 51.572C118.914 51.9027 119.218 52.092 119.634 52.14C120.055 52.1827 120.549 52.164 121.114 52.084V53.5ZM115.21 46.204V44.86H121.114V46.204H115.21ZM126.297 53.74C125.433 53.74 124.684 53.5453 124.049 53.156C123.414 52.7667 122.924 52.2307 122.577 51.548C122.236 50.86 122.065 50.068 122.065 49.172C122.065 48.2707 122.241 47.4787 122.593 46.796C122.945 46.108 123.438 45.5747 124.073 45.196C124.708 44.812 125.449 44.62 126.297 44.62C127.161 44.62 127.91 44.8147 128.545 45.204C129.18 45.5933 129.67 46.1293 130.017 46.812C130.364 47.4947 130.537 48.2813 130.537 49.172C130.537 50.0733 130.361 50.868 130.009 51.556C129.662 52.2387 129.172 52.7747 128.537 53.164C127.902 53.548 127.156 53.74 126.297 53.74ZM126.297 52.164C127.124 52.164 127.74 51.8867 128.145 51.332C128.556 50.772 128.761 50.052 128.761 49.172C128.761 48.2707 128.553 47.5507 128.137 47.012C127.726 46.468 127.113 46.196 126.297 46.196C125.737 46.196 125.276 46.324 124.913 46.58C124.55 46.8307 124.281 47.18 124.105 47.628C123.929 48.0707 123.841 48.5853 123.841 49.172C123.841 50.0787 124.049 50.804 124.465 51.348C124.881 51.892 125.492 52.164 126.297 52.164ZM135.498 53.5V44.86H136.986V46.956L136.778 46.684C136.885 46.4067 137.024 46.1533 137.194 45.924C137.365 45.6893 137.562 45.4973 137.786 45.348C138.005 45.188 138.248 45.0653 138.514 44.98C138.786 44.8893 139.064 44.836 139.346 44.82C139.629 44.7987 139.901 44.812 140.162 44.86V46.428C139.88 46.3533 139.565 46.332 139.218 46.364C138.877 46.396 138.562 46.5053 138.274 46.692C138.002 46.868 137.786 47.0813 137.626 47.332C137.472 47.5827 137.36 47.8627 137.29 48.172C137.221 48.476 137.186 48.7987 137.186 49.14V53.5H135.498ZM145.361 53.74C144.503 53.74 143.748 53.5533 143.097 53.18C142.452 52.8013 141.948 52.276 141.585 51.604C141.228 50.9267 141.049 50.1427 141.049 49.252C141.049 48.308 141.225 47.4893 141.577 46.796C141.935 46.1027 142.431 45.5667 143.065 45.188C143.7 44.8093 144.439 44.62 145.281 44.62C146.161 44.62 146.911 44.8253 147.529 45.236C148.148 45.6413 148.609 46.22 148.913 46.972C149.223 47.724 149.345 48.6173 149.281 49.652H147.609V49.044C147.599 48.0413 147.407 47.3 147.033 46.82C146.665 46.34 146.103 46.1 145.345 46.1C144.508 46.1 143.879 46.364 143.457 46.892C143.036 47.42 142.825 48.1827 142.825 49.18C142.825 50.1293 143.036 50.8653 143.457 51.388C143.879 51.9053 144.487 52.164 145.281 52.164C145.804 52.164 146.255 52.0467 146.633 51.812C147.017 51.572 147.316 51.2307 147.529 50.788L149.169 51.308C148.833 52.0813 148.324 52.6813 147.641 53.108C146.959 53.5293 146.199 53.74 145.361 53.74ZM142.281 49.652V48.348H148.449V49.652H142.281ZM161.194 53.5L161.202 48.116C161.202 47.492 161.042 47.0067 160.722 46.66C160.402 46.308 159.981 46.132 159.458 46.132C159.138 46.132 158.845 46.2067 158.578 46.356C158.317 46.5 158.103 46.7187 157.938 47.012C157.778 47.3 157.698 47.6627 157.698 48.1L156.89 47.692C156.879 47.084 157.007 46.5507 157.274 46.092C157.546 45.6333 157.914 45.2787 158.378 45.028C158.842 44.772 159.362 44.644 159.938 44.644C160.871 44.644 161.594 44.924 162.106 45.484C162.618 46.044 162.874 46.788 162.874 47.716L162.866 53.5H161.194ZM150.834 53.5V44.86H152.322V47.356H152.514V53.5H150.834ZM156.018 53.5L156.026 48.148C156.026 47.5187 155.866 47.0253 155.546 46.668C155.231 46.3107 154.807 46.132 154.274 46.132C153.746 46.132 153.319 46.3133 152.994 46.676C152.674 47.0387 152.514 47.5133 152.514 48.1L151.714 47.588C151.714 47.0227 151.85 46.5187 152.122 46.076C152.394 45.6333 152.762 45.284 153.226 45.028C153.69 44.772 154.215 44.644 154.802 44.644C155.415 44.644 155.938 44.7747 156.37 45.036C156.802 45.292 157.13 45.652 157.354 46.116C157.583 46.58 157.698 47.1187 157.698 47.732L157.69 53.5H156.018ZM168.674 53.74C167.815 53.74 167.061 53.5533 166.41 53.18C165.765 52.8013 165.261 52.276 164.898 51.604C164.541 50.9267 164.362 50.1427 164.362 49.252C164.362 48.308 164.538 47.4893 164.89 46.796C165.247 46.1027 165.743 45.5667 166.378 45.188C167.013 44.8093 167.751 44.62 168.594 44.62C169.474 44.62 170.223 44.8253 170.842 45.236C171.461 45.6413 171.922 46.22 172.226 46.972C172.535 47.724 172.658 48.6173 172.594 49.652H170.922V49.044C170.911 48.0413 170.719 47.3 170.346 46.82C169.978 46.34 169.415 46.1 168.658 46.1C167.821 46.1 167.191 46.364 166.77 46.892C166.349 47.42 166.138 48.1827 166.138 49.18C166.138 50.1293 166.349 50.8653 166.77 51.388C167.191 51.9053 167.799 52.164 168.594 52.164C169.117 52.164 169.567 52.0467 169.946 51.812C170.33 51.572 170.629 51.2307 170.842 50.788L172.482 51.308C172.146 52.0813 171.637 52.6813 170.954 53.108C170.271 53.5293 169.511 53.74 168.674 53.74ZM165.594 49.652V48.348H171.762V49.652H165.594ZM184.506 53.5L184.514 48.116C184.514 47.492 184.354 47.0067 184.034 46.66C183.714 46.308 183.293 46.132 182.77 46.132C182.45 46.132 182.157 46.2067 181.89 46.356C181.629 46.5 181.416 46.7187 181.25 47.012C181.09 47.3 181.01 47.6627 181.01 48.1L180.202 47.692C180.192 47.084 180.32 46.5507 180.586 46.092C180.858 45.6333 181.226 45.2787 181.69 45.028C182.154 44.772 182.674 44.644 183.25 44.644C184.184 44.644 184.906 44.924 185.418 45.484C185.93 46.044 186.186 46.788 186.186 47.716L186.178 53.5H184.506ZM174.146 53.5V44.86H175.634V47.356H175.826V53.5H174.146ZM179.33 53.5L179.338 48.148C179.338 47.5187 179.178 47.0253 178.858 46.668C178.544 46.3107 178.12 46.132 177.586 46.132C177.058 46.132 176.632 46.3133 176.306 46.676C175.986 47.0387 175.826 47.5133 175.826 48.1L175.026 47.588C175.026 47.0227 175.162 46.5187 175.434 46.076C175.706 45.6333 176.074 45.284 176.538 45.028C177.002 44.772 177.528 44.644 178.114 44.644C178.728 44.644 179.25 44.7747 179.682 45.036C180.114 45.292 180.442 45.652 180.666 46.116C180.896 46.58 181.01 47.1187 181.01 47.732L181.002 53.5H179.33ZM192.32 53.74C191.493 53.74 190.8 53.54 190.24 53.14C189.68 52.7347 189.256 52.188 188.968 51.5C188.68 50.812 188.536 50.036 188.536 49.172C188.536 48.308 188.677 47.532 188.96 46.844C189.248 46.156 189.669 45.6147 190.224 45.22C190.784 44.82 191.472 44.62 192.288 44.62C193.098 44.62 193.797 44.82 194.384 45.22C194.976 45.6147 195.432 46.156 195.752 46.844C196.072 47.5267 196.232 48.3027 196.232 49.172C196.232 50.036 196.072 50.8147 195.752 51.508C195.437 52.196 194.986 52.74 194.4 53.14C193.818 53.54 193.125 53.74 192.32 53.74ZM188.256 53.5V41.98H189.936V47.284H189.744V53.5H188.256ZM192.088 52.228C192.621 52.228 193.061 52.092 193.408 51.82C193.76 51.548 194.021 51.1827 194.192 50.724C194.368 50.26 194.456 49.7427 194.456 49.172C194.456 48.6067 194.368 48.0947 194.192 47.636C194.021 47.1773 193.757 46.812 193.4 46.54C193.042 46.268 192.586 46.132 192.032 46.132C191.509 46.132 191.077 46.26 190.736 46.516C190.4 46.772 190.149 47.1293 189.984 47.588C189.824 48.0467 189.744 48.5747 189.744 49.172C189.744 49.7693 189.824 50.2973 189.984 50.756C190.144 51.2147 190.397 51.5747 190.744 51.836C191.09 52.0973 191.538 52.228 192.088 52.228ZM201.83 53.74C200.972 53.74 200.217 53.5533 199.566 53.18C198.921 52.8013 198.417 52.276 198.054 51.604C197.697 50.9267 197.518 50.1427 197.518 49.252C197.518 48.308 197.694 47.4893 198.046 46.796C198.404 46.1027 198.9 45.5667 199.534 45.188C200.169 44.8093 200.908 44.62 201.75 44.62C202.63 44.62 203.38 44.8253 203.998 45.236C204.617 45.6413 205.078 46.22 205.382 46.972C205.692 47.724 205.814 48.6173 205.75 49.652H204.078V49.044C204.068 48.0413 203.876 47.3 203.502 46.82C203.134 46.34 202.572 46.1 201.814 46.1C200.977 46.1 200.348 46.364 199.926 46.892C199.505 47.42 199.294 48.1827 199.294 49.18C199.294 50.1293 199.505 50.8653 199.926 51.388C200.348 51.9053 200.956 52.164 201.75 52.164C202.273 52.164 202.724 52.0467 203.102 51.812C203.486 51.572 203.785 51.2307 203.998 50.788L205.638 51.308C205.302 52.0813 204.793 52.6813 204.11 53.108C203.428 53.5293 202.668 53.74 201.83 53.74ZM198.75 49.652V48.348H204.918V49.652H198.75ZM207.545 53.5V44.86H209.033V46.956L208.825 46.684C208.932 46.4067 209.07 46.1533 209.241 45.924C209.412 45.6893 209.609 45.4973 209.833 45.348C210.052 45.188 210.294 45.0653 210.561 44.98C210.833 44.8893 211.11 44.836 211.393 44.82C211.676 44.7987 211.948 44.812 212.209 44.86V46.428C211.926 46.3533 211.612 46.332 211.265 46.364C210.924 46.396 210.609 46.5053 210.321 46.692C210.049 46.868 209.833 47.0813 209.673 47.332C209.518 47.5827 209.406 47.8627 209.337 48.172C209.268 48.476 209.233 48.7987 209.233 49.14V53.5H207.545ZM215.877 50.372C215.877 49.988 215.906 49.628 215.965 49.292C216.029 48.956 216.146 48.636 216.317 48.332C216.461 48.044 216.629 47.812 216.821 47.636C217.018 47.4547 217.231 47.2787 217.461 47.108C217.695 46.932 217.941 46.708 218.197 46.436C218.41 46.2013 218.551 45.964 218.621 45.724C218.695 45.484 218.733 45.2253 218.733 44.948C218.733 44.7453 218.709 44.556 218.661 44.38C218.613 44.204 218.533 44.052 218.421 43.924C218.25 43.7107 218.034 43.5613 217.773 43.476C217.511 43.3853 217.239 43.34 216.957 43.34C216.701 43.34 216.455 43.3747 216.221 43.444C215.991 43.5133 215.799 43.62 215.645 43.764C215.479 43.9027 215.357 44.076 215.277 44.284C215.202 44.4867 215.167 44.708 215.173 44.948H213.413C213.455 44.4467 213.583 43.9773 213.797 43.54C214.01 43.1027 214.298 42.748 214.661 42.476C214.97 42.2307 215.322 42.0493 215.717 41.932C216.111 41.8093 216.506 41.748 216.901 41.748C217.466 41.748 217.999 41.836 218.501 42.012C219.007 42.188 219.429 42.4733 219.765 42.868C220.01 43.1453 220.194 43.4627 220.317 43.82C220.445 44.172 220.509 44.5373 220.509 44.916C220.509 45.4227 220.399 45.892 220.181 46.324C219.967 46.756 219.693 47.1507 219.357 47.508C219.181 47.6947 219.002 47.8653 218.821 48.02C218.639 48.1693 218.471 48.316 218.317 48.46C218.162 48.604 218.034 48.7613 217.933 48.932C217.789 49.1773 217.706 49.3987 217.685 49.596C217.663 49.788 217.653 50.0467 217.653 50.372H215.877ZM215.885 53.5V51.564H217.653V53.5H215.885Z" fill="white"/>
<rect x="305.6" y="19.6899" width="36" height="36" rx="18" fill="white" fill-opacity="0.05"/>
<g clip-path="url(#clip0_20005128_14401)">
<path d="M327.421 34.6003L323.6 38.4212L319.779 34.6003L318.6 35.7795L323.6 40.7795L328.6 35.7795L327.421 34.6003Z" fill="white"/>
</g>
<defs>
<clipPath id="clip0_20005128_14401">
<rect width="10" height="10" fill="white" transform="translate(318.6 32.6899)"/>
</clipPath>
</defs>
</svg>
